<?xml version="1.0" encoding="UTF-8"?>
<svg width="623px" height="300px" viewBox="0 0 623 300" version="1.1" xmlns="http://www.w3.org/2000/svg" xmlns:xlink="http://www.w3.org/1999/xlink">
    <!-- Generator: Sketch 58 (84663) - https://sketch.com -->
    <title>Group 2</title>
    <desc>Created with Sketch.</desc>
    <g id="Page-1" stroke="none" stroke-width="1" fill="none" fill-rule="evenodd">
        <g id="Donate" transform="translate(-408.000000, -173.000000)">
            <g id="Group-2" transform="translate(408.500000, 173.000000)">
                <g id="Asset-2" transform="translate(353.428571, 0.000000)">
                    <path d="M58.2428571,96.9142857 C58.2428571,96.9142857 54.0428571,90 54.7142857,83.6571429 C55.3543515,76.9217419 56.4617819,70.2389724 58.0285714,63.6571429 C59.8857143,55.4 60.3142857,36.2857143 56.0857143,27.0714286 C51.8571429,17.8571429 38.5857143,10.7142857 27.9285714,15.6428571 C17.2714286,20.5714286 9,34.8857143 8.88571429,49.5857143 C8.77142857,64.2857143 10.5571429,73.9428571 13.2857143,79.7571429 C16.0142857,85.5714286 21.9571429,86.6714286 17.8857143,95.6142857 C13.8142857,104.557143 12.6857143,110.128571 14.7142857,114.7 C16.7428571,119.271429 19.8857143,128.414286 38.3142857,121.285714 C56.7428571,114.157143 61.4428571,104.985714 58.2428571,96.9142857 Z" id="Path" fill="#FF9FED" fill-rule="nonzero"></path>
                    <path d="M2.52857143,40.9142857 C2.52857143,40.9142857 6.27142857,44.4714286 15.3857143,40.3285714 C24.5,36.1857143 23.7285714,32.8571429 37.0714286,34.1142857 C50.4142857,35.3714286 59.5571429,37.2428571 61.1,27.2285714 C62.6428571,17.2142857 53.9857143,7.42857143 41.4714286,5.71428571 C28.9571429,4 16.8428571,4.4 9.67142857,14.5 C2.5,24.6 0.8,31.4285714 0.428571429,34.9142857 C0.281738438,37.1168853 1.04022786,39.2839979 2.52857143,40.9142857 L2.52857143,40.9142857 Z" id="Path" fill="#00D5BE" fill-rule="nonzero"></path>
                    <path d="M25.7714286,41.7142857 C25.7714286,41.7142857 21.6714286,66.2 22.2714286,66.2571429 L27.4428571,66.7428571" id="Path" stroke="#000000"></path>
                    <path d="M190.3,88.3285714 L190.171429,88.7285714 L190.171429,88.7285714 L190.171429,88.7285714 C189.17429,91.8199256 187.657311,94.7186121 185.685714,97.3 C178.728571,106.414286 182.657143,120.157143 193.542857,123.371429 C204.428571,126.585714 214.8,123.985714 220.514286,114.085714 C223.3894,108.985575 223.691177,102.828275 221.328571,97.4714286 C212.428571,100.857143 200.428571,98.1857143 190.3,88.3285714 Z" id="Path" fill="#0023FF" fill-rule="nonzero" style="mix-blend-mode: multiply;"></path>
                    <polygon id="Path" fill="#FF9FED" fill-rule="nonzero" points="190.428571 87.9857143 189.8 87.8428571 190.328571 88.3285714"></polygon>
                    <path d="M189.771429,87.8428571 C202.9,100.971429 219.242857,101.957143 227.985714,93.2 C236.728571,84.4428571 241.557143,78.9142857 241.557143,67.3142857 C241.557143,55.7142857 239.871429,32.7857143 231.557143,18.3857143 C223.242857,3.98571429 198.042857,8.08571429 189.828571,20.6571429 C181.614286,33.2285714 187.814286,53.2142857 187.814286,53.2142857 C187.814286,53.2142857 191.857143,64.4428571 191.857143,71.4285714 C191.857143,75.7142857 192.142857,81.2428571 190.642857,86.9571429 C190.480952,87.5761905 190.3,88.1952381 190.1,88.8142857" id="Path" fill="#FF0000" fill-rule="nonzero"></path>
                    <path d="M190.3,88.3571429 L189.771429,87.8428571 C176.642857,74.7142857 172.628571,64.9857143 171.385714,44.9857143 C170.142857,24.9857143 182.342857,11.5857143 196.571429,3.38571429 C210.8,-4.81428571 228.542857,4.1 231.928571,7.5 C235.314286,10.9 239.785714,23.9285714 230.5,29.2857143 C221.214286,34.6428571 215.5,27.5 206.757143,23.7142857 C198.014286,19.9285714 193.557143,23.7142857 188.9,31.7857143 C184.242857,39.8571429 187.828571,53.2142857 187.828571,53.2142857 C187.828571,53.2142857 191.857143,64.4428571 191.857143,71.4285714 C191.857143,76.4285714 192.228571,82.8571429 189.857143,89.5285714" id="Path" fill="#662EFF" fill-rule="nonzero"></path>
                    <path d="M224.6,72.6571429 C225.671429,72.6571429 233.171429,70.7 233.171429,70.7 L231.742857,43.9142857" id="Path" stroke="#000000"></path>
                    <path d="M267.757143,249.871429 C266.769724,242.906129 264.456576,236.194603 260.942857,230.1 C255.571429,220.585714 245.657143,206.057143 232.714286,200.328571 C212.714286,191.5 194.471429,191.042857 173.585714,200.485714 C152.7,209.928571 141.657143,236.385714 141.085714,254.4 C140.514286,272.414286 152.4,283.485714 168.714286,290.7 C185.028571,297.914286 232.142857,305.885714 252.142857,287.085714 C267.128571,272.985714 269.228571,261.028571 267.757143,249.871429 Z" id="Path" fill="#000000" fill-rule="nonzero"></path>
                    <path d="M162.542857,287.657143 C163.028571,287.871429 173.6,292.6 180.357143,287.657143 C187.114286,282.714286 190.428571,283.657143 189.014286,270.514286 C187.6,257.371429 226.157143,262.6 226.157143,262.6 C226.157143,262.6 224.114286,277.7 231.785714,283.871429 C239.457143,290.042857 252.214286,286.914286 255.728571,283.371429 C254.6,284.585714 253.4,285.814286 252.071429,287.071429 C232.071429,305.871429 184.928571,297.9 168.642857,290.685714 C166.547619,289.752381 164.514286,288.742857 162.542857,287.657143 Z" id="Path" fill="#FF9FED" fill-rule="nonzero"></path>
                    <path d="M228.471429,254.285714 C228.471429,254.285714 226.642857,272.271429 211.571429,277.485714 C196.5,282.7 188.271429,273 181.914286,257.342857 C175.557143,241.685714 173.342857,220 182.428571,208.771429 C191.514286,197.542857 207.557143,196.085714 215.128571,202.185714 C222.7,208.285714 230.842857,217.9 230.728571,233.614286 C230.614286,249.328571 228.471429,254.285714 228.471429,254.285714 Z" id="Path" fill="#00D5BE" fill-rule="nonzero"></path>
                    <polyline id="Path" stroke="#000000" points="200.157143 226.957143 200.928571 247.042857 205.114286 246.6"></polyline>
                    <path d="M71.0285714,262.714286 L71.1571429,263.114286 L71.1571429,263.114286 L71.1571429,263.114286 C72.1542815,266.20564 73.6712607,269.104326 75.6428571,271.685714 C82.6142857,280.8 78.6857143,294.542857 67.7857143,297.757143 C56.8857143,300.971429 46.5428571,298.371429 40.8285714,288.471429 C37.953457,283.371289 37.6516805,277.213989 40.0142857,271.857143 C48.9142857,275.242857 60.8714286,272.571429 71.0285714,262.714286 Z" id="Path" fill="#FF9FED" fill-rule="nonzero"></path>
                    <polygon id="Path" fill="#FF9FED" fill-rule="nonzero" points="70.9428571 262.371429 71.5714286 262.228571 71.0428571 262.714286"></polygon>
                    <path d="M71.5571429,262.228571 C58.4285714,275.357143 42.1,276.342857 33.3428571,267.585714 C24.5857143,258.828571 19.7714286,253.3 19.7714286,241.7 C19.7714286,230.1 21.4571429,207.171429 29.7714286,192.771429 C38.0857143,178.371429 63.2857143,182.471429 71.5,195.042857 C79.7142857,207.614286 73.5142857,227.6 73.5142857,227.6 C73.5142857,227.6 69.4142857,238.857143 69.4142857,245.814286 C69.4142857,250.1 69.1285714,255.628571 70.6285714,261.342857 C70.7904762,261.961905 70.9714286,262.580952 71.1714286,263.2" id="Path" fill="#FF0000" fill-rule="nonzero"></path>
                    <path d="M71.0428571,262.742857 L71.5714286,262.228571 C84.7,249.1 88.7142857,239.371429 89.9714286,219.371429 C91.2285714,199.371429 79,185.971429 64.7142857,177.757143 C50.4285714,169.542857 32.7571429,178.471429 29.3571429,181.871429 C25.9571429,185.271429 21.5,198.3 30.7857143,203.657143 C40.0714286,209.014286 45.7857143,201.871429 54.5428571,198.085714 C63.3,194.3 67.7428571,198.085714 72.4,206.157143 C77.0571429,214.228571 73.4714286,227.585714 73.4714286,227.585714 C73.4714286,227.585714 69.3714286,238.842857 69.3714286,245.8 C69.3714286,250.8 69,257.228571 71.3714286,263.9" id="Path" fill="#F4E800" fill-rule="nonzero"></path>
                    <path d="M36.7428571,247.042857 C35.6714286,247.042857 28.1714286,245.085714 28.1714286,245.085714 L29.6,218.3" id="Path" stroke="#000000"></path>
                </g>
                <g id="Asset-1" transform="translate(0.000000, 1.000000)">
                    <path d="M24.2857143,55.4714286 C24.2857143,55.4714286 5.71428571,58.3285714 1.01428571,79.5142857 C-3.68571429,100.7 9.11428571,116.9 20.7714286,120.942857 C32.4285714,124.985714 62.8571429,128.8 79.8285714,94.2857143" id="Path" fill="#FF9FED" fill-rule="nonzero"></path>
                    <path d="M72.8571429,77.1714286 C72.8571429,77.1714286 74.9285714,57.2714286 72.6571429,40.9571429 C70.3857143,24.6428571 52.8571429,14.8714286 40.6428571,19.8714286 C28.4285714,24.8714286 24.2857143,32.6142857 24.2857143,52.3714286 C24.2857143,53.4571429 24.2857143,54.4857143 24.2857143,55.5 L24.2857143,55.5 C24.2857143,56.5 24.3571429,57.4428571 24.4142857,58.3571429 C24.4142857,58.4714286 24.4142857,58.5857143 24.4142857,58.7 C24.4142857,59.5571429 24.5428571,60.3714286 24.6142857,61.1714286 C24.6142857,61.3571429 24.6142857,61.5428571 24.6142857,61.7142857 C24.6857143,62.4571429 24.7857143,63.1428571 24.8857143,63.8857143 C24.8857143,64.0857143 24.8857143,64.3 24.9714286,64.5 C25.0714286,65.1714286 25.1714286,65.8142857 25.2857143,66.4428571 L25.4,67.0857143 C25.5142857,67.6857143 25.6428571,68.2571429 25.7714286,68.8285714 L25.9285714,69.4857143 C26.0571429,70.0285714 26.2,70.5428571 26.3428571,71.0571429 L26.5285714,71.7 C26.6714286,72.1857143 26.8190476,72.6619048 26.9714286,73.1285714 L27.1857143,73.7571429 C27.3380952,74.1952381 27.4952381,74.6190476 27.6571429,75.0285714 L27.9142857,75.6428571 C28.0857143,76.0285714 28.2428571,76.4142857 28.4142857,76.7857143 L28.7,77.3857143 C28.8714286,77.7285714 29.0428571,78.0714286 29.2142857,78.4142857 L29.5285714,78.9857143 C29.7,79.3 29.8714286,79.6 30.0571429,79.9 L30.4142857,80.4714286 C30.5857143,80.7428571 30.7571429,81.0142857 30.9428571,81.2857143 L31.3428571,81.8428571 L31.8571429,82.5428571 L32.3285714,83.1285714 L32.8142857,83.7142857 L33.3714286,84.3428571 L33.7714286,84.8 L34.6285714,85.6857143 L34.7571429,85.8142857 C36.7823614,87.6149592 38.3869059,89.8388872 39.4571429,92.3285714 C40.5571429,95.1857143 40.6285714,98.8285714 40.2285714,104.985714 C40.1473433,106.10293 39.9510661,107.208785 39.6428571,108.285714 C39.6428571,108.485714 39.5571429,108.685714 39.4857143,108.885714 C39.4142857,109.085714 39.2714286,109.457143 39.1571429,109.742857 C39.0428571,110.028571 38.9428571,110.371429 38.8,110.685714 C38.6571429,111 38.5857143,111.1 38.4857143,111.314286 C38.3857143,111.528571 38.1571429,112.028571 37.9571429,112.371429 C37.7571429,112.714286 37.7571429,112.7 37.6571429,112.871429 C37.5571429,113.042857 37.2285714,113.6 37,113.942857 L36.7285714,114.314286 C36.4714286,114.685714 36.2142857,115.057143 35.9428571,115.4 L35.7428571,115.642857 C35.4428571,116.014286 35.1428571,116.385714 34.8428571,116.742857 L34.6571429,116.942857 C34.3428571,117.3 34.0285714,117.642857 33.7,117.957143 L33.5285714,118.114286 C33.2,118.442857 32.8857143,118.757143 32.5714286,119.042857 L32.4857143,119.114286 L31.4857143,120 L31.4857143,120 L30.5285714,120.771429 L30.5285714,120.771429 L29.6428571,121.428571 L29.4857143,121.528571 L28.8857143,121.957143 L28.7285714,122.057143 L28.3,122.342857 L28.0714286,122.485714 L27.9285714,122.571429 L27.7857143,122.657143 C41.9714286,125.1 65.5428571,123 79.6571429,94.1857143 L83.2857143,84.9714286 L72.8571429,77.1714286 Z" id="Path" fill="#F4E800" fill-rule="nonzero"></path>
                    <polyline id="Path" stroke="#000000" points="37.9571429 57 37.9571429 72.8571429 43.5285714 71.9"></polyline>
                    <path d="M79.6714286,94.6142857 C72.5285714,86.8 73.4714286,82.3285714 72.8857143,77.1571429 C71.924588,70.5920074 67.8028123,64.9165572 61.8571429,61.9714286 C58.2857143,60.4285714 46.4714286,56.1428571 41.2428571,52.9285714 C34.8285714,49 29.3571429,44.5142857 26.2571429,34.7142857 C23.6196654,26.4248126 24.4546582,17.4202919 28.5714286,9.75714286 C31.8571429,4.04285714 51.1857143,-6.42857143 69.5285714,6.9 C87.8714286,20.2285714 96.6714286,59.7571429 79.7714286,94.2857143" id="Path" fill="#0023FF" fill-rule="nonzero" style="mix-blend-mode: multiply;"></path>
                    <path d="M160,82.8428571 C160.23585,75.812506 161.816738,68.89248 164.657143,62.4571429 C168.942857,52.4571429 177.271429,36.9142857 189.528571,29.8285714 C208.442857,18.9142857 226.557143,16.5 248.342857,23.6428571 C270.128571,30.7857143 283.942857,55.9 286.442857,73.7571429 C288.942857,91.6142857 278.371429,103.885714 262.857143,112.814286 C247.342857,121.742857 201.428571,134.714286 179.585714,118.171429 C163.157143,105.757143 159.785714,94.0857143 160,82.8428571 Z" id="Path" fill="#FF0000" fill-rule="nonzero"></path>
                    <path d="M268.728571,109.114286 C268.271429,109.385714 258.271429,115.214286 251.014286,111.014286 C243.757143,106.814286 240.571429,108.157143 240.571429,94.9285714 C240.571429,81.7 202.728571,91.0571429 202.728571,91.0571429 C202.728571,91.0571429 206.385714,105.842857 199.414286,112.814286 C192.442857,119.785714 179.414286,118.028571 175.557143,114.885714 C176.814286,115.971429 178.142857,117.071429 179.6,118.171429 C201.428571,134.714286 247.471429,121.728571 262.857143,112.814286 C264.92381,111.642857 266.880952,110.409524 268.728571,109.114286 Z" id="Path" fill="#0023FF" fill-rule="nonzero"></path>
                    <path d="M199.585714,82.9857143 C199.585714,82.9857143 203.342857,100.657143 218.871429,104.228571 C234.4,107.8 241.557143,97.2714286 246.2,81.0142857 C250.842857,64.7571429 250.671429,42.9857143 240.485714,32.8 C230.3,22.6142857 214.142857,22.8857143 207.271429,29.7714286 C200.4,36.6571429 193.342857,47.1 195.128571,62.6285714 C196.914286,78.1571429 199.585714,82.9857143 199.585714,82.9857143 Z" id="Path" fill="#000000" fill-rule="nonzero"></path>
                    <polyline id="Path" stroke="#FFFFFF" points="224.8 52.8 226.2 72.8571429 221.985714 72.8571429"></polyline>
                    <path d="M11.5857143,273.157143 C11.5857143,273.157143 15.4285714,266.1 14.4428571,259.742857 C13.4731152,253.061222 12.0411075,246.454894 10.1571429,239.971429 C7.94285714,231.857143 6.54285714,212.742857 10.3,203.285714 C14.0571429,193.828571 26.9571429,186.142857 37.8428571,190.428571 C48.7285714,194.714286 57.6428571,208.728571 58.5714286,223.4 C59.5,238.071429 58.1285714,247.814286 55.7142857,253.757143 C53.3,259.7 47.4,261.1 51.9142857,269.828571 C56.4285714,278.557143 57.7857143,284.114286 55.9142857,288.728571 C54.0428571,293.342857 51.4428571,302.685714 32.6857143,296.5 C13.9285714,290.314286 8.8,281.371429 11.5857143,273.157143 Z" id="Path" fill="#F4E800" fill-rule="nonzero"></path>
                    <path d="M64.4142857,214.428571 C64.4142857,214.428571 60.8428571,218.171429 51.5571429,214.428571 C42.2714286,210.685714 42.7857143,207.4 29.5285714,209.328571 C16.2714286,211.257143 7.22857143,213.614286 5.24285714,203.614286 C3.25714286,193.614286 11.3428571,183.485714 23.8142857,181.085714 C36.2857143,178.685714 48.3571429,178.6 56.0142857,188.328571 C63.6714286,198.057143 65.7285714,204.728571 66.2428571,208.328571 C66.4917168,210.526278 65.8310665,212.730167 64.4142857,214.428571 Z" id="Path" fill="#000000" fill-rule="nonzero"></path>
                    <path d="M41.2428571,216.4 C41.2428571,216.4 46.5571429,240.685714 45.9714286,240.685714 L40.8285714,241.428571" id="Path" stroke="#000000"></path>
                    <path d="M243.528571,229.857143 C243.528571,229.857143 262.1,232.714286 266.857143,253.9 C271.614286,275.085714 258.757143,291.285714 247.1,295.328571 C235.442857,299.371429 204.957143,303.185714 188.057143,268.657143" id="Path" fill="#AAE1F9" fill-rule="nonzero"></path>
                    <path d="M195,251.557143 C195,251.557143 192.928571,231.657143 195.2,215.342857 C197.471429,199.028571 214.957143,189.271429 227.242857,194.271429 C239.528571,199.271429 243.542857,207.014286 243.542857,226.771429 C243.542857,227.857143 243.542857,228.885714 243.542857,229.9 L243.542857,229.9 C243.542857,230.9 243.471429,231.842857 243.414286,232.757143 C243.414286,232.871429 243.414286,232.985714 243.414286,233.1 C243.414286,233.957143 243.285714,234.771429 243.214286,235.571429 C243.214286,235.757143 243.214286,235.942857 243.214286,236.114286 C243.142857,236.857143 243.042857,237.542857 242.942857,238.285714 C242.942857,238.485714 242.942857,238.7 242.857143,238.9 C242.757143,239.571429 242.657143,240.214286 242.542857,240.842857 L242.428571,241.485714 C242.314286,242.085714 242.185714,242.657143 242.057143,243.228571 L241.9,243.885714 C241.771429,244.428571 241.628571,244.942857 241.485714,245.457143 L241.3,246.1 C241.157143,246.585714 241.009524,247.061905 240.857143,247.528571 L240.642857,248.157143 C240.490476,248.595238 240.333333,249.019048 240.171429,249.428571 L239.914286,250.042857 C239.742857,250.428571 239.585714,250.814286 239.414286,251.185714 L239.128571,251.785714 C238.957143,252.128571 238.785714,252.471429 238.614286,252.814286 L238.3,253.385714 C238.128571,253.7 237.957143,254 237.771429,254.3 L237.414286,254.871429 C237.242857,255.142857 237.071429,255.414286 236.885714,255.685714 L236.485714,256.242857 L235.971429,256.942857 L235.5,257.528571 L235.014286,258.114286 L234.457143,258.742857 L234.057143,259.2 L233.2,260.085714 L233.071429,260.214286 C231.04621,262.014959 229.441666,264.238887 228.371429,266.728571 C227.271429,269.585714 227.2,273.228571 227.6,279.385714 C227.681228,280.50293 227.877505,281.608785 228.185714,282.685714 C228.185714,282.885714 228.271429,283.085714 228.342857,283.285714 C228.414286,283.485714 228.557143,283.857143 228.671429,284.142857 C228.785714,284.428571 228.885714,284.771429 229.028571,285.085714 C229.171429,285.4 229.242857,285.5 229.342857,285.714286 C229.442857,285.928571 229.671429,286.428571 229.871429,286.771429 C230.071429,287.114286 230.071429,287.1 230.171429,287.271429 C230.271429,287.442857 230.6,288 230.828571,288.342857 L231.1,288.714286 C231.357143,289.085714 231.614286,289.457143 231.885714,289.8 L232.085714,290.042857 C232.385714,290.414286 232.685714,290.785714 232.985714,291.142857 L233.171429,291.342857 C233.485714,291.7 233.8,292.042857 234.128571,292.357143 L234.3,292.514286 C234.628571,292.842857 234.942857,293.157143 235.257143,293.442857 L235.342857,293.514286 L236.342857,294.4 L236.342857,294.4 L237.3,295.171429 L237.3,295.171429 L238.185714,295.828571 L238.342857,295.928571 L238.942857,296.357143 L239.1,296.457143 L239.528571,296.742857 L239.757143,296.885714 L239.9,296.971429 L240.042857,297.057143 C225.857143,299.5 202.285714,297.4 188.171429,268.585714 L184.542857,259.371429 L195,251.557143 Z" id="Path" fill="#FFFFFF" fill-rule="nonzero"></path>
                    <polyline id="Path" stroke="#000000" points="229.928571 231.385714 229.928571 247.242857 224.357143 246.285714"></polyline>
                    <path d="M188.214286,269 C195.357143,261.185714 194.414286,256.714286 195,251.542857 C195.956737,244.972417 200.079132,239.290773 206.028571,236.342857 C209.585714,234.742857 221.414286,230.5 226.628571,227.3 C233.057143,223.371429 238.528571,218.885714 241.628571,209.128571 C244.256396,200.816515 243.395352,191.793591 239.242857,184.128571 C235.957143,178.414286 216.628571,167.942857 198.285714,181.271429 C179.942857,194.6 171.142857,234.128571 188.042857,268.657143" id="Path" fill="#662EFF" fill-rule="nonzero"></path>
                    <path d="M227.228571,194.271429 C214.957143,189.271429 197.457143,199.028571 195.185714,215.342857 C192.914286,231.657143 194.985714,251.514286 194.985714,251.557143 C195.949183,244.992961 200.070248,239.318489 206.014286,236.371429 C209.585714,234.771429 221.4,230.528571 226.614286,227.328571 C233.028571,223.4 238.514286,218.914286 241.6,209.171429 C239.371429,201.6 234.914286,197.4 227.228571,194.271429 Z" id="Path" fill="#00D5BE" fill-rule="nonzero" style="mix-blend-mode: multiply;"></path>
                    <path d="M195,251.557143 L184.428571,259.471429 L188.057143,268.671429 L188.057143,268.671429 L188.214286,268.985714 C195.285714,261.185714 194.4,256.714286 195,251.557143 Z" id="Path" fill="#00D5BE" fill-rule="nonzero" style="mix-blend-mode: multiply;"></path>
                </g>
            </g>
        </g>
    </g>
</svg>