<?xml version="1.0" encoding="UTF-8"?>
<svg width="118px" height="40px" viewBox="0 0 118 40" version="1.1" xmlns="http://www.w3.org/2000/svg" xmlns:xlink="http://www.w3.org/1999/xlink">
    <!-- Generator: Sketch 58 (84663) - https://sketch.com -->
    <title>Felfele logo</title>
    <desc>Created with Sketch.</desc>
    <g id="Page-1" stroke="none" stroke-width="1" fill="none" fill-rule="evenodd">
        <g id="Home" transform="translate(-141.000000, -60.000000)" fill="#000000">
            <g id="Header" transform="translate(141.000000, 60.000000)">
                <g id="Felfele-logo">
                    <path d="M12.4613102,9.40649496e-05 L11.9834378,0.477966405 L11.9834378,8.02045241 L1.11982083e-05,20.0039015 L19.9873572,39.9912699 L20.4716797,39.506925 L20.4716797,31.9773841 L32.4551512,19.9939127 L12.4613102,9.40649496e-05 Z M8.71015677,20.0039015 L16.6284994,12.0855812 L12.5433707,8.00043001 L12.5433707,0.873957447 L31.6633035,19.9939127 L20.1817581,31.4754804 L16.6284994,27.9222441 L24.5467973,20.0039015 L24.5368309,19.9939127 L20.1817581,15.6388399 L12.2633931,23.5571601 L8.71015677,20.0039015 Z" id="Fill-1"></path>
                    <polygon id="Fill-2" points="43.6519821 25.5947772 45.8916237 25.5947772 45.8916237 21.1154938 50.3709071 21.1154938 50.3709071 18.8758522 45.8916237 18.8758522 45.8916237 16.6362105 50.3709071 16.6362105 50.3709071 14.3965689 43.6519821 14.3965689"></polygon>
                    <polygon id="Fill-3" points="54.8501904 25.5947772 61.5691153 25.5947772 61.5691153 23.3551355 57.089832 23.3551355 57.089832 21.1154938 61.5691153 21.1154938 61.5691153 18.8758522 57.089832 18.8758522 57.089832 16.6362105 61.5691153 16.6362105 61.5691153 14.3965689 54.8501904 14.3965689"></polygon>
                    <polygon id="Fill-4" points="68.2880403 14.3965689 66.0483987 14.3965689 66.0483987 25.5947772 72.7673236 25.5947772 72.7673236 23.3551355 68.2880403 23.3551355"></polygon>
                    <polygon id="Fill-5" points="77.2466069 25.5947772 79.4862486 25.5947772 79.4862486 21.1154938 83.9655319 21.1154938 83.9655319 18.8758522 79.4862486 18.8758522 79.4862486 16.6362105 83.9655319 16.6362105 83.9655319 14.3965689 77.2466069 14.3965689"></polygon>
                    <polygon id="Fill-6" points="88.4448152 25.5947772 95.1637402 25.5947772 95.1637402 23.3551355 90.6844569 23.3551355 90.6844569 21.1154938 95.1637402 21.1154938 95.1637402 18.8758522 90.6844569 18.8758522 90.6844569 16.6362105 95.1637402 16.6362105 95.1637402 14.3965689 88.4448152 14.3965689"></polygon>
                    <polygon id="Fill-7" points="110.841232 14.3965823 110.841232 25.5947682 117.560134 25.5947682 117.560134 23.3551489 113.080851 23.3551489 113.080851 21.1154849 117.560134 21.1154849 117.560134 18.8758656 113.080851 18.8758656 113.080851 16.6362016 117.560134 16.6362016 117.560134 14.3965823"></polygon>
                    <polygon id="Fill-8" points="101.882665 14.3965689 99.6430235 14.3965689 99.6430235 25.5947772 106.361948 25.5947772 106.361948 23.3551355 101.882665 23.3551355"></polygon>
                </g>
            </g>
        </g>
    </g>
</svg>