<?xml version="1.0" encoding="UTF-8"?>
<svg width="96px" height="15px" viewBox="0 0 96 15" version="1.1" xmlns="http://www.w3.org/2000/svg" xmlns:xlink="http://www.w3.org/1999/xlink">
    <!-- Generator: Sketch 58 (84663) - https://sketch.com -->
    <title>Felfele logo</title>
    <desc>Created with Sketch.</desc>
    <g id="Page-1" stroke="none" stroke-width="1" fill="none" fill-rule="evenodd">
        <g id="Niche" transform="translate(-1203.000000, -74.000000)" fill="#FFFFFF">
            <g id="Header" transform="translate(141.000000, 65.000000)">
                <g id="Felfele-logo" transform="translate(1060.360000, 7.000000)">
                    <polygon id="Fill-2" points="23.6519821 13.5947772 25.8916237 13.5947772 25.8916237 9.11549384 30.3709071 9.11549384 30.3709071 6.87585218 25.8916237 6.87585218 25.8916237 4.63621053 30.3709071 4.63621053 30.3709071 2.39656887 23.6519821 2.39656887"></polygon>
                    <polygon id="Fill-3" points="34.8501904 13.5947772 41.5691153 13.5947772 41.5691153 11.3551355 37.089832 11.3551355 37.089832 9.11549384 41.5691153 9.11549384 41.5691153 6.87585218 37.089832 6.87585218 37.089832 4.63621053 41.5691153 4.63621053 41.5691153 2.39656887 34.8501904 2.39656887"></polygon>
                    <polygon id="Fill-4" points="48.2880403 2.39656887 46.0483987 2.39656887 46.0483987 13.5947772 52.7673236 13.5947772 52.7673236 11.3551355 48.2880403 11.3551355"></polygon>
                    <polygon id="Fill-5" points="57.2466069 13.5947772 59.4862486 13.5947772 59.4862486 9.11549384 63.9655319 9.11549384 63.9655319 6.87585218 59.4862486 6.87585218 59.4862486 4.63621053 63.9655319 4.63621053 63.9655319 2.39656887 57.2466069 2.39656887"></polygon>
                    <polygon id="Fill-6" points="68.4448152 13.5947772 75.1637402 13.5947772 75.1637402 11.3551355 70.6844569 11.3551355 70.6844569 9.11549384 75.1637402 9.11549384 75.1637402 6.87585218 70.6844569 6.87585218 70.6844569 4.63621053 75.1637402 4.63621053 75.1637402 2.39656887 68.4448152 2.39656887"></polygon>
                    <polygon id="Fill-7" points="90.8412318 2.39658231 90.8412318 13.5947682 97.5601344 13.5947682 97.5601344 11.3551489 93.0808511 11.3551489 93.0808511 9.11548488 97.5601344 9.11548488 97.5601344 6.87586562 93.0808511 6.87586562 93.0808511 4.63620157 97.5601344 4.63620157 97.5601344 2.39658231"></polygon>
                    <polygon id="Fill-8" points="81.8826652 2.39656887 79.6430235 2.39656887 79.6430235 13.5947772 86.3619485 13.5947772 86.3619485 11.3551355 81.8826652 11.3551355"></polygon>
                    <text id="by" font-family="Karla-Regular, Karla" font-size="14" font-weight="normal">
                        <tspan x="0.64" y="13">by</tspan>
                    </text>
                </g>
            </g>
        </g>
    </g>
</svg>
