<?xml version="1.0" encoding="UTF-8"?>
<svg width="480px" height="231px" viewBox="0 0 480 231" version="1.1" xmlns="http://www.w3.org/2000/svg" xmlns:xlink="http://www.w3.org/1999/xlink">
    <!-- Generator: Sketch 58 (84663) - https://sketch.com -->
    <title>Illustration</title>
    <desc>Created with Sketch.</desc>
    <g id="Page-1" stroke="none" stroke-width="1" fill="none" fill-rule="evenodd">
        <g id="Donate" transform="translate(-558.000000, -180.000000)">
            <g id="Illustration" transform="translate(558.000000, 180.000000)">
                <g id="Asset-2" transform="translate(272.657000, 0.000000)">
                    <path d="M44.847,74.624 C44.847,74.624 41.613,69.3 42.13,64.416 C42.6228507,59.2297413 43.475572,54.0840088 44.682,49.016 C46.112,42.658 46.442,27.94 43.186,20.845 C39.93,13.75 29.711,8.25 21.505,12.045 C13.299,15.84 6.93,26.862 6.842,38.181 C6.754,49.5 8.129,56.936 10.23,61.413 C12.331,65.89 16.907,66.737 13.772,73.623 C10.637,80.509 9.768,84.799 11.33,88.319 C12.892,91.839 15.312,98.879 29.502,93.39 C43.692,87.901 47.311,80.839 44.847,74.624 Z" id="Path" fill="#FF9FED" fill-rule="nonzero"></path>
                    <path d="M1.947,31.504 C1.947,31.504 4.829,34.243 11.847,31.053 C18.865,27.863 18.271,25.3 28.545,26.268 C38.819,27.236 45.859,28.677 47.047,20.966 C48.235,13.255 41.569,5.72 31.933,4.4 C22.297,3.08 12.969,3.388 7.447,11.165 C1.925,18.942 0.616,24.2 0.33,26.884 C0.216938597,28.5800017 0.800975456,30.2486784 1.947,31.504 L1.947,31.504 Z" id="Path" fill="#00D5BE" fill-rule="nonzero"></path>
                    <path d="M19.844,32.12 C19.844,32.12 16.687,50.974 17.149,51.018 L21.131,51.392" id="Path" stroke="#000000"></path>
                    <path d="M146.531,68.013 L146.432,68.321 L146.432,68.321 L146.432,68.321 C145.664203,70.7013427 144.496129,72.9333313 142.978,74.921 C137.621,81.939 140.646,92.521 149.028,94.996 C157.41,97.471 165.396,95.469 169.796,87.846 C172.009838,83.9188925 172.242206,79.1777717 170.423,75.053 C163.57,77.66 154.33,75.603 146.531,68.013 Z" id="Path" fill="#0023FF" fill-rule="nonzero" style="mix-blend-mode: multiply;"></path>
                    <polygon id="Path" fill="#FF9FED" fill-rule="nonzero" points="146.63 67.749 146.146 67.639 146.553 68.013"></polygon>
                    <path d="M146.124,67.639 C156.233,77.748 168.817,78.507 175.549,71.764 C182.281,65.021 185.999,60.764 185.999,51.832 C185.999,42.9 184.701,25.245 178.299,14.157 C171.897,3.069 152.493,6.226 146.168,15.906 C139.843,25.586 144.617,40.975 144.617,40.975 C144.617,40.975 147.73,49.621 147.73,55 C147.73,58.3 147.95,62.557 146.795,66.957 C146.670333,67.4336667 146.531,67.9103333 146.377,68.387" id="Path" fill="#FF0000" fill-rule="nonzero"></path>
                    <path d="M146.531,68.035 L146.124,67.639 C136.015,57.53 132.924,50.039 131.967,34.639 C131.01,19.239 140.404,8.921 151.36,2.607 C162.316,-3.707 175.978,3.157 178.585,5.775 C181.192,8.393 184.635,18.425 177.485,22.55 C170.335,26.675 165.935,21.175 159.203,18.26 C152.471,15.345 149.039,18.26 145.453,24.475 C141.867,30.69 144.628,40.975 144.628,40.975 C144.628,40.975 147.73,49.621 147.73,55 C147.73,58.85 148.016,63.8 146.19,68.937" id="Path" fill="#662EFF" fill-rule="nonzero"></path>
                    <path d="M172.942,55.946 C173.767,55.946 179.542,54.439 179.542,54.439 L178.442,33.814" id="Path" stroke="#000000"></path>
                    <path d="M206.173,192.401 C205.412688,187.037719 203.631563,181.869844 200.926,177.177 C196.79,169.851 189.156,158.664 179.19,154.253 C163.79,147.455 149.743,147.103 133.661,154.374 C117.579,161.645 109.076,182.017 108.636,195.888 C108.196,209.759 117.348,218.284 129.91,223.839 C142.472,229.394 178.75,235.532 194.15,221.056 C205.689,210.199 207.306,200.992 206.173,192.401 Z" id="Path" fill="#000000" fill-rule="nonzero"></path>
                    <path d="M125.158,221.496 C125.532,221.661 133.672,225.302 138.875,221.496 C144.078,217.69 146.63,218.416 145.541,208.296 C144.452,198.176 174.141,202.202 174.141,202.202 C174.141,202.202 172.568,213.829 178.475,218.581 C184.382,223.333 194.205,220.924 196.911,218.196 C196.042,219.131 195.118,220.077 194.095,221.045 C178.695,235.521 142.395,229.383 129.855,223.828 C128.241667,223.109333 126.676,222.332 125.158,221.496 Z" id="Path" fill="#FF9FED" fill-rule="nonzero"></path>
                    <path d="M175.923,195.8 C175.923,195.8 174.515,209.649 162.91,213.664 C151.305,217.679 144.969,210.21 140.074,198.154 C135.179,186.098 133.474,169.4 140.47,160.754 C147.466,152.108 159.819,150.986 165.649,155.683 C171.479,160.38 177.749,167.783 177.661,179.883 C177.573,191.983 175.923,195.8 175.923,195.8 Z" id="Path" fill="#00D5BE" fill-rule="nonzero"></path>
                    <polyline id="Path" stroke="#000000" points="154.121 174.757 154.715 190.223 157.938 189.882"></polyline>
                    <path d="M54.692,202.29 L54.791,202.598 L54.791,202.598 L54.791,202.598 C55.5587967,204.978343 56.7268707,207.210331 58.245,209.198 C63.613,216.216 60.588,226.798 52.195,229.273 C43.802,231.748 35.838,229.746 31.438,222.123 C29.2241619,218.195893 28.991794,213.454772 30.811,209.33 C37.664,211.937 46.871,209.88 54.692,202.29 Z" id="Path" fill="#FF9FED" fill-rule="nonzero"></path>
                    <polygon id="Path" fill="#FF9FED" fill-rule="nonzero" points="54.626 202.026 55.11 201.916 54.703 202.29"></polygon>
                    <path d="M55.099,201.916 C44.99,212.025 32.417,212.784 25.674,206.041 C18.931,199.298 15.224,195.041 15.224,186.109 C15.224,177.177 16.522,159.522 22.924,148.434 C29.326,137.346 48.73,140.503 55.055,150.183 C61.38,159.863 56.606,175.252 56.606,175.252 C56.606,175.252 53.449,183.92 53.449,189.277 C53.449,192.577 53.229,196.834 54.384,201.234 C54.5086667,201.710667 54.648,202.187333 54.802,202.664" id="Path" fill="#FF0000" fill-rule="nonzero"></path>
                    <path d="M54.703,202.312 L55.11,201.916 C65.219,191.807 68.31,184.316 69.278,168.916 C70.246,153.516 60.83,143.198 49.83,136.873 C38.83,130.548 25.223,137.423 22.605,140.041 C19.987,142.659 16.555,152.691 23.705,156.816 C30.855,160.941 35.255,155.441 41.998,152.526 C48.741,149.611 52.162,152.526 55.748,158.741 C59.334,164.956 56.573,175.241 56.573,175.241 C56.573,175.241 53.416,183.909 53.416,189.266 C53.416,193.116 53.13,198.066 54.956,203.203" id="Path" fill="#F4E800" fill-rule="nonzero"></path>
                    <path d="M28.292,190.223 C27.467,190.223 21.692,188.716 21.692,188.716 L22.792,168.091" id="Path" stroke="#000000"></path>
                </g>
                <g id="Asset-1" transform="translate(0.077000, 0.770000)">
                    <path d="M18.7,42.713 C18.7,42.713 4.4,44.913 0.781,61.226 C-2.838,77.539 7.018,90.013 15.994,93.126 C24.97,96.239 48.4,99.176 61.468,72.6" id="Path" fill="#FF9FED" fill-rule="nonzero"></path>
                    <path d="M56.1,59.422 C56.1,59.422 57.695,44.099 55.946,31.537 C54.197,18.975 40.7,11.451 31.295,15.301 C21.89,19.151 18.7,25.113 18.7,40.326 C18.7,41.162 18.7,41.954 18.7,42.735 L18.7,42.735 C18.7,43.505 18.755,44.231 18.799,44.935 C18.799,45.023 18.799,45.111 18.799,45.199 C18.799,45.859 18.898,46.486 18.953,47.102 C18.953,47.245 18.953,47.388 18.953,47.52 C19.008,48.092 19.085,48.62 19.162,49.192 C19.162,49.346 19.162,49.511 19.228,49.665 C19.305,50.182 19.382,50.677 19.47,51.161 L19.558,51.656 C19.646,52.118 19.745,52.558 19.844,52.998 L19.965,53.504 C20.064,53.922 20.174,54.318 20.284,54.714 L20.427,55.209 C20.537,55.583 20.6506667,55.9496667 20.768,56.309 L20.933,56.793 C21.0503333,57.1303333 21.1713333,57.4566667 21.296,57.772 L21.494,58.245 C21.626,58.542 21.747,58.839 21.879,59.125 L22.099,59.587 C22.231,59.851 22.363,60.115 22.495,60.379 L22.737,60.819 C22.869,61.061 23.001,61.292 23.144,61.523 L23.419,61.963 C23.551,62.172 23.683,62.381 23.826,62.59 L24.134,63.019 L24.53,63.558 L24.893,64.009 L25.267,64.46 L25.696,64.944 L26.004,65.296 L26.664,65.978 L26.763,66.077 C28.3224182,67.4635186 29.5579175,69.1759431 30.382,71.093 C31.229,73.293 31.284,76.098 30.976,80.839 C30.9134543,81.6992563 30.7623209,82.5507644 30.525,83.38 C30.525,83.534 30.459,83.688 30.404,83.842 C30.349,83.996 30.239,84.282 30.151,84.502 C30.063,84.722 29.986,84.986 29.876,85.228 C29.766,85.47 29.711,85.547 29.634,85.712 C29.557,85.877 29.381,86.262 29.227,86.526 C29.073,86.79 29.073,86.779 28.996,86.911 C28.919,87.043 28.666,87.472 28.49,87.736 L28.281,88.022 C28.083,88.308 27.885,88.594 27.676,88.858 L27.522,89.045 C27.291,89.331 27.06,89.617 26.829,89.892 L26.686,90.046 C26.444,90.321 26.202,90.585 25.949,90.827 L25.817,90.948 C25.564,91.201 25.322,91.443 25.08,91.663 L25.014,91.718 L24.244,92.4 L24.244,92.4 L23.507,92.994 L23.507,92.994 L22.825,93.5 L22.704,93.577 L22.242,93.907 L22.121,93.984 L21.791,94.204 L21.615,94.314 L21.505,94.38 L21.395,94.446 C32.318,96.327 50.468,94.71 61.336,72.523 L64.13,65.428 L56.1,59.422 Z" id="Path" fill="#F4E800" fill-rule="nonzero"></path>
                    <polyline id="Path" stroke="#000000" points="29.227 43.89 29.227 56.1 33.517 55.363"></polyline>
                    <path d="M61.347,72.853 C55.847,66.836 56.573,63.393 56.122,59.411 C55.3819328,54.3558457 52.2081655,49.985749 47.63,47.718 C44.88,46.53 35.783,43.23 31.757,40.755 C26.818,37.73 22.605,34.276 20.218,26.73 C18.1871424,20.3471057 18.8300868,13.4136248 22,7.513 C24.53,3.113 39.413,-4.95 53.537,5.313 C67.661,15.576 74.437,46.013 61.424,72.6" id="Path" fill="#0023FF" fill-rule="nonzero" style="mix-blend-mode: multiply;"></path>
                    <path d="M123.2,63.789 C123.381604,58.3756296 124.598889,53.0472096 126.786,48.092 C130.086,40.392 136.499,28.424 145.937,22.968 C160.501,14.564 174.449,12.705 191.224,18.205 C207.999,23.705 218.636,43.043 220.561,56.793 C222.486,70.543 214.346,79.992 202.4,86.867 C190.454,93.742 155.1,103.73 138.281,90.992 C125.631,81.433 123.035,72.446 123.2,63.789 Z" id="Path" fill="#FF0000" fill-rule="nonzero"></path>
                    <path d="M206.921,84.018 C206.569,84.227 198.869,88.715 193.281,85.481 C187.693,82.247 185.24,83.281 185.24,73.095 C185.24,62.909 156.101,70.114 156.101,70.114 C156.101,70.114 158.917,81.499 153.549,86.867 C148.181,92.235 138.149,90.882 135.179,88.462 C136.147,89.298 137.17,90.145 138.292,90.992 C155.1,103.73 190.553,93.731 202.4,86.867 C203.991333,85.965 205.498333,85.0153333 206.921,84.018 Z" id="Path" fill="#0023FF" fill-rule="nonzero"></path>
                    <path d="M153.681,63.899 C153.681,63.899 156.574,77.506 168.531,80.256 C180.488,83.006 185.999,74.899 189.574,62.381 C193.149,49.863 193.017,33.099 185.174,25.256 C177.331,17.413 164.89,17.622 159.599,22.924 C154.308,28.226 148.874,36.267 150.249,48.224 C151.624,60.181 153.681,63.899 153.681,63.899 Z" id="Path" fill="#000000" fill-rule="nonzero"></path>
                    <polyline id="Path" stroke="#FFFFFF" points="173.096 40.656 174.174 56.1 170.929 56.1"></polyline>
                    <path d="M8.921,210.331 C8.921,210.331 11.88,204.897 11.121,200.002 C10.3742987,194.857141 9.27165277,189.770268 7.821,184.778 C6.116,178.53 5.038,163.812 7.931,156.53 C10.824,149.248 20.757,143.33 29.139,146.63 C37.521,149.93 44.385,160.721 45.1,172.018 C45.815,183.315 44.759,190.817 42.9,195.393 C41.041,199.969 36.498,201.047 39.974,207.768 C43.45,214.489 44.495,218.768 43.054,222.321 C41.613,225.874 39.611,233.068 25.168,228.305 C10.725,223.542 6.776,216.656 8.921,210.331 Z" id="Path" fill="#F4E800" fill-rule="nonzero"></path>
                    <path d="M49.599,165.11 C49.599,165.11 46.849,167.992 39.699,165.11 C32.549,162.228 32.945,159.698 22.737,161.183 C12.529,162.668 5.566,164.483 4.037,156.783 C2.508,149.083 8.734,141.284 18.337,139.436 C27.94,137.588 37.235,137.522 43.131,145.013 C49.027,152.504 50.611,157.641 51.007,160.413 C51.1986219,162.105234 50.6899212,163.802228 49.599,165.11 Z" id="Path" fill="#000000" fill-rule="nonzero"></path>
                    <path d="M31.757,166.628 C31.757,166.628 35.849,185.328 35.398,185.328 L31.438,185.9" id="Path" stroke="#000000"></path>
                    <path d="M187.517,176.99 C187.517,176.99 201.817,179.19 205.48,195.503 C209.143,211.816 199.243,224.29 190.267,227.403 C181.291,230.516 157.817,233.453 144.804,206.866" id="Path" fill="#AAE1F9" fill-rule="nonzero"></path>
                    <path d="M150.15,193.699 C150.15,193.699 148.555,178.376 150.304,165.814 C152.053,153.252 165.517,145.739 174.977,149.589 C184.437,153.439 187.528,159.401 187.528,174.614 C187.528,175.45 187.528,176.242 187.528,177.023 L187.528,177.023 C187.528,177.793 187.473,178.519 187.429,179.223 C187.429,179.311 187.429,179.399 187.429,179.487 C187.429,180.147 187.33,180.774 187.275,181.39 C187.275,181.533 187.275,181.676 187.275,181.808 C187.22,182.38 187.143,182.908 187.066,183.48 C187.066,183.634 187.066,183.799 187,183.953 C186.923,184.47 186.846,184.965 186.758,185.449 L186.67,185.944 C186.582,186.406 186.483,186.846 186.384,187.286 L186.263,187.792 C186.164,188.21 186.054,188.606 185.944,189.002 L185.801,189.497 C185.691,189.871 185.577333,190.237667 185.46,190.597 L185.295,191.081 C185.177667,191.418333 185.056667,191.744667 184.932,192.06 L184.734,192.533 C184.602,192.83 184.481,193.127 184.349,193.413 L184.129,193.875 C183.997,194.139 183.865,194.403 183.733,194.667 L183.491,195.107 C183.359,195.349 183.227,195.58 183.084,195.811 L182.809,196.251 C182.677,196.46 182.545,196.669 182.402,196.878 L182.094,197.307 L181.698,197.846 L181.335,198.297 L180.961,198.748 L180.532,199.232 L180.224,199.584 L179.564,200.266 L179.465,200.365 C177.905582,201.751519 176.670082,203.463943 175.846,205.381 C174.999,207.581 174.944,210.386 175.252,215.127 C175.314546,215.987256 175.465679,216.838764 175.703,217.668 C175.703,217.822 175.769,217.976 175.824,218.13 C175.879,218.284 175.989,218.57 176.077,218.79 C176.165,219.01 176.242,219.274 176.352,219.516 C176.462,219.758 176.517,219.835 176.594,220 C176.671,220.165 176.847,220.55 177.001,220.814 C177.155,221.078 177.155,221.067 177.232,221.199 C177.309,221.331 177.562,221.76 177.738,222.024 L177.947,222.31 C178.145,222.596 178.343,222.882 178.552,223.146 L178.706,223.333 C178.937,223.619 179.168,223.905 179.399,224.18 L179.542,224.334 C179.784,224.609 180.026,224.873 180.279,225.115 L180.411,225.236 C180.664,225.489 180.906,225.731 181.148,225.951 L181.214,226.006 L181.984,226.688 L181.984,226.688 L182.721,227.282 L182.721,227.282 L183.403,227.788 L183.524,227.865 L183.986,228.195 L184.107,228.272 L184.437,228.492 L184.613,228.602 L184.723,228.668 L184.833,228.734 C173.91,230.615 155.76,228.998 144.892,206.811 L142.098,199.716 L150.15,193.699 Z" id="Path" fill="#FFFFFF" fill-rule="nonzero"></path>
                    <polyline id="Path" stroke="#000000" points="177.045 178.167 177.045 190.377 172.755 189.64"></polyline>
                    <path d="M144.925,207.13 C150.425,201.113 149.699,197.67 150.15,193.688 C150.886687,188.628761 154.060932,184.253895 158.642,181.984 C161.381,180.752 170.489,177.485 174.504,175.021 C179.454,171.996 183.667,168.542 186.054,161.029 C188.077425,154.628717 187.414421,147.681065 184.217,141.779 C181.687,137.379 166.804,129.316 152.68,139.579 C138.556,149.842 131.78,180.279 144.793,206.866" id="Path" fill="#662EFF" fill-rule="nonzero"></path>
                    <path d="M174.966,149.589 C165.517,145.739 152.042,153.252 150.293,165.814 C148.544,178.376 150.139,193.666 150.139,193.699 C150.880871,188.64458 154.054091,184.275237 158.631,182.006 C161.381,180.774 170.478,177.507 174.493,175.043 C179.432,172.018 183.656,168.564 186.032,161.062 C184.316,155.232 180.884,151.998 174.966,149.589 Z" id="Path" fill="#00D5BE" fill-rule="nonzero" style="mix-blend-mode: multiply;"></path>
                    <path d="M150.15,193.699 L142.01,199.793 L144.804,206.877 L144.804,206.877 L144.925,207.119 C150.37,201.113 149.688,197.67 150.15,193.699 Z" id="Path" fill="#00D5BE" fill-rule="nonzero" style="mix-blend-mode: multiply;"></path>
                </g>
            </g>
        </g>
    </g>
</svg>