<?xml version="1.0" encoding="UTF-8"?>
<svg width="60px" height="58px" viewBox="0 0 60 58" version="1.1" xmlns="http://www.w3.org/2000/svg" xmlns:xlink="http://www.w3.org/1999/xlink">
    <!-- Generator: Sketch 58 (84663) - https://sketch.com -->
    <title>Control</title>
    <desc>Created with Sketch.</desc>
    <g id="Page-1" stroke="none" stroke-width="1" fill="none" fill-rule="evenodd" stroke-linecap="round" stroke-linejoin="round">
        <g id="Niche" transform="translate(-540.000000, -2162.000000)" stroke="#141033">
            <g id="Control" transform="translate(541.000000, 2162.000000)">
                <path d="M36.5654,13.8692 C36.5654,10.3872 33.7394,7.5642 30.2604,7.5642 C26.7754,7.5642 23.9564,10.3872 23.9564,13.8692 C18.0294,16.3402 14.0004,22.2262 14.0004,29.0432 L14.0004,35.0432" id="Stroke-1"></path>
                <path d="M22.6953,46.043 L50.4343,46.043 C47.6463,45.391 45.3913,43.133 45.3913,40.348 L45.3913,29 C45.3913,26.766 44.9393,24.639 44.1323,22.698" id="Stroke-3"></path>
                <path d="M34,46.043 C34,48.829 31.785,51.043 29,51.043 C26.211,51.043 24,48.829 24,46.043" id="Stroke-5"></path>
                <path d="M0,58 L58,0" id="Stroke-7"></path>
            </g>
        </g>
    </g>
</svg>
