<?xml version="1.0" encoding="UTF-8" standalone="no"?>
<svg
   xmlns:dc="http://purl.org/dc/elements/1.1/"
   xmlns:cc="http://creativecommons.org/ns#"
   xmlns:rdf="http://www.w3.org/1999/02/22-rdf-syntax-ns#"
   xmlns:svg="http://www.w3.org/2000/svg"
   xmlns="http://www.w3.org/2000/svg"
   viewBox="0 0 34.666668 33.333332"
   height="33.333332"
   width="34.666668"
   xml:space="preserve"
   id="svg2"
   version="1.1"><metadata
     id="metadata8"><rdf:RDF><cc:Work
         rdf:about=""><dc:format>image/svg+xml</dc:format><dc:type
           rdf:resource="http://purl.org/dc/dcmitype/StillImage" /></cc:Work></rdf:RDF></metadata><defs
     id="defs6"><clipPath
       id="clipPath20"
       clipPathUnits="userSpaceOnUse"><path
         style="clip-rule:evenodd"
         id="path18"
         d="M 0.5014735,24.99902 H 25.64735 V 0.00540275 H 0.5014735 Z" /></clipPath><clipPath
       id="clipPath26"
       clipPathUnits="userSpaceOnUse"><path
         id="path24"
         d="M -711,-330 H 729 V 2903 H -711 Z" /></clipPath><clipPath
       id="clipPath32"
       clipPathUnits="userSpaceOnUse"><path
         id="path30"
         d="M 0,0 H 26 V 25 H 0 Z" /></clipPath><clipPath
       id="clipPath36"
       clipPathUnits="userSpaceOnUse"><path
         style="clip-rule:evenodd"
         id="path34"
         d="M 25.64735,12.42633 C 25.64735,19.37058 20.01793,25 13.07367,25 6.12942,25 0.5,19.37058 0.5,12.42633 0.5,6.150442 5.098011,0.9486739 11.10904,0.00540275 V 8.791749 H 7.916503 v 3.634581 h 3.192537 v 2.77013 c 0,3.15128 1.87716,4.89195 4.74926,4.89195 1.37566,0 2.81459,-0.24558 2.81459,-0.24558 v -3.0943 h -1.58551 c -1.56196,0 -2.04907,-0.96923 -2.04907,-1.96358 v -2.35862 h 3.48723 L 17.96807,8.791749 H 15.03831 V 0.00540275 C 21.04934,0.9486739 25.64735,6.150442 25.64735,12.42633" /></clipPath><clipPath
       id="clipPath40"
       clipPathUnits="userSpaceOnUse"><path
         id="path38"
         d="M 0,0 H 26 V 25 H 0 Z" /></clipPath></defs><g
     transform="matrix(1.3333333,0,0,-1.3333333,0,33.333333)"
     id="g10"><g
       id="g12" /><g
       id="g14"><g
         clip-path="url(#clipPath20)"
         id="g16"><g
           clip-path="url(#clipPath26)"
           id="g22"><g
             id="g28" /><g
             id="g54"><g
               id="g52"
               clip-path="url(#clipPath32)"><g
                 id="g42" /><g
                 id="g50"><g
                   id="g48"
                   clip-path="url(#clipPath36)"><g
                     id="g46"
                     clip-path="url(#clipPath40)"><path
                       id="path44"
                       style="fill:#fffffe;fill-opacity:1;fill-rule:nonzero;stroke:none"
                       d="M -4.5,30 H 30.64735 V -4.994597 H -4.5 Z" /></g></g></g></g></g></g></g></g></g></svg>