<svg xmlns="http://www.w3.org/2000/svg" viewBox="0 0 1737.6 400"><title>Asset 1</title><g id="Layer_2" data-name="Layer 2"><g id="Layer_1-2" data-name="Layer 1"><path fill="#000000" d="M50,300a50,50,0,1,0,50,50V300Z"/><path fill="#000000" d="M350,0H50a50,50,0,0,0,0,100H300V350a50,50,0,0,0,100,0V50A50,50,0,0,0,350,0Z"/><path fill="#000000" d="M50,150a50,50,0,0,0,0,100H150V350a50,50,0,0,0,100,0V150Z"/><path fill="#000000" d="M508.57,340.18q-9-9-9-23.61v-234q0-14.62,7.94-22.56t22.56-7.94H673.82q15.87,0,23.4,6.27T704.74,78q0,13-7.52,19.22t-23.4,6.27H563.93v67.69H665.47q15.87,0,23.4,6.27t7.52,19.64q0,13-7.52,19.22t-23.4,6.27H563.93v94q0,15-8.56,23.82t-23.19,8.77Q517.55,349.16,508.57,340.18Z"/><path fill="#000000" d="M907.6,292.34q5.22,6.69,5.22,17.13a22.72,22.72,0,0,1-4.18,13.16,33.77,33.77,0,0,1-11.7,10.24,149.54,149.54,0,0,1-33,12.32,141,141,0,0,1-34.68,4.8q-33.43,0-58.29-13a90.62,90.62,0,0,1-38.23-37q-13.38-24-13.37-56.61,0-31.34,13-55.57a95,95,0,0,1,35.93-37.81q23-13.57,52.23-13.58,28,0,49.1,12.33t32.8,35.1q11.69,22.78,11.7,53.27,0,9.2-4.39,14T897.36,256h-117q2.92,24.66,15,35.73t34.68,11.07a74.51,74.51,0,0,0,21.73-2.92,209.28,209.28,0,0,0,21.31-7.94q5.85-2.51,11.28-4.39a29.87,29.87,0,0,1,9.61-1.88A16.46,16.46,0,0,1,907.6,292.34ZM793.32,191.44q-10.87,11.5-13,33.22H861q-1.25-22.14-11.07-33.43t-27.79-11.28Q804.18,179.94,793.32,191.44Z"/><path fill="#000000" d="M961.07,341.64q-9-7.52-9-22.14V79.67q0-14.62,9-22.14T983.85,50q13.37,0,22.35,7.52t9,22.14V319.5q0,14.63-9,22.14t-22.35,7.52Q970.06,349.16,961.07,341.64Z"/><path fill="#000000" d="M1150.56,108.5q-7.52,9.2-7.52,25.91v7.1h29.25q28.41,0,28.41,23.82,0,23.41-28.41,23.4H1143V319.08q0,14.63-9,22.14t-22.36,7.52q-13.79,0-22.77-7.52t-9-22.14V188.72h-16.71q-28,0-28-23.4,0-23.81,28-23.82h16.71q0-40.11,22.14-63.09t61-25.91l10.86-.84,7.52-.42q28.83,0,28.83,22.15,0,21.73-24.24,23.82l-10.86.84Q1158.07,99.3,1150.56,108.5Z"/><path fill="#000000" d="M1396.87,292.34q5.22,6.69,5.22,17.13a22.72,22.72,0,0,1-4.18,13.16,33.77,33.77,0,0,1-11.7,10.24,149.54,149.54,0,0,1-33,12.32,141,141,0,0,1-34.68,4.8q-33.43,0-58.29-13a90.62,90.62,0,0,1-38.23-37q-13.38-24-13.37-56.61,0-31.34,13-55.57a95,95,0,0,1,35.93-37.81q23-13.57,52.23-13.58,28,0,49.1,12.33t32.8,35.1q11.69,22.78,11.7,53.27,0,9.2-4.39,14t-12.33,4.8h-117q2.92,24.66,15,35.73t34.68,11.07a74.51,74.51,0,0,0,21.73-2.92,209.28,209.28,0,0,0,21.31-7.94q5.85-2.51,11.28-4.39a29.87,29.87,0,0,1,9.61-1.88A16.46,16.46,0,0,1,1396.87,292.34Zm-114.28-100.9q-10.87,11.5-13,33.22h80.64q-1.25-22.14-11.07-33.43t-27.79-11.28Q1293.45,179.94,1282.59,191.44Z"/><path fill="#000000" d="M1450.35,341.64q-9-7.52-9-22.14V79.67q0-14.62,9-22.14T1473.12,50q13.37,0,22.35,7.52t9,22.14V319.5q0,14.63-9,22.14t-22.35,7.52Q1459.33,349.16,1450.35,341.64Z"/><path fill="#000000" d="M1731.13,292.34q5.22,6.69,5.22,17.13a22.72,22.72,0,0,1-4.18,13.16,33.77,33.77,0,0,1-11.7,10.24,149.54,149.54,0,0,1-33,12.32,141,141,0,0,1-34.68,4.8q-33.43,0-58.29-13a90.62,90.62,0,0,1-38.23-37q-13.38-24-13.37-56.61,0-31.34,13-55.57a95,95,0,0,1,35.93-37.81q23-13.57,52.23-13.58,28,0,49.1,12.33t32.8,35.1q11.69,22.78,11.7,53.27,0,9.2-4.39,14t-12.33,4.8h-117q2.92,24.66,15,35.73t34.68,11.07a74.51,74.51,0,0,0,21.73-2.92,209.28,209.28,0,0,0,21.31-7.94q5.85-2.51,11.28-4.39a29.87,29.87,0,0,1,9.61-1.88A16.46,16.46,0,0,1,1731.13,292.34Zm-114.28-100.9q-10.87,11.5-13,33.22h80.64q-1.25-22.14-11.07-33.43t-27.79-11.28Q1627.71,179.94,1616.85,191.44Z"/></g></g></svg>
