<?xml version="1.0" encoding="UTF-8"?>
<svg width="61px" height="60px" viewBox="0 0 61 60" version="1.1" xmlns="http://www.w3.org/2000/svg" xmlns:xlink="http://www.w3.org/1999/xlink">
    <!-- Generator: Sketch 58 (84663) - https://sketch.com -->
    <title>Focus</title>
    <desc>Created with Sketch.</desc>
    <g id="Page-1" stroke="none" stroke-width="1" fill="none" fill-rule="evenodd" stroke-linejoin="round">
        <g id="Niche" transform="translate(-539.000000, -1914.000000)" stroke="#FF9E9E">
            <g id="Focus" transform="translate(540.000000, 1915.000000)">
                <path d="M57.999,11.999 C57.444,11.999 57,12.445 57,12.999 C57,13.551 57.444,13.999 57.999,13.999 C58.551,13.999 59,13.551 59,12.999 C59,12.445 58.551,11.999 57.999,11.999" id="Fill-1"></path>
                <path d="M58,57.999 L58,16.999" id="Stroke-3"></path>
                <path d="M35,46.999 C35,40.334 26.455,38.264 23,41.999 C19.549,38.264 11,40.334 11,46.999 C11,53.326 3.571,55.252 0,49.999 C4.848,60.88 18.328,59.183 23,51.999 C27.674,59.183 41.154,60.88 46,49.999 C42.422,55.252 35,53.326 35,46.999 Z" id="Stroke-5"></path>
                <path d="M53,12.999 C53,5.819 47.18,0 40,0 C32.82,0 27,5.819 27,12.999 C27,20.18 32.82,25.999 40,25.999 C47.18,25.999 53,20.18 53,12.999 Z" id="Stroke-7"></path>
                <path d="M49,12.999 C49,17.97 44.971,21.999 40,21.999" id="Stroke-9"></path>
            </g>
        </g>
    </g>
</svg>