<?xml version="1.0" encoding="UTF-8" standalone="no"?>
<svg
   xmlns:dc="http://purl.org/dc/elements/1.1/"
   xmlns:cc="http://creativecommons.org/ns#"
   xmlns:rdf="http://www.w3.org/1999/02/22-rdf-syntax-ns#"
   xmlns:svg="http://www.w3.org/2000/svg"
   xmlns="http://www.w3.org/2000/svg"
   viewBox="0 0 41.333332 41.333332"
   height="41.333332"
   width="41.333332"
   xml:space="preserve"
   id="svg2"
   version="1.1"><metadata
     id="metadata8"><rdf:RDF><cc:Work
         rdf:about=""><dc:format>image/svg+xml</dc:format><dc:type
           rdf:resource="http://purl.org/dc/dcmitype/StillImage" /></cc:Work></rdf:RDF></metadata><defs
     id="defs6"><clipPath
       id="clipPath20"
       clipPathUnits="userSpaceOnUse"><path
         style="clip-rule:evenodd"
         id="path18"
         d="M 0.5,30.66743 H 30.49054 V 0.6804703 H 0.5 Z" /></clipPath><clipPath
       id="clipPath26"
       clipPathUnits="userSpaceOnUse"><path
         id="path24"
         d="M -649,-169 H 791 V 3064 H -649 Z" /></clipPath><clipPath
       id="clipPath32"
       clipPathUnits="userSpaceOnUse"><path
         id="path30"
         d="M 0,0 H 31 V 31 H 0 Z" /></clipPath><clipPath
       id="clipPath36"
       clipPathUnits="userSpaceOnUse"><path
         style="clip-rule:evenodd"
         id="path34"
         d="m 15.4953,30.66743 c -4.0725,0 -4.58316,-0.01726 -6.182562,-0.09023 C 7.716667,30.5044 6.626607,30.25089 5.672798,29.88017 4.686726,29.49702 3.850476,28.98428 3.016786,28.15065 2.183155,27.31696 1.670417,26.48071 1.287262,25.49464 0.9165476,24.54083 0.6630357,23.45077 0.5902381,21.8547 0.5172619,20.25529 0.5,19.74464 0.5,15.67214 0.5,11.5997 0.5172619,11.08904 0.5902381,9.489637 0.6630357,7.893566 0.9165476,6.803506 1.287262,5.849697 1.670417,4.863625 2.183155,4.027375 3.016786,3.193685 3.850476,2.360054 4.686726,1.847316 5.672798,1.464101 6.626607,1.093447 7.716667,0.8399346 9.312738,0.767137 10.91214,0.6941608 11.4228,0.6768989 15.4953,0.6768989 c 4.07244,0 4.58309,0.0172619 6.1825,0.0902381 1.59607,0.0727976 2.68613,0.32631 3.63994,0.696964 0.98607,0.383215 1.82232,0.895953 2.65601,1.729584 0.83363,0.83369 1.34637,1.66994 1.72958,2.656012 0.37066,0.953809 0.62417,2.043869 0.69697,3.63994 0.07297,1.599403 0.09024,2.110063 0.09024,6.182503 0,4.0725 -0.01727,4.58315 -0.09024,6.18256 -0.0728,1.59607 -0.32631,2.68613 -0.69697,3.63994 -0.38321,0.98607 -0.89595,1.82232 -1.72958,2.65601 -0.83369,0.83363 -1.66994,1.34637 -2.65601,1.72952 -0.95381,0.37072 -2.04387,0.62423 -3.63994,0.69703 -1.59941,0.07297 -2.11006,0.09023 -6.1825,0.09023 z m 0,-2.70184 c 4.00387,0 4.47815,-0.0153 6.05934,-0.08744 1.46203,-0.06667 2.25601,-0.31095 2.78441,-0.51631 0.69994,-0.27202 1.19946,-0.59696 1.72416,-1.12173 0.52477,-0.5247 0.84971,-1.02422 1.12173,-1.72416 0.20536,-0.5284 0.44964,-1.32238 0.51631,-2.78441 0.07214,-1.58119 0.08744,-2.05547 0.08744,-6.0594 0,-4.00387 -0.0153,-4.47816 -0.08744,-6.059348 C 27.63458,8.150768 27.3903,7.35678 27.18494,6.828387 26.91292,6.128447 26.58798,5.628923 26.06321,5.10422 25.53851,4.579458 25.03899,4.254518 24.33905,3.982494 23.81065,3.777137 23.01667,3.532851 21.55464,3.466185 19.97369,3.394042 19.49946,3.378744 15.4953,3.378744 c -4.00423,0 -4.4784,0.015298 -6.059407,0.087441 C 7.973869,3.532851 7.179881,3.777137 6.651488,3.982494 5.951548,4.254518 5.452024,4.579458 4.927321,5.10422 4.402619,5.628923 4.077619,6.128447 3.805595,6.828387 3.600238,7.35678 3.355952,8.150768 3.289286,9.612792 3.217143,11.19398 3.201845,11.66827 3.201845,15.67214 c 0,4.00393 0.015298,4.47821 0.087441,6.0594 0.066666,1.46203 0.310952,2.25601 0.516309,2.78441 0.272024,0.69994 0.596965,1.19946 1.121726,1.72416 0.524703,0.52477 1.024227,0.84971 1.724167,1.12173 0.528393,0.20536 1.322381,0.44964 2.784405,0.51631 1.581187,0.07214 2.055477,0.08744 6.059407,0.08744 z" /></clipPath><clipPath
       id="clipPath40"
       clipPathUnits="userSpaceOnUse"><path
         id="path38"
         d="M 0,0 H 31 V 31 H 0 Z" /></clipPath><clipPath
       id="clipPath62"
       clipPathUnits="userSpaceOnUse"><path
         style="clip-rule:evenodd"
         id="path60"
         d="m 15.4953,10.67374 c -2.7606,0 -4.99845,2.23786 -4.99845,4.9984 0,2.76059 2.23785,4.99845 4.99845,4.99845 2.76053,0 4.99839,-2.23786 4.99839,-4.99845 0,-2.76054 -2.23786,-4.9984 -4.99839,-4.9984 z m 0,12.69869 c -4.2528,0 -7.7003,-3.4475 -7.7003,-7.70029 0,-4.25274 3.4475,-7.700241 7.7003,-7.700241 4.25274,0 7.70024,3.447501 7.70024,7.700241 0,4.25279 -3.4475,7.70029 -7.70024,7.70029 z" /></clipPath><clipPath
       id="clipPath68"
       clipPathUnits="userSpaceOnUse"><path
         id="path66"
         d="M -649,-169 H 791 V 3064 H -649 Z" /></clipPath><clipPath
       id="clipPath78"
       clipPathUnits="userSpaceOnUse"><path
         style="clip-rule:evenodd"
         id="path76"
         d="m 25.29923,23.67666 c 0,-0.99381 -0.80566,-1.7994 -1.79947,-1.7994 -0.99375,0 -1.7994,0.80559 -1.7994,1.7994 0,0.99381 0.80565,1.79947 1.7994,1.79947 0.99381,0 1.79947,-0.80566 1.79947,-1.79947" /></clipPath><clipPath
       id="clipPath84"
       clipPathUnits="userSpaceOnUse"><path
         id="path82"
         d="M -649,-169 H 791 V 3064 H -649 Z" /></clipPath></defs><g
     transform="matrix(1.3333333,0,0,-1.3333333,0,41.333333)"
     id="g10"><g
       id="g12" /><g
       id="g14"><g
         clip-path="url(#clipPath20)"
         id="g16"><g
           clip-path="url(#clipPath26)"
           id="g22"><g
             id="g28" /><g
             id="g54"><g
               id="g52"
               clip-path="url(#clipPath32)"><g
                 id="g42" /><g
                 id="g50"><g
                   id="g48"
                   clip-path="url(#clipPath36)"><g
                     id="g46"
                     clip-path="url(#clipPath40)"><path
                       id="path44"
                       style="fill:#ffffff;fill-opacity:1;fill-rule:nonzero;stroke:none"
                       d="M -4.5,35.66743 H 35.49054 V -4.323101 H -4.5 Z" /></g></g></g></g></g></g></g></g><g
       id="g56"><g
         clip-path="url(#clipPath62)"
         id="g58"><g
           clip-path="url(#clipPath68)"
           id="g64"><path
             id="path70"
             style="fill:#ffffff;fill-opacity:1;fill-rule:nonzero;stroke:none"
             d="M 2.795,28.37243 H 28.19554 V 2.971899 H 2.795 Z" /></g></g></g><g
       id="g72"><g
         clip-path="url(#clipPath78)"
         id="g74"><g
           clip-path="url(#clipPath84)"
           id="g80"><path
             id="path86"
             style="fill:#ffffff;fill-opacity:1;fill-rule:nonzero;stroke:none"
             d="M 16.70036,30.47613 H 30.29923 V 16.87726 H 16.70036 Z" /></g></g></g></g></svg>