<?xml version="1.0" encoding="UTF-8" standalone="no"?>
<svg
   xmlns:dc="http://purl.org/dc/elements/1.1/"
   xmlns:cc="http://creativecommons.org/ns#"
   xmlns:rdf="http://www.w3.org/1999/02/22-rdf-syntax-ns#"
   xmlns:svg="http://www.w3.org/2000/svg"
   xmlns="http://www.w3.org/2000/svg"
   viewBox="0 0 80 80"
   height="80"
   width="80"
   xml:space="preserve"
   id="svg2"
   version="1.1"><metadata
     id="metadata8"><rdf:RDF><cc:Work
         rdf:about=""><dc:format>image/svg+xml</dc:format><dc:type
           rdf:resource="http://purl.org/dc/dcmitype/StillImage" /></cc:Work></rdf:RDF></metadata><defs
     id="defs6"><clipPath
       id="clipPath20"
       clipPathUnits="userSpaceOnUse"><path
         style="clip-rule:evenodd"
         id="path18"
         d="M 30,0 C 46.56854,0 60,13.43146 60,30 60,46.56854 46.56854,60 30,60 13.43146,60 0,46.56854 0,30 0,13.43146 13.43146,0 30,0 Z" /></clipPath><clipPath
       id="clipPath26"
       clipPathUnits="userSpaceOnUse"><path
         id="path24"
         d="M -140,-1927 H 1300 V 1306 H -140 Z" /></clipPath><clipPath
       id="clipPath36"
       clipPathUnits="userSpaceOnUse"><path
         id="path34"
         d="m 21.34358,28.64577 6.03476,-6.11912 c 0.69252,-0.7022 1.92915,-0.7022 2.67113,0 0.69251,0.75235 0.69251,2.00627 0,2.70846 l -2.81952,2.85893 h 10.14037 c 1.03877,0 1.87968,0.90283 1.87968,1.90596 0,1.10345 -0.89037,1.90596 -1.87968,1.90596 H 27.27941 l 2.77006,2.85893 c 0.69251,0.75235 0.69251,1.95611 0,2.70846 -0.74198,0.7022 -1.97861,0.7022 -2.67113,0 L 21.34358,31.35423 C 20.99733,31.00313 20.75,30.45141 20.75,30 c 0,-0.50157 0.24733,-0.95298 0.59358,-1.35423 z" /></clipPath><clipPath
       id="clipPath42"
       clipPathUnits="userSpaceOnUse"><path
         id="path40"
         d="M -140,-1927 H 1300 V 1306 H -140 Z" /></clipPath></defs><g
     transform="matrix(1.3333333,0,0,-1.3333333,0,80)"
     id="g10"><g
       id="g12" /><g
       id="g14"><g
         clip-path="url(#clipPath20)"
         id="g16"><g
           clip-path="url(#clipPath26)"
           id="g22"><path
             id="path28"
             style="fill:#141033;fill-opacity:1;fill-rule:nonzero;stroke:none"
             d="M -5,65 H 65 V -5 H -5 Z" /></g></g></g><g
       id="g30"><g
         clip-path="url(#clipPath36)"
         id="g32"><g
           clip-path="url(#clipPath42)"
           id="g38"><path
             id="path44"
             style="fill:#ffffff;fill-opacity:1;fill-rule:nonzero;stroke:none"
             d="m 15.75,17 h 28.5 v 26 h -28.5 z" /></g></g></g></g></svg>