<?xml version="1.0" encoding="UTF-8" standalone="no"?>
<svg
   xmlns:dc="http://purl.org/dc/elements/1.1/"
   xmlns:cc="http://creativecommons.org/ns#"
   xmlns:rdf="http://www.w3.org/1999/02/22-rdf-syntax-ns#"
   xmlns:svg="http://www.w3.org/2000/svg"
   xmlns="http://www.w3.org/2000/svg"
   viewBox="0 0 33.333332 33.333332"
   height="33.333332"
   width="33.333332"
   xml:space="preserve"
   id="svg2"
   version="1.1"><metadata
     id="metadata8"><rdf:RDF><cc:Work
         rdf:about=""><dc:format>image/svg+xml</dc:format><dc:type
           rdf:resource="http://purl.org/dc/dcmitype/StillImage" /></cc:Work></rdf:RDF></metadata><defs
     id="defs6"><clipPath
       id="clipPath20"
       clipPathUnits="userSpaceOnUse"><path
         id="path18"
         d="m 24.19444,15.01389 c 0.18056,-0.25 0.26389,-0.61111 0.26389,-1.05556 0,-1.15277 -0.40277,-1.84722 -1.20833,-2.08333 L 23.18056,11.77778 23.25,11.73611 c 0.73611,-0.45833 1.13889,-1.04167 1.20833,-1.763888 0,-0.916666 -0.45833,-1.513889 -1.38889,-1.791666 -0.02777,0 -0.04166,-0.013889 -0.04166,-0.041667 L 23.05556,8.027778 C 23.65278,7.708333 23.95833,7.166667 23.95833,6.375 23.91667,5.583333 23.54167,5.083333 22.84722,4.847222 22.77778,4.847222 22.75,4.833333 22.75,4.819444 l 0.02778,-0.138888 c 0.43055,-0.194445 0.63889,-0.625 0.63889,-1.319445 C 23.33333,2.347222 22.84722,1.847222 21.93056,1.847222 H 9.402778 l -0.375,0.111111 C 8.833333,2.055556 8.736111,2.319444 8.722222,2.736111 v 8.194449 c 0,2.72222 1.013889,5.26388 3.041668,7.625 0.83333,0.95833 1.40278,1.58333 1.69444,1.86111 0.47223,0.45833 0.70834,0.75 0.70834,0.90277 0,0.84723 0.01389,1.61112 0.04166,2.26389 0,0.86111 0.45834,1.33334 1.38889,1.41667 0.58334,-0.04167 1.04167,-0.27778 1.38889,-0.68056 l 0.40278,-0.61111 0.27778,-0.75 c 0.18055,-0.5 0.26389,-1.15277 0.26389,-1.93055 0,-0.91667 -0.34723,-2.13889 -1.04167,-3.68056 -0.22222,-0.48611 -0.34722,-0.81944 -0.375,-0.98611 l -0.16667,-0.16667 -0.02778,-0.09722 0.19445,-0.19444 c 0.15278,-0.05556 0.31944,-0.09722 0.47222,-0.09722 h 5.86111 c 0.52778,-0.04167 0.98611,-0.29167 1.34722,-0.79167 z" /></clipPath><clipPath
       id="clipPath26"
       clipPathUnits="userSpaceOnUse"><path
         id="path24"
         d="M -943,-330 H 497 V 2903 H -943 Z" /></clipPath><clipPath
       id="clipPath36"
       clipPathUnits="userSpaceOnUse"><path
         id="path34"
         d="M 6.944444,12.20833 C 6.944444,4.361111 6.875,0.3611111 6.736111,0.2361111 6.597222,0.09722222 6.416667,0.02777778 6.222222,0.02777778 H 1.236111 C 0.75,0.02777778 0.5,0.2638889 0.5,0.7361111 V 12.20833 c 0.0138889,0.48611 0.2638889,0.73611 0.736111,0.73611 h 4.986111 c 0.486111,-0.01388 0.722222,-0.25 0.722222,-0.73611 z" /></clipPath><clipPath
       id="clipPath42"
       clipPathUnits="userSpaceOnUse"><path
         id="path40"
         d="M -943,-330 H 497 V 2903 H -943 Z" /></clipPath></defs><g
     transform="matrix(1.3333333,0,0,-1.3333333,0,33.333333)"
     id="g10"><g
       id="g12" /><g
       id="g14"><g
         clip-path="url(#clipPath20)"
         id="g16"><g
           clip-path="url(#clipPath26)"
           id="g22"><path
             id="path28"
             style="fill:#ffffff;fill-opacity:1;fill-rule:nonzero;stroke:none"
             d="M 3.722222,30 H 29.45833 V -3.152778 H 3.722222 Z" /></g></g></g><g
       id="g30"><g
         clip-path="url(#clipPath36)"
         id="g32"><g
           clip-path="url(#clipPath42)"
           id="g38"><path
             id="path44"
             style="fill:#ffffff;fill-opacity:1;fill-rule:nonzero;stroke:none"
             d="M -4.5,17.94444 H 11.94444 V -4.972222 H -4.5 Z" /></g></g></g></g></svg>