<svg xmlns="http://www.w3.org/2000/svg" width="120" height="23" viewBox="0 0 120 23">
    <g fill="none" fill-rule="evenodd">
        <path d="M0-1h120v25H0z"/>
        <path fill="#000" fill-rule="nonzero" d="M50.051 12.1v.233h4.338V12.1c0-.707-.192-1.281-.576-1.723-.385-.442-.903-.663-1.559-.663-.678 0-1.214.222-1.61.663-.395.442-.593 1.016-.593 1.723m6.575 4.642c.7 0 1.254.299 1.661.895.407.597.463 1.26.169 1.99-.406 1.06-1.164 1.878-2.27 2.453-1.108.574-2.385.861-3.83.861-2.102 0-3.784-.602-5.05-1.807-1.265-1.204-1.897-2.811-1.897-4.823v-3.646c0-2.012.626-3.62 1.88-4.824 1.255-1.204 2.91-1.807 4.965-1.807 1.988 0 3.592.603 4.812 1.807 1.22 1.204 1.83 2.812 1.83 4.824v.463c0 .708-.213 1.266-.643 1.675-.43.41-.995.613-1.695.613H50.05v1.393c0 .728.214 1.308.644 1.74.43.431 1.017.646 1.763.646.858 0 1.581-.409 2.168-1.226.317-.443.616-.758.898-.945.283-.188.65-.282 1.102-.282M62.744.63c.44-.42 1.01-.63 1.711-.63.7 0 1.27.21 1.71.63.442.42.663.973.663 1.658v18.2c0 .686-.221 1.239-.662 1.658-.44.42-1.01.63-1.71.63-.702 0-1.272-.21-1.712-.63-.442-.42-.663-.972-.663-1.658v-18.2c0-.685.221-1.238.663-1.658M86.449 12.1v.233h4.339V12.1c0-.707-.194-1.281-.577-1.723-.384-.442-.904-.663-1.56-.663-.676 0-1.214.222-1.609.663-.395.442-.593 1.016-.593 1.723m6.574 4.642c.7 0 1.255.299 1.662.895.406.597.462 1.26.168 1.99-.406 1.06-1.163 1.878-2.27 2.453-1.107.574-2.384.861-3.83.861-2.1 0-3.784-.602-5.05-1.807-1.264-1.204-1.896-2.811-1.896-4.823v-3.646c0-2.012.626-3.62 1.88-4.824 1.254-1.204 2.908-1.807 4.965-1.807 1.987 0 3.591.603 4.813 1.807 1.22 1.204 1.83 2.812 1.83 4.824v.463c0 .708-.215 1.266-.644 1.675-.43.41-.995.613-1.695.613H86.45v1.393c0 .728.214 1.308.643 1.74.43.431 1.017.646 1.763.646.858 0 1.582-.409 2.17-1.226.316-.443.614-.758.897-.945.283-.188.65-.282 1.101-.282zM69.877 9.896c-.362-.364-.543-.834-.543-1.408 0-.576.181-1.045.543-1.41.361-.365.836-.547 1.423-.547h.475v-.398c0-1.967.542-3.453 1.627-4.459C74.486.67 76.022.166 78.011.166h.168c.588 0 1.069.182 1.441.547.373.365.56.835.56 1.408 0 .577-.187 1.045-.56 1.41-.372.365-.853.548-1.44.548h-.134c-1.018 0-1.527.596-1.527 1.79v.662h1.492c.587 0 1.062.182 1.423.547.362.365.542.834.542 1.409 0 .576-.18 1.045-.542 1.409-.361.365-.836.548-1.423.548h-1.492v10.044c0 .686-.22 1.238-.66 1.658-.44.42-1.011.63-1.712.63-.7 0-1.271-.21-1.711-.63-.441-.42-.661-.972-.661-1.658V10.444H71.3c-.587 0-1.062-.183-1.423-.548zM99.14.63c.44-.42 1.01-.63 1.711-.63.7 0 1.271.21 1.712.63.44.42.66.973.66 1.658v18.2c0 .686-.22 1.239-.66 1.658-.441.42-1.011.63-1.712.63-.7 0-1.27-.21-1.711-.63-.441-.42-.661-.972-.661-1.658v-18.2c0-.685.22-1.238.66-1.658m12.015 11.47v.233h4.337V12.1c0-.707-.192-1.281-.576-1.723-.384-.442-.903-.663-1.559-.663-.678 0-1.214.222-1.61.663-.395.442-.592 1.016-.592 1.723m6.574 4.642c.7 0 1.254.299 1.662.895.406.597.462 1.26.168 1.99-.406 1.06-1.163 1.878-2.27 2.453-1.108.574-2.384.861-3.83.861-2.1 0-3.784-.602-5.05-1.807-1.265-1.204-1.897-2.811-1.897-4.823v-3.646c0-2.012.627-3.62 1.88-4.824 1.255-1.204 2.91-1.807 4.965-1.807 1.988 0 3.592.603 4.813 1.807 1.22 1.204 1.83 2.812 1.83 4.824v.463c0 .708-.216 1.266-.644 1.675-.429.41-.995.613-1.695.613h-6.506v1.393c0 .728.213 1.308.643 1.74.43.431 1.017.646 1.763.646.858 0 1.582-.409 2.17-1.226.316-.443.614-.758.897-.945.282-.188.649-.282 1.101-.282zM40.29 14.288h-5.964v6.134c0 .707-.233 1.276-.695 1.707-.462.43-1.056.647-1.78.647-.722 0-1.31-.216-1.761-.647-.453-.43-.678-1-.678-1.707V3.182c0-.707.22-1.275.66-1.707.44-.43 1.022-.646 1.746-.646h9.49c.631 0 1.152.205 1.56.614.405.409.608.933.608 1.574s-.202 1.155-.61 1.542c-.406.387-.927.58-1.559.58h-6.981v4.84h5.964c.633 0 1.153.204 1.56.613.406.41.61.934.61 1.575 0 .64-.204 1.155-.61 1.541-.407.388-.927.58-1.56.58z"/>
        <path fill="#6200EA" fill-rule="nonzero" d="M0 20.146a2.795 2.795 0 0 1 2.794-2.793h2.794v2.793a2.795 2.795 0 0 1-5.588 0zM2.794 8.97H13.97v11.176a2.795 2.795 0 0 1-5.59 0v-5.588H2.795a2.795 2.795 0 0 1 0-5.588zM19.559.588a2.795 2.795 0 0 1 2.794 2.794v16.764a2.795 2.795 0 0 1-5.588 0V6.176H2.794a2.795 2.795 0 0 1 0-5.588h16.765z"/>
    </g>
</svg>
