<?xml version="1.0" encoding="UTF-8"?>
<svg width="41px" height="40px" viewBox="0 0 41 40" version="1.1" xmlns="http://www.w3.org/2000/svg" xmlns:xlink="http://www.w3.org/1999/xlink">
    <!-- Generator: Sketch 58 (84663) - https://sketch.com -->
    <title>mailbox</title>
    <desc>Created with Sketch.</desc>
    <g id="Page-1" stroke="none" stroke-width="1" fill="none" fill-rule="evenodd">
        <g id="About-Contact" transform="translate(-1040.000000, -1104.000000)" fill-rule="nonzero">
            <g id="Social-media" transform="translate(140.000000, 1104.000000)">
                <g id="mailbox" transform="translate(900.261682, 0.000000)">
                    <polygon id="Path" fill="#BB9B45" points="20.9404871 26.7718989 26.2488029 26.7718989 26.2488029 39.9950759 20.9404871 39.9950759"></polygon>
                    <path d="M32.9173493,7.59768622 L12.1594046,7.59768622 L12.1594046,29.5865341 L25.8667028,29.5865341 L35.1258988,29.5865341 L38.9392376,29.5865341 C39.50743,29.5865341 39.9680486,29.1258627 39.9680486,28.5577231 L39.9680486,14.6483864 C39.9680486,10.7543178 36.8113369,7.59768622 32.9173493,7.59768622 L32.9173493,7.59768622 Z" id="Path" fill="#FEDA6F"></path>
                    <path d="M11.8186118,7.60573311 C8.02631807,7.78424248 5.10873085,11.0509866 5.10873085,14.8474351 L5.10873085,28.5577241 C5.10873085,29.1258636 5.56935113,29.586535 6.13754266,29.586535 L19.2100775,29.586535 L19.2100775,14.6483864 C19.2100775,10.6414515 15.8675259,7.41504763 11.8186118,7.60573311 Z" id="Path" fill="#F9C74B"></path>
                    <path d="M6.40969894,28.2855924 L6.40969894,14.6485714 C6.40969894,11.478175 8.98908666,8.89857582 12.1594822,8.89857582 C15.3298777,8.89857582 17.9090539,11.478175 17.9090539,14.6485714 L17.9090539,28.2855924 L6.40969894,28.2855924 Z" id="Path" fill="#BB9B45"></path>
                    <polygon id="Path" fill="#F9C74B" points="24.2020216 0.0644788522 26.5177483 0.0644788522 26.5177483 17.0464745 24.2020216 17.0464745"></polygon>
                    <polygon id="Path" fill="#DE594E" points="24.2020216 0.0644788522 31.7867492 0.0644788522 31.7867492 4.62556334 24.2020216 4.62556334"></polygon>
                    <path d="M14.4492655,18.238261 L1.1833651,18.238261 C0.580338545,18.238261 0.0915047832,18.726989 0.0915047832,19.3299948 L0.0915047832,27.1936894 C0.0915047832,27.7967798 0.580338545,28.2855924 1.1833651,28.2855924 L14.449265,28.2855924 C15.0522921,28.2855924 15.5411258,27.7967798 15.5411258,27.1936894 L15.5411258,19.3299948 C15.5411258,18.726989 15.0522925,18.238261 14.4492655,18.238261 L14.4492655,18.238261 Z" id="Path" fill="#EDEDED"></path>
                    <polygon id="Path" fill="#DBD8DD" points="9.82728788 23.2443622 15.2933838 27.8123273 10.2853017 22.8215937 15.0529164 18.4205391 7.81631196 24.1319102 0.579424313 18.4205391 5.28802362 22.766901 0.338955989 27.8123273 5.74757061 23.1911234 7.81631196 25.1006478"></polygon>
                </g>
            </g>
        </g>
    </g>
</svg>