<?xml version="1.0" encoding="UTF-8"?>
<svg width="692px" height="760px" viewBox="0 0 692 760" version="1.1" xmlns="http://www.w3.org/2000/svg" xmlns:xlink="http://www.w3.org/1999/xlink">
    <!-- Generator: Sketch 58 (84663) - https://sketch.com -->
    <title>Illustration</title>
    <desc>Created with Sketch.</desc>
    <defs>
        <linearGradient x1="49.652923%" y1="36.9858227%" x2="50.1806962%" y2="80.1058029%" id="linearGradient-1">
            <stop stop-color="#A0C2FF" offset="1%"></stop>
            <stop stop-color="#FFFFFF" stop-opacity="0" offset="100%"></stop>
        </linearGradient>
        <linearGradient x1="58.3910883%" y1="79.7880767%" x2="41.5023452%" y2="54.5969304%" id="linearGradient-2">
            <stop stop-color="#A0C2FF" offset="1%"></stop>
            <stop stop-color="#FFFFFF" stop-opacity="0" offset="100%"></stop>
        </linearGradient>
        <linearGradient x1="53.8724801%" y1="83.7296196%" x2="44.216776%" y2="53.1589674%" id="linearGradient-3">
            <stop stop-color="#FF9FED" offset="2%"></stop>
            <stop stop-color="#FFFFFF" stop-opacity="0" offset="100%"></stop>
        </linearGradient>
        <linearGradient x1="22.2108562%" y1="40.1467505%" x2="47.072765%" y2="49.7554158%" id="linearGradient-4">
            <stop stop-color="#FF9FED" offset="2%"></stop>
            <stop stop-color="#FFFFFF" stop-opacity="0" offset="100%"></stop>
        </linearGradient>
        <linearGradient x1="27.377892%" y1="71.5763832%" x2="57.3650386%" y2="42.1246429%" id="linearGradient-5">
            <stop stop-color="#3B01AC" offset="1%"></stop>
            <stop stop-color="#FF2116" stop-opacity="0" offset="100%"></stop>
        </linearGradient>
    </defs>
    <g id="Page-1" stroke="none" stroke-width="1" fill="none" fill-rule="evenodd">
        <g id="Home" transform="translate(-374.000000, -426.000000)">
            <g id="Illustration" transform="translate(374.000000, 426.000000)">
                <path d="M651.11056,323.553897 C592.83601,264.814262 557.693594,262.426202 543.840637,261 L543.840637,261 C550.223491,262.081059 556.515509,263.649986 562.662231,265.693201 C603.250406,278.960199 599.680226,314.615257 595.287424,332.575456 C593.808182,338.803997 592.018074,344.95333 589.923928,351 L589.923928,351 C589.923928,351 603.233954,334.515755 622.154262,331.199005 C641.074571,327.882255 653.183568,330.004975 671.840637,348.794362 C665.781964,339.705849 658.837436,331.250353 651.11056,323.553897 L651.11056,323.553897 Z" id="Path" fill="#FFFFFF" fill-rule="nonzero"></path>
                <path d="M615.944114,528.07076 C615.944114,528.07076 644.811134,516.372922 670.084202,480.619446 C695.35727,444.86597 709.172555,382.68099 650.779073,324.241298 C592.385592,265.801606 557.204426,263.42574 543.405627,262.006821 C529.606829,260.587901 442.725505,284.62704 442.725505,284.62704 C442.725505,284.62704 426.239486,284.528046 409.044567,254.582241 C391.849649,224.636436 379.369732,178.686537 354.986909,109.390459 C330.604086,40.0943819 278.27746,-7.75290976 209.596702,1.04109246 C140.915944,9.83509469 152.192381,114.884648 160.138643,142.388592 C168.084904,169.892535 200.265615,245.837736 178.833789,346.696527 C157.401964,447.555318 109.196842,480.124474 135.492043,603.306502 C135.492043,603.306502 150.807556,652.8037 194.495508,666.514424 C238.18346,680.225148 249.163149,684.663396 271.716024,701.73993 C294.268899,718.816463 370.76403,727 374.473384,727 C378.182738,727 476.966968,701.706932 476.966968,701.706932 C476.966968,701.706932 555.48988,612.001509 557.056052,610.417599 C558.622223,608.833689 607.4703,539.7356 607.4703,539.7356 L615.944114,528.07076 Z" id="Path" fill="url(#linearGradient-1)" fill-rule="nonzero"></path>
                <path d="M615.944114,528.07076 C615.944114,528.07076 644.811134,516.372922 670.084202,480.619446 C695.35727,444.86597 709.172555,382.68099 650.779073,324.241298 C592.385592,265.801606 557.204426,263.42574 543.405627,262.006821 C529.606829,260.587901 442.725505,284.62704 442.725505,284.62704 C442.725505,284.62704 426.239486,284.528046 409.044567,254.582241 C391.849649,224.636436 379.369732,178.686537 354.986909,109.390459 C330.604086,40.0943819 278.27746,-7.75290976 209.596702,1.04109246 C140.915944,9.83509469 152.192381,114.884648 160.138643,142.388592 C168.084904,169.892535 200.265615,245.837736 178.833789,346.696527 C157.401964,447.555318 109.196842,480.124474 135.492043,603.306502 C135.492043,603.306502 150.807556,652.8037 194.495508,666.514424 C238.18346,680.225148 249.163149,684.663396 271.716024,701.73993 C294.268899,718.816463 370.76403,727 374.473384,727 C378.182738,727 476.966968,701.706932 476.966968,701.706932 C476.966968,701.706932 555.48988,612.001509 557.056052,610.417599 C558.622223,608.833689 607.4703,539.7356 607.4703,539.7356 L615.944114,528.07076 Z" id="Path" fill="url(#linearGradient-2)" fill-rule="nonzero"></path>
                <path d="M355.205521,108.700437 C342.81832,73.5644287 323.279576,43.9596998 298.059235,24.4928982 C297.131796,23.7966881 295.843991,23.8423295 294.968198,24.6024482 C294.092404,25.3625669 293.866367,26.6308184 294.425656,27.6465531 L294.425656,27.7951546 C298.290463,34.4822239 307.027568,41.631609 307.027568,41.631609 C315.285702,49.8872501 316.392292,68.5945328 316.392292,68.5945328 C316.392292,94.5998021 323.973259,128.266306 325.492756,134.75524 C325.675695,135.527112 325.472479,136.33973 324.947719,136.93473 C322.387697,139.890249 313.022974,148.178913 286.117974,151.993019 C265.814406,154.946439 245.831063,159.788753 226.428183,166.456902 C226.215598,166.532941 225.993019,166.577443 225.767532,166.588992 C222.315632,166.787128 194.304043,168.438256 188.523349,169.594046 C187.872401,169.730538 187.193893,169.599638 186.640494,169.230797 L182.346265,166.143188 C181.648761,165.669068 180.756031,165.587935 179.984439,165.928541 L171.313398,169.709625 C170.178386,170.2014 169.589781,171.463327 169.942548,172.648633 C181.272708,210.47598 194.716949,271.485168 178.877849,346.182208 C176.549055,357.145699 173.922968,367.283627 171.065654,376.843659 C170.781311,377.8037 171.115839,378.839769 171.907984,379.452442 L189.894199,393.47052 C190.561499,394 191.456341,394.143761 192.256025,393.85028 L207.63267,387.856684 C207.807689,387.788494 207.974011,387.699816 208.128159,387.592504 C212.257225,384.752563 270.989073,343.920162 276.290795,319.235796 C281.790712,293.643308 274.127164,236.679385 274.127164,231.247173 C274.127164,225.814961 296.671869,217.823501 298.472142,217.179561 L298.70337,217.080493 C336.690785,198.670413 358.872132,182.192154 366.023676,169.808692 C368.52028,165.238855 370.144497,160.244497 370.813394,155.080629 C370.870963,154.698379 370.837001,154.307929 370.714296,153.94135 C366.040192,140.071873 360.953182,125.046606 355.205521,108.700437 Z" id="Path" fill="#000000" fill-rule="nonzero"></path>
                <path d="M274.91701,241.164331 C274.471865,236.720157 274.142129,233.201165 274.142129,232.110773 C274.142129,228.228316 289.854094,221.553795 298.196438,218.546956 C300.125399,217.605254 302.120308,216.613989 304.477927,215.42447 L304.840637,215.242738 L304.840637,213.689756 L304.428466,213.689756 L304.840637,213.689756 C304.772143,206.933619 304.015318,200.202152 302.581939,193.600108 C302.120308,191.749746 301.708137,189.849821 301.295965,188.032501 L301.295965,187.834247 C300.213821,182.043382 298.522732,176.383637 296.25099,170.949692 C294.882582,167.942853 293.085516,164.605593 291.304936,161.301375 C289.656251,158.327578 288.007567,155.254655 286.721593,152.413027 L286.523751,152 L285.584,152.14869 C265.190092,155.119253 245.119828,160.003426 225.637825,166.736814 C223.543995,166.852461 191.575999,168.702823 187.371853,170.041032 L180.892523,165.6299 L168.840637,170.718397 C180.282509,208.369964 194.642553,270.37362 178.452469,346.668021 C175.913495,358.662333 172.978836,369.681901 169.862822,380.007583 L190.059209,395.785226 L190.339486,396 L207.700136,389.19331 C207.848517,389.094184 223.494535,378.371995 239.833,364.411673 C267.052784,341.282145 274.653221,327.58616 276.235958,320.184711 C280.654433,299.830727 276.780024,260.213149 274.91701,241.164331 Z" id="Path" fill="#662EFF" fill-rule="nonzero"></path>
                <path d="M253.402642,595.268967 L281.840637,538.125234 L277.822762,497.08924 L271.236081,465.764055 C278.926031,414.275341 261.899461,373.255835 261.899461,373.255835 L247.655763,279.280278 L181.344352,279 C180.850351,281.670884 176.947742,343.909082 176.404341,346.596453 C155.030561,447.381117 109.516596,479.860388 135.780986,602.951881 C138.166245,609.922776 141.238714,616.638599 144.952939,623 C147.277405,622.180559 149.490193,621.072805 151.53962,619.702612 C154.355427,616.883345 189.198969,597.939851 189.198969,597.939851 L253.402642,595.268967 Z" id="Path" fill="#FF9FED" fill-rule="nonzero"></path>
                <path d="M316.459328,232.359937 C316.459328,232.359937 334.82362,233.719873 342.221947,232.359937 C347.384233,231.49832 352.606639,231.043599 357.840637,231 C357.840637,231 351.806891,246.565539 349.899766,257.494186 C347.992642,268.422833 341.399911,287.265328 341.399911,293 C334.248024,292.904226 327.10941,292.356971 320.026966,291.361522 C308.518457,289.723044 305.082345,290.525899 300.840637,288.084567 C303.422226,281.718149 305.441141,275.139258 306.874384,268.422833 C308.238965,260.230444 311.52711,253.135835 313.450675,246.024841 C315.37424,238.913848 316.459328,232.359937 316.459328,232.359937 Z" id="Path" fill="#662EFF" fill-rule="nonzero"></path>
                <path d="M361.62686,310 C361.62686,310 348.843872,315.53211 344.85228,316.927597 C340.860689,318.323085 326.840637,325.234069 326.840637,325.234069 C326.840637,325.234069 331.656938,338.39152 334.131064,347.794446 C336.605191,357.197372 341.042125,375.388545 341.965799,377 C341.965799,377 370.005903,362.330771 377.840637,359.971733 C377.840637,359.971733 370.137856,335.052318 367.812177,326.745847 C366.121339,321.031937 364.055005,315.437639 361.62686,310 L361.62686,310 Z" id="Path" fill="#765177" fill-rule="nonzero"></path>
                <path d="M334.840637,327.072447 C334.840637,327.072447 365.453375,314.462305 366.881084,313.586371 C368.308793,312.710437 374.351655,310 374.351655,310 C374.351655,310 379.614257,328.17976 382.370067,337.5506 C385.125877,346.92144 387.350447,359.762961 389.840637,363.993887 C384.527768,366.119473 379.354548,368.575841 374.351655,371.348427 C367.412325,375.331447 359.410514,381.082862 350.279816,383 C350.279816,383 346.644139,366.95223 344.618784,360.076975 C342.194999,351.813448 341.149119,346.508264 339.256575,341.170025 C337.812264,336.922572 334.840637,327.072447 334.840637,327.072447 Z" id="Path" fill="#FFFFFF" fill-rule="nonzero"></path>
                <path d="M375.26527,310 C375.26527,310 369.292843,312.716049 367.820417,313.572016 C366.34799,314.427984 335.840637,327.020576 335.840637,327.020576 C335.840637,327.020576 338.802035,336.897119 340.307549,341.061728 C340.870049,342.707819 341.366373,344.353909 341.846152,346 C345.998726,344.353909 352.20277,341.81893 353.294682,341.193416 C354.949093,340.238683 368.664167,332.683128 373.908652,331.185185 L380.840637,329.193416 C378.193579,320.123457 375.26527,310 375.26527,310 Z" id="Path" fill="#FF0000" fill-rule="nonzero"></path>
                <path d="M349.089216,315.09733 C349.089216,315.09733 348.163454,310.822851 349.885046,309.831432 C351.106697,309.05008 352.595733,308.805978 354.002664,309.156419 C355.409594,309.50686 356.610538,310.420988 357.323624,311.684248 C359.370044,315.243605 361.627604,321.208373 360.571911,324.458928 C360.029248,326.276398 358.157633,327.348681 356.316655,326.896844" id="Path" stroke="#000000"></path>
                <path d="M336.089216,321.09733 C336.089216,321.09733 335.163454,316.822851 336.885046,315.831432 C338.106697,315.05008 339.595733,314.805978 341.002664,315.156419 C342.409594,315.50686 343.610538,316.420988 344.323624,317.684248 C346.370044,321.243605 348.627604,327.208373 347.571911,330.458928 C347.029248,332.276398 345.157633,333.348681 343.316655,332.896844" id="Path" stroke="#000000"></path>
                <path d="M374.840637,503.354037 C374.840637,503.354037 395.026106,482.037267 397.384375,477.937888 C399.742645,473.838509 410.033276,464 410.033276,464 C410.033276,464 425.007463,472.887453 431.472091,479.298882 C437.936718,485.710311 443.840637,490.645963 443.840637,490.645963 C443.840637,490.645963 437.244079,502.402981 432.29666,507.322236 C427.349242,512.241491 414.436479,530 414.436479,530 C414.436479,530 398.159471,520.161491 394.514873,516.60323 C390.870274,513.044969 377.82558,504.616646 374.840637,503.354037 Z" id="Path" fill="#FFFFFF" fill-rule="nonzero"></path>
                <path d="M464.095648,437.536825 C464.095648,437.536825 475.838564,436.114195 497.400416,437.900754 C518.962268,439.687313 526.840637,438.446647 526.840637,438.446647 L517.585627,490.141061 C512.56209,492.19974 507.244593,493.45582 501.828889,493.863059 C491.462614,494.971387 461.939463,489.01619 454.840637,488.073284 C454.840637,488.073284 458.738357,467.163928 459.501315,458.297302 C460.187402,451.217627 461.730062,444.246786 464.095648,437.536825 Z" id="Path" fill="#0023FF" fill-rule="nonzero"></path>
                <path d="M633.056324,392 C633.056324,392 628.730214,407.663644 627.27717,413.236603 L625.840637,418.809563 L651.648687,432 C651.648687,432 657.840637,413.665293 657.840637,404.382523 L633.056324,392 Z" id="Path" fill="#FF9FED" fill-rule="nonzero"></path>
                <polygon id="Path" fill="#000000" fill-rule="nonzero" points="655.962456 385 632.840637 392.3631 657.386092 405 677.840637 397.21567"></polygon>
                <path d="M673.686791,424.420486 C676.356181,415.514527 677.754214,406.285793 677.840637,397 L657.071407,404.579514 C657.071407,404.579514 655.825253,420.753508 650.840637,432 C650.840637,431.98363 670.779099,427.285313 673.686791,424.420486 Z" id="Path" fill="#FF0000" fill-rule="nonzero"></path>
                <path d="M345.546586,539.447016 C340.29147,539.433863 335.059849,538.748589 329.980329,537.408039 C323.585274,535.352619 329.980329,533.313642 333.285266,533.313642 L326.840637,530.27162 C326.840637,530.27162 335.962266,527.410475 340.936198,530.27162 C345.91013,533.132765 351.313703,532.820341 354.569067,538.493301 C357.824431,544.166261 364.698702,548.359318 376.464281,551.236906 C388.22986,554.114495 417.577709,559.458587 433.276165,566.381242 C433.276165,566.381242 457.236965,554.739342 464.259958,552.059074 C471.282951,549.378806 496.053461,536.19123 518.675762,546.484775 L533.944575,552.963459 C533.944575,552.963459 548.816796,582.956151 546.619012,584.205847 C544.421228,585.455542 516.709324,606.667479 516.709324,606.667479 L493.161641,620.923873 L483.246827,668.264312 C483.246827,668.264312 442.662188,666.455542 440.827948,668.264312 C438.993707,670.073082 408.737,673 408.737,673 L358.121875,637.202801 L337.829556,614.88916 L331.715421,604.332521 L334.805538,561.711328 L345.546586,539.447016 Z" id="Path" fill="#FFFFFF" fill-rule="nonzero"></path>
                <path d="M283.630086,513.360653 C283.630086,513.360653 269.893169,501.045263 260.542831,499.403211 C251.192492,497.761159 238.247138,501.045263 232.508306,510.897575 C226.769474,520.749887 210.212614,543.492307 213.197466,565.08529 C216.182318,586.678273 280.595761,578.468014 281.700651,578.468014 C282.805541,578.468014 297.367003,575.725787 297.367003,575.725787 L299.840637,563.131248 L291.05099,520.979774 L283.630086,513.360653 Z" id="Path" fill="#000000" fill-rule="nonzero"></path>
                <path d="M385.988526,263.821081 C385.988526,263.821081 409.132747,267 413.248007,267 C414.78637,266.965939 416.320699,266.829079 417.840637,266.590345 C414.560368,262.499214 411.604919,258.160161 409.001059,253.612489 C404.671518,245.987375 400.823162,238.101286 397.478331,230 C393.758136,239.520372 388.42476,253.465013 387.206643,257.9876 C385.214857,265.082817 385.988526,263.821081 385.988526,263.821081 Z" id="Path" fill="#0023FF" fill-rule="nonzero"></path>
                <path d="M640.668338,485.77204 C639.271293,485.111034 638.400194,483.937748 636.756611,483.508094 C634.747687,482.913326 632.621725,482.839423 630.576741,483.293267 C627.244605,484.352921 624.943544,487.415579 624.840637,490.927888 C624.840637,498.545983 634.83362,500.033247 639.172678,495.274003 C641.539437,492.646503 642.98579,488.449115 640.668338,485.77204 Z" id="Path" fill="#FF0000" fill-rule="nonzero"></path>
                <path d="M655.840637,467.896552 C655.840637,467.896552 646.578784,465.463448 643.313698,465 C643.313698,465 643.475336,479.896552 640.840637,489" id="Path" stroke="#FF0000"></path>
                <path d="M526.840637,438.562003 C526.840637,438.562003 492.508649,425.833429 475.277011,428.32272 C475.277011,428.32272 473.094337,435.790593 471.994794,442.146582 C470.895251,448.502571 468.023312,470.358544 466.94018,475.055006 C466.381858,477.090043 466.013729,479.173596 465.840637,481.278234 C472.385756,481.871772 478.849828,483.167971 485.123661,485.144932 C494.018469,488.181867 510.692131,492.612804 517.666841,490.405633 L526.840637,438.562003 Z" id="Path" fill="#FF0000" fill-rule="nonzero"></path>
                <path d="M527.024387,438.428106 C527.024387,438.428106 544.173971,429.43105 561.455221,431.240421 C578.736471,433.049792 596.840637,436.967329 596.840637,436.967329 C593.920825,445.432989 591.626839,454.105183 589.977512,462.912714 C587.920221,475.229717 582.176262,491.132262 579.970846,495 C571.695239,494.417553 563.455057,493.403614 555.283346,491.962249 C544.042304,489.472289 525.378554,491.962249 517.840637,490.302275 L527.024387,438.428106 Z" id="Path" fill="#662EFF" fill-rule="nonzero"></path>
                <path d="M526.840637,438.099415 C526.840637,438.099415 506.671595,421.076023 486.78429,419 C486.78429,419 481.398145,449.725146 479.873452,458.162105 C478.348758,466.599064 476.840637,473.242339 476.840637,473.242339 C483.468277,475.089711 489.86287,477.692023 495.899305,480.998363 C502.833831,484.659694 510.09022,487.672975 517.576468,490 L526.840637,438.099415 Z" id="Path" fill="#FFFFFF" fill-rule="nonzero"></path>
                <path d="M590.840637,419.164553 C590.840637,419.164553 571.57652,417.938396 559.637038,422.180238 C548.732201,426.074116 533.031864,432.122055 527.004642,438.219703 L517.840637,490 C517.840637,490 536.152224,486.603213 541.062685,485.841007 C554.316003,483.786364 574.351999,486.420946 574.351999,486.420946 C574.351999,486.420946 579.968646,459.909434 580.789794,452.585628 C581.610941,445.261823 586.931976,423.091571 590.840637,419.164553 Z" id="Path" fill="#FF9FED" fill-rule="nonzero"></path>
                <path d="M270.168122,490.327734 C269.909266,488.994858 269.715124,487.530339 269.456269,486 C264.085012,488.353103 258.746113,494.1289 257.095908,505.960233 C255.773136,514.918496 259.663908,523.846551 267.078032,528.865958 C269.122396,530.846054 271.392801,532.569702 273.840637,534 C273.695031,531.745629 273.614139,529.58999 273.614139,527.697635 C273.267528,515.17792 272.1164,502.694656 270.168122,490.327734 L270.168122,490.327734 Z" id="Path" fill="#FFFFFF" fill-rule="nonzero"></path>
                <path d="M244.840637,261 C244.840637,261 240.668452,276.130602 229.840637,287" id="Path" stroke="#FF9FED" stroke-width="0.25"></path>
                <path d="M679.730637,464.23 L679.950637,463.77 L679.730637,464.23 Z" id="Path" fill="#F4E800" fill-rule="nonzero"></path>
                <path d="M615.840637,527.364152 C613.293296,519.880889 607.623406,512.661354 596.546577,509.084552 C572.84808,501.387011 560.209977,508.853791 535.607585,523.095066 C511.005192,537.336341 517.66115,572 517.66115,572 C545.977732,553.637986 594.081407,535.918807 615.840637,527.364152 Z" id="Path" fill="#FF0000" fill-rule="nonzero"></path>
                <path d="M680.090637,464 C681.110637,462.048193 681.590637,461 681.590637,461 C681.090637,462.012048 680.590637,463.006024 680.090637,464 Z" id="Path" fill="#F4E800" fill-rule="nonzero"></path>
                <path d="M188.840637,283.667107 C188.840637,283.667107 194.347407,301.640982 212.483475,297.333193 C230.619544,293.025405 243.578589,268.482566 244.897575,257.473774 C246.216562,246.464981 247.370676,229.134799 239.407293,221.162915 C231.44391,213.191031 218.369454,202.380298 209.433318,217.861928 C200.497183,233.343557 188.840637,283.667107 188.840637,283.667107 Z" id="Path" fill="#FFFFFF" fill-rule="nonzero"></path>
                <path d="M244.392296,261.643508 C244.392296,261.643508 256.078652,235.755804 240.133709,215.385965 C224.188766,195.016126 200.931599,206.431826 191.985264,215.385965 C183.03893,224.340104 169.157256,246.494162 165.575422,267.70655 C161.993587,288.918937 156.216434,293.7925 146.939976,299.095597 C137.663519,304.398694 94.3183645,331.707164 112.062478,394.633943 C129.806591,457.560721 138.010148,467.770422 151.479168,472.82571 C164.948188,477.880999 194.131064,465.936641 218.642699,449.977788 C243.154335,434.018936 256.606848,423.379701 261.030497,418.935673 C266.321526,414.026174 272.133242,409.710673 278.361956,406.066164 C283.313802,403.208109 294.042801,392.981888 297.344031,384.457283 C300.645261,375.932679 299.985015,375.37098 299.209226,374.924926 C298.433437,374.478871 295.67691,377.948186 294.81859,380.740159 C293.96027,383.532133 286.945155,390.553367 286.945155,390.553367 C288.249534,387.501208 289.218097,384.31601 289.833732,381.05405 C290.659039,376.197008 291.863988,371.141719 290.659039,370.431336 C289.45409,369.720952 286.747081,371.967747 285.393577,376.510898 C284.283447,380.796985 282.121812,384.737886 279.104733,387.976161 C276.166638,390.916819 268.557302,396.583368 266.345478,396.583368 C264.133654,396.583368 265.256072,393.279258 265.685232,392.519312 C267.393136,389.905154 269.290969,387.420359 271.363348,385.085064 C273.162519,383.284324 274.218912,380.740159 273.162519,380.128899 C272.106125,379.517639 266.560058,380.393228 263.110272,383.846023 C258.046344,389.51495 253.872192,395.9209 250.730658,402.844657 C248.568352,408.527726 244.342778,412.756987 227.622046,412.756987 C210.901314,412.756987 186.158593,414.210796 178.928898,416.061097 C178.928898,416.061097 162.142142,403.191588 170.543773,376.890871 C178.945404,350.590154 181.173735,345.303578 187.181974,317.962066 C193.190213,290.620554 211.77614,269.424687 219.401982,261.792193 C227.027824,254.159698 236.56838,243.487422 239.869611,225.859994 C239.853104,225.843474 246.17496,233.294242 244.392296,261.643508 Z" id="Path" fill="#FFFFFF" fill-rule="nonzero"></path>
                <path d="M210.472422,357.745957 C210.472422,357.745957 208.425441,351.392993 211.70061,338.046846 C214.975779,324.700698 220.478063,318.626805 226.635381,315.064549 C232.792698,311.502293 237.08317,307.546055 248.546261,309.532382 C260.009353,311.518709 264.840227,324.799193 265.953785,330.462688 C267.067342,336.126182 269.982243,358.156355 252.247202,368.432725 C234.512162,378.709094 221.951889,368.432725 221.951889,368.432725 L210.472422,357.745957 Z" id="Path" fill="#FFFFFF" fill-rule="nonzero"></path>
                <path d="M265.941769,330.259807 C264.815781,324.565215 259.947537,311.195306 248.35648,309.214579 L246.932436,309 C246.153866,309.944127 245.238627,310.767451 244.216817,311.442897 C242.975426,311.804336 241.698542,312.031232 240.408327,312.119646 C238.049197,312.570881 235.860538,313.661735 234.082921,315.272303 C231.433537,317.599658 231.681916,319.431831 230.473135,322.501958 C228.022454,328.691731 220.537943,330.342337 219.792804,337.902113 C219.494748,340.939228 220.140535,344.091886 219.792804,347.129001 C219.445072,350.166116 218.252849,353.219737 219.196692,356.438419 C220.45515,360.729995 224.561696,364.790486 227.873426,367.679047 C229.860465,369.329653 231.847503,371.22785 233.933893,372.927974 C240.326944,373.366272 246.697024,371.796127 252.148411,368.438326 C270.015198,358.105531 267.067758,335.954398 265.941769,330.259807 Z" id="Path" stroke="#F4E800" stroke-width="0.25" fill="#F4E800" fill-rule="nonzero"></path>
                <path d="M151.840637,472.822288 C165.326239,477.892308 194.388616,465.913144 218.840531,449.907787 C243.292446,433.90243 256.712184,423.232192 261.125054,418.775214 C266.403193,413.851408 272.200749,409.523331 278.414287,405.868203 C283.354068,403.001819 294.056926,392.745798 297.350114,384.196353 C300.643301,375.646908 299.984663,375.083572 299.210764,374.636218 C298.436865,374.188863 295.687054,377.668288 294.830825,380.468397 C293.974597,383.268506 286.976574,390.310201 286.976574,390.310201 C288.277775,387.249147 289.243978,384.054668 289.858113,380.783202 C290.68141,375.912007 291.883423,370.841987 290.68141,370.129533 C289.479396,369.41708 286.778983,371.670422 285.428776,376.226812 C284.321351,380.525389 282.164983,384.477774 279.155254,387.725485 C276.224318,390.674712 268.633521,396.357773 266.427086,396.357773 C264.22065,396.357773 265.340334,393.044035 265.768448,392.281875 C267.472192,389.660099 269.3654,387.168063 271.43273,384.825963 C273.227517,383.019976 274.281337,380.468397 273.227517,379.855356 C272.173698,379.242314 266.641143,380.120455 263.199762,383.583311 C258.148172,389.268758 253.98419,395.693375 250.85031,402.637308 C248.693273,408.336938 244.477993,412.578523 227.798,412.578523 C211.118007,412.578523 186.435569,414.036568 179.223489,415.892262" id="Path" fill="#0023FF" fill-rule="nonzero"></path>
                <path d="M145.840637,429 C146.998118,426.99118 152.950874,398.137224 153.976071,396.344228 C155.001267,394.551232 165.550874,383.19559 165.550874,383.19559 L203.334338,370.196368 L228.335913,365 L242.854023,370.163165 L250.840637,379.941634 L236.752448,396.842283 L206.83985,405.143191 L182.450086,409.70869 L145.840637,429 Z" id="Path" fill="#662EFF" fill-rule="nonzero"></path>
                <path d="M156.021747,410.02153 C162.886568,393.833207 168.097215,383.260568 172.993569,369.097844 L175.971082,359.925009 C180.572245,346.039207 184.37202,331.90281 187.351797,317.585051 C193.389531,290.313572 211.998986,269.201232 219.641268,261.592885 C227.283551,253.984537 236.844675,243.346026 240.153022,225.774367 C240.153022,225.774367 246.488508,233.185095 244.702,261.461138 C244.702,261.461138 256.41355,235.655337 240.434232,215.349943 C224.454914,195.044548 201.147606,206.424133 192.181984,215.349943 C183.216363,224.275753 179.560639,227.354723 175.971082,248.5 C172.381525,269.645277 175.011661,300.713681 165.715205,306 C156.418748,311.286319 138.867965,328 136.113281,380 C134.798337,404.822117 131.242224,453.678951 138.867965,463 C142.837982,448.903149 150.24868,423.607864 156.021747,410.02153 Z" id="Path" fill="#FF0000" fill-rule="nonzero"></path>
                <path d="M255.582255,365.233968 C255.582255,365.233968 244.342483,352 227.326488,352 C210.310493,352 203.69499,355.920563 195.121167,360.883301 C186.547343,365.84604 186.728364,371.222339 181.528118,372.876585 C176.327872,374.530831 175.35694,376.052738 170.83141,376.730979 C166.305879,377.409219 163.343713,376.631724 158.900465,379.212348 C154.457217,381.792972 151.840637,385.48194 151.840637,386.342148 C151.840637,387.202356 155.740822,384.588647 157.929533,384.588647 L160.134701,384.588647 C158.152611,385.073568 156.273878,385.914169 154.588869,387.070016 C153.222981,388.443041 152.317875,388.90623 152.317875,390.014574 C152.317875,391.122919 155.987669,390.328881 157.682686,389.336334 C159.377703,388.343786 165.417229,387.682087 166.53627,388.360328 C170.505672,391.067696 175.51238,391.735884 180.047035,390.163457 C187.320797,387.682087 203.727903,390.295796 212.466291,390.295796 C221.204679,390.295796 251.747897,378.616819 252.669459,377.690441 C253.591022,376.764064 258.840637,372.529194 258.840637,370.246334 C258.840637,367.963474 255.582255,365.233968 255.582255,365.233968 Z" id="Path" fill="#FFFFFF" fill-rule="nonzero"></path>
                <path d="M255.619228,365.126079 C255.619228,365.126079 244.393604,352 227.399027,352 C210.40445,352 203.797274,355.888601 195.234243,360.810881 C186.671211,365.733161 186.852005,371.06563 181.658304,372.70639 C180.032196,373.222167 178.444882,373.852715 176.908369,374.593264 L176.908369,374.593264 C176.908369,374.593264 175.757866,376.80829 182.940293,389.228843 L182.940293,389.228843 C191.026688,387.965458 204.78342,390 212.524663,390 C221.235616,390 251.756824,378.416235 252.677227,377.497409 C253.59763,376.578584 258.840637,372.378238 258.840637,370.11399 C258.840637,367.849741 255.619228,365.126079 255.619228,365.126079 Z" id="Path" fill="#662EFF" fill-rule="nonzero"></path>
                <path d="M275.697302,551.589461 C275.697302,551.589461 250.705253,537.939631 234.742696,535.186585 C218.780139,532.43354 202.735046,531.032289 189.347627,538.763896 C175.960209,546.495503 159.073243,564.695277 149.399966,581.361918 C139.72669,598.028559 114.734641,632.565269 105.705149,648.17685 C96.6756572,663.788432 87.5471215,687.741577 74.3412833,700.929819 C61.135445,714.118061 56.1832557,722.162889 36.0938743,723.778449 C16.0044928,725.394008 2.81516188,722.459625 1.1644321,725.328067 C-0.486297685,728.19651 4.46589166,731.048467 9.418081,733.850969 C14.3702703,736.65347 17.0609599,737.279912 20.2303611,740.44509 C24.2578507,744.169747 29.6017938,746.144372 35.0869291,745.934696 C41.6898482,745.934696 51.3136028,746.214946 55.7210514,750.600036 C60.1284999,754.985127 69.4716304,762.139748 77.7252793,759.386703 C85.9789282,756.633657 90.3203476,744.54993 94.777318,736.851294 C99.2342884,729.152657 109.633886,718.437211 128.73283,712.12334 C147.831773,705.809469 184.19735,684.64234 196.577824,663.211446 C208.958297,641.780553 217.426541,629.251723 217.426541,629.251723 C217.426541,629.251723 245.885122,675.789732 280.765042,710.606692 C315.644963,745.423651 347.256438,761.925439 381.657647,752.034258 C416.058855,742.143076 443.840637,715.222577 443.840637,715.222577 L413.582761,690.494623 L366.536962,654.639089 L321.967258,599.001192 L300.507771,560.260731 L275.697302,551.589461 Z" id="Path" fill="#000000" fill-rule="nonzero"></path>
                <path d="M526.840637,631.096382 C507.563716,632.304911 488.471536,635.573131 469.890346,640.845195 C439.834162,649.490679 424.188478,648.123869 420.614674,648.123869 C417.04087,648.123869 408.625139,649.671823 382.653303,626.716003 C356.681466,603.760183 346.799981,604.879979 336.029163,600.005572 C327.901854,596.526995 321.584913,589.828925 318.588342,581.512469 C316.941427,576.440452 314.471056,566 311.868932,566 C309.266807,566 310.222018,570.396846 310.222018,572.718777 C310.222018,575.040707 310.222018,582.698136 311.177228,584.37783 C307.595862,583.650448 304.101448,582.546472 300.752261,581.084312 C297.820754,579.437553 293.209394,572.850517 289.767344,572.158878 C286.325293,571.46724 286.473515,572.718777 287.428726,574.349068 C292.075289,580.778622 297.165682,586.875513 302.662682,592.595157 C308.492758,598.424684 316.249723,603.16735 320.910491,607.827678 C325.571258,612.488005 331.055482,619.223249 338.334842,631.837423 C345.614203,644.451597 359.612973,667.374481 375.390411,683.1669 C391.167849,698.959318 404.079656,712.808561 437.429668,720.218976 C470.779679,727.629392 508.658705,718.160528 517.716733,715.690389" id="Path" fill="#FFFFFF" fill-rule="nonzero"></path>
                <path d="M679.730637,464.23 L679.950637,463.77 L679.730637,464.23 Z" id="Path" fill="#F4E800" fill-rule="nonzero"></path>
                <path d="M680.840637,464 C673.966694,478.454514 663.474017,490.431112 646.140444,507.760009 C638.869927,515.028565 627.815437,521.851096 617.008805,527.484226 C614.447601,519.984398 608.746855,512.748881 597.609745,509.164162 C573.782279,501.449581 561.075398,508.93289 536.339118,523.20569 C511.602837,537.47849 518.295017,572.218883 518.295017,572.218883 C490.898388,586.260411 479.083799,618.968911 463.353044,655.642079 C447.62229,692.315246 437.740997,709.875416 420.3909,727.220833 C409.333845,737.98256 396.223478,746.409584 381.840637,752 C402.776421,747.870139 421.217095,739.329586 444.350557,733.283469 C467.48402,727.237352 462.526849,732.176666 503.291314,721.174716 C544.05578,710.172766 552.181235,684 566.340637,668 C580.50004,652 628.888088,643.800275 627.50008,627 C626.112072,610.199725 591.892475,576.679133 599.328231,569.245383 C602.814774,565.776299 605.706457,562.934955 608.267661,560.077091 L608.267661,560.077091 C655.806926,512.534129 675.701704,474.803717 680.840637,464 Z" id="Path" fill="#F4E800" fill-rule="nonzero"></path>
                <path d="M680.090637,464 C681.110637,462.048193 681.590637,461 681.590637,461 C681.090637,462.012048 680.590637,463.006024 680.090637,464 Z" id="Path" fill="#F4E800" fill-rule="nonzero"></path>
                <path d="M596.546577,509.084552 C572.84808,501.387011 560.209977,508.853791 535.607585,523.095066 C511.005192,537.336341 517.66115,572 517.66115,572 C545.944863,553.703917 594.032104,535.93529 615.840637,527.364152 C613.293296,519.814957 607.590537,512.595422 596.546577,509.084552 Z" id="Path" fill="#0023FF" fill-rule="nonzero"></path>
                <path d="M597.215644,508.980553 C592.183276,507.308747 586.945644,506.306322 581.64237,506 C583.776609,507.211873 584.276821,508.980553 579.974996,510.438076 C577.040417,511.437052 573.688995,511.076766 571.738168,514.188332 C569.470539,517.791198 571.83821,521.26305 575.072916,523.52303 C580.658619,527.469806 587.594896,531.580348 588.59532,538 C599.750053,533.627431 609.687603,529.926305 616.840637,527.175026 C614.206186,519.64176 608.420398,512.468782 597.215644,508.980553 Z" id="Path" fill="#000000" fill-rule="nonzero"></path>
                <path d="M164.095431,155 C164.095431,155 184.602788,213.002312 185.739341,270.180025 C186.875893,327.357737 178.557648,385.046702 155.250089,458.188656 C131.942531,531.33061 131.678983,565.683416 131.678983,583 C131.678983,583 121.235879,554.122534 121.235879,510.138409 C121.235879,466.154285 121.400596,430.218249 111.02338,391.297164 C100.646163,352.376079 110.117432,328.248305 133.457934,302.075524 C156.798436,275.902744 188.028917,225.618681 164.095431,155 Z" id="Path" fill="#F4E800" fill-rule="nonzero"></path>
                <path d="M269.559674,287.589334 C258.862625,272.054178 250.033839,264.525476 244.296782,261 C241.383167,270.62293 236.253822,279.434615 229.317606,286.732677 L248.297842,309.236413 L248.496242,309.236413 C260.069556,311.213315 264.946882,324.557405 266.071147,330.240999 C267.311145,340.257303 267.724477,346.715183 257.192761,360.108696 C246.661045,373.502208 229.301072,382.56301 219.992821,384.408118 C210.684569,386.253227 179.205153,397.587466 172.261164,399.860904 C165.317175,402.134341 159.877717,410.865659 158.24092,413.66627 C156.604123,416.466882 146.981738,425.873641 145.94014,428.493037 C144.391907,432.815649 143.397558,437.315735 142.980678,441.886549 C142.588569,444.80834 143.023783,447.781176 144.237209,450.469599 C144.534809,450.996773 145.659074,450.469599 144.964675,446.41695 C144.270276,442.3643 147.510804,436.186481 147.510804,436.186481 C146.788503,437.888478 146.170131,439.632432 145.659074,441.408798 C145.245741,443.18801 146.072406,446.631114 146.072406,448.410326 C146.072406,450.189538 147.378537,454.818784 148.486269,454.176291 C149.594001,453.533798 149.180668,447.388927 149.180668,444.835428 C149.180668,442.693784 151.263865,438.608186 151.94173,437.372622 C151.015565,440.239511 150.459976,443.212354 150.288399,446.21926 C150.288399,448.970448 149.147601,455 150.288399,455 C151.429198,455 152.487329,449.234035 153.727327,444.983696 C154.967325,440.733356 154.206793,440.173234 162.886779,433.451766 C171.566765,426.730299 175.171026,417.587126 178.378488,415.742018 C181.585949,413.896909 232.525067,412.282439 254.299432,409.498302 C276.073797,406.714164 294.161235,389.581012 298.939361,374.737772 C303.717486,359.894531 288.854043,315.595448 269.559674,287.589334 Z" id="Path" fill="#FFFFFF" fill-rule="nonzero"></path>
                <path d="M269.559674,287.589334 C258.862625,272.054178 250.033839,264.525476 244.296782,261 C241.383167,270.62293 236.253822,279.434615 229.317606,286.732677 L248.297842,309.236413 L248.496242,309.236413 C260.069556,311.213315 264.946882,324.557405 266.071147,330.240999 C267.311145,340.257303 267.724477,346.715183 257.192761,360.108696 C246.661045,373.502208 229.301072,382.56301 219.992821,384.408118 C210.684569,386.253227 179.205153,397.587466 172.261164,399.860904 C165.317175,402.134341 159.877717,410.865659 158.24092,413.66627 C156.604123,416.466882 146.981738,425.873641 145.94014,428.493037 C144.391907,432.815649 143.397558,437.315735 142.980678,441.886549 C142.588569,444.80834 143.023783,447.781176 144.237209,450.469599 C144.534809,450.996773 145.659074,450.469599 144.964675,446.41695 C144.270276,442.3643 147.510804,436.186481 147.510804,436.186481 C146.788503,437.888478 146.170131,439.632432 145.659074,441.408798 C145.245741,443.18801 146.072406,446.631114 146.072406,448.410326 C146.072406,450.189538 147.378537,454.818784 148.486269,454.176291 C149.594001,453.533798 149.180668,447.388927 149.180668,444.835428 C149.180668,442.693784 151.263865,438.608186 151.94173,437.372622 C151.015565,440.239511 150.459976,443.212354 150.288399,446.21926 C150.288399,448.970448 149.147601,455 150.288399,455 C151.429198,455 152.487329,449.234035 153.727327,444.983696 C154.967325,440.733356 154.206793,440.173234 162.886779,433.451766 C171.566765,426.730299 175.171026,417.587126 178.378488,415.742018 C181.585949,413.896909 232.525067,412.282439 254.299432,409.498302 C276.073797,406.714164 294.161235,389.581012 298.939361,374.737772 C303.717486,359.894531 288.854043,315.595448 269.559674,287.589334 Z" id="Path" fill="url(#linearGradient-3)" fill-rule="nonzero"></path>
                <path d="M299.191552,374.654382 C298.417494,374.207258 295.66712,377.684888 294.810715,380.483552 C293.954311,383.282216 286.954855,390.320275 286.954855,390.320275 C288.256322,387.260802 289.222723,384.067971 289.836984,380.798194 C290.660449,375.929513 291.862709,370.86211 290.660449,370.133464 C289.45819,369.404818 286.757223,371.690117 285.40674,376.244156 C284.299088,380.540514 282.142278,384.490859 279.131933,387.736893 C276.200395,390.684598 268.608044,396.364727 266.401156,396.364727 C264.194269,396.364727 265.314182,393.052699 265.742384,392.290932 C267.445939,389.670127 269.339565,387.179339 271.407826,384.838869 C273.202981,383.033813 274.257017,380.483552 273.202981,379.870827 C272.148945,379.258101 266.615257,380.135789 263.173171,383.596858 C258.120546,389.27937 253.955711,395.700671 250.821189,402.64102 C248.663709,408.337708 243.969956,411.401334 226.825405,411.666297 C210.158463,411.931259 186.393249,414.017837 179.179692,415.889133 L160.075292,442.236316 L151.840637,472.822896 C165.329002,477.890299 194.397334,465.917318 218.854259,449.920222 C243.311184,433.923126 256.733671,423.258395 261.147446,418.803717 C266.426666,413.882453 272.22541,409.55661 278.440222,405.903368 C283.381014,403.038463 294.086066,392.787736 297.379928,384.242704 C300.67379,375.697671 299.965609,375.118066 299.191552,374.654382 Z" id="Path" fill="#FFFFFF" fill-rule="nonzero"></path>
                <path d="M218.840637,533 C218.840637,533 245.193579,533.753448 274.840637,552" id="Path" stroke="#765177" stroke-width="0.5"></path>
                <path d="M651.11056,323.542373 C592.83601,264.813559 557.693594,262.42594 543.840637,261 L543.840637,261 C549.269943,261.895357 547.410817,271.412675 554.649892,273.783714 C595.238067,287.048268 591.832411,314.62196 587.439609,332.57885 C586.008247,338.415254 592.177913,344.599853 589.923928,351 L589.923928,351 C589.923928,351 603.233954,334.518791 622.154262,331.202653 C641.074571,327.886514 653.183568,330.008843 671.840637,348.794768 C665.782852,339.702161 658.838298,331.242634 651.11056,323.542373 L651.11056,323.542373 Z" id="Path" fill="#FF0000" fill-rule="nonzero"></path>
                <path d="M244.913181,261 C244.913181,261 240.454636,276.190426 229.840637,286.651293 L248.057453,308 C248.057453,308 273.427904,292.284067 263.562542,278.719427 C253.930089,265.548917 244.913181,261 244.913181,261 Z" id="Path" fill="url(#linearGradient-4)" fill-rule="nonzero"></path>
                <path d="M246.104303,117.609763 C247.172037,118.916322 249.000219,119.35971 250.566188,118.691903 C252.132158,118.024095 253.04768,116.410654 252.800625,114.754117 C252.800625,113.441177 251.86314,111.668707 251.762695,110.224472 C251.901471,108.403271 251.86223,106.573232 251.645509,104.759357 C250.319226,101.524691 247.566433,99.0554231 244.16237,98.0469478 C240.077614,97.423301 240.579838,103.167416 241.416878,106.105121 C242.588735,110.20806 246.439119,113.391941 246.104303,117.823116 C246.472601,117.95441 246.840899,118.069292 246.104303,117.609763 Z" id="Path" fill="#FFFFFF" fill-rule="nonzero"></path>
                <path d="M188.791325,87.8156715 C185.353262,93.5006423 181.204444,102.603168 181.518498,118.524372 C181.650731,125.277329 182.212722,132.506772 181.154857,140.130547 C178.36143,160.257973 171.055544,166.895916 168.840637,168.473249 C169.292434,169.951998 169.749741,171.463609 170.212557,173.008081 C172.443993,175.324789 177.138272,178.216566 186.923531,180.648287 C206.758515,185.577453 214.196634,175.439803 214.196634,175.439803 C227.965419,179.268121 234.659726,173.024512 240.097817,163.659097 C245.535909,154.293683 254.395535,113.545915 240.097817,90.2638237 C225.8001,66.9817322 197.353427,73.7839806 188.791325,87.8156715 Z" id="Path" fill="#000000" fill-rule="nonzero"></path>
                <path d="M185.373998,94.4811694 C184.868354,99.7411963 189.239727,97.6305899 192.110479,98.9497189 C194.981232,100.268848 196.025141,103.401779 199.107938,104.110811 C202.516957,104.902288 204.36011,104.110811 206.708908,107.260232 C208.658948,109.723243 209.75875,112.763337 209.840637,115.917016 C209.840637,119.627066 208.633617,122.265324 204.947309,120.369076 C201.946068,118.819099 200.559625,117.302101 196.938563,118.093578 C190.153148,119.577598 184.36271,122.727019 178.294983,117.351568 C174.086721,113.625029 174.184588,104.86931 176.141919,100.038 C177.104273,97.6800572 182.111779,91.9913135 184.721554,94.7285061 C184.754176,94.2008545 184.96622,93.7886267 185.373998,94.4811694 Z" id="Path" fill="#FFFFFF" fill-rule="nonzero"></path>
                <path d="M104.840637,724.913173 C102.234552,723.406353 99.8037915,721.613571 97.5932107,719.567908 C90.7089807,713.262812 83.4285361,703.896187 79.9781667,694 C78.2393814,696.3349 76.3418434,698.546667 74.2990897,700.619523 C61.0919339,713.85857 56.1392504,721.934388 36.0478647,723.556171 C15.9564789,725.177954 2.81535888,722.31501 1.1644644,725.194503 C-0.486430074,728.073996 4.46625335,730.936939 9.41893678,733.750237 C14.3716202,736.563534 17.0625782,737.192389 20.2322956,740.36976 C24.260187,744.108766 29.6046634,746.090997 35.0903459,745.880513 C41.6939238,745.880513 51.3186386,746.161843 55.7265268,750.563826 C60.1344151,754.965808 69.4784778,762.147991 77.7329502,759.38434 C85.9874225,756.620689 90.329275,744.490413 94.7866901,736.76212 C97.4513273,732.275178 100.850082,728.269621 104.840637,724.913173 L104.840637,724.913173 Z" id="Path" fill="#0023FF" fill-rule="nonzero"></path>
                <path d="M377.287066,550.521941 C365.563504,547.611294 358.713782,543.303536 355.470044,537.631932 C352.226305,531.960328 346.842029,532.276341 341.88586,529.315797 C336.929691,526.355253 327.840637,529.315797 327.840637,529.315797 L334.262252,532.392767 C330.969116,532.392767 324.596899,534.455169 330.969116,536.534202 C336.030532,537.889972 341.243447,538.583116 346.479784,538.596604 L339.893513,552.451284 C346.578578,556.060486 353.839942,558.937869 360.113365,562.064736 C366.869819,565.356838 374.029077,567.728251 381.403485,569.116818 C383.399312,569.727891 385.476322,570.025204 387.561649,569.998328 C389.817446,569.632418 389.323476,569.482728 390.26202,567.37043 C391.180682,565.421479 392.283511,563.566689 393.555155,561.831884 C395.096273,559.515883 396.867268,557.364729 398.840637,555.411828 C390.097363,553.415956 382.160906,551.752729 377.287066,550.521941 Z" id="Path" fill="#0023FF" fill-rule="nonzero"></path>
                <path d="M488.593048,600.515609 C487.786314,600.054403 486.106991,601.948644 484.559379,602.854585 C483.011767,603.760526 478.665283,604.024073 476.327402,604.633524 C473.98952,605.242976 472.129093,606.28069 467.074659,603.39815 C462.020225,600.515609 437.571252,580.469599 427.264816,575.396328 C416.958381,570.323057 389.825783,562.219 384.063399,560.703607 C378.301015,559.188214 371.303834,554.526735 359.779066,546.83447 C348.254298,539.142204 324.727306,528.517984 324.727306,528.517984 C324.727306,528.517984 325.550504,528.517984 329.468925,520.183324 C333.387346,511.848664 336.054507,493.993384 335.708764,489.200131 C335.363021,484.406878 336.531962,468.676443 335.988651,463.800832 C335.445341,458.92522 336.943561,453.094253 335.165454,448.284528 C333.387346,443.474803 324.66145,438.121514 323.640685,437.495591 C322.61992,436.869668 321.385123,436.68848 321.385123,437.841496 C321.385123,438.994512 324.82609,442.568862 325.352936,443.112427 C324.776698,442.519447 320.644245,438.319174 317.269135,437.627364 C313.630601,436.886139 316.067266,439.159229 316.841072,440.509905 C319.042716,442.858731 321.432447,445.023717 323.986428,446.983267 C322.340033,446.077326 318.388684,444.463103 317.302063,443.375973 C316.215442,442.288844 313.16961,442.684164 315.194676,444.710178 C317.219743,446.736192 321.665011,455.597945 322.669312,457.343941 C323.673613,459.089937 322.669312,465.16798 321.714402,469.697686 C320.759493,474.227393 317.318527,479.992473 316.067266,487.684739 C314.816005,495.377004 309.152405,504.749378 309.152405,504.749378 L309.152405,504.749378 C312.047698,509.568304 314.159448,514.816791 315.408708,520.298625 C317.186815,528.534455 315.688595,539.784599 307.045019,540.608182 L305.398623,540.723484 C305.398623,540.723484 303.09367,540.723484 299.652703,540.723484 C298.352051,536.52321 296.969078,532.25705 295.783674,528.946247 C291.861366,518.419256 288.71923,507.617581 286.382756,496.62885 C284.11073,484.752783 281.064898,471.344852 279.171543,465.991563 C277.669496,461.834642 275.301208,458.044731 272.223754,454.873192 C270.396255,453.044838 268.091302,449.931694 266.856505,449.190469 C265.621709,448.449245 265.736956,449.832864 266.099163,451.28237 C266.831301,453.16396 267.706452,454.986667 268.716932,456.73449 C267.762023,455.087324 264.650335,451.891822 261.769143,447.889208 C258.887951,443.886595 256.599461,442.420617 256.270182,442.94771 C255.940903,443.474803 256.533606,444.594876 257.686082,447.559775 C259.193839,450.70751 260.938556,453.736038 262.905156,456.619188 C262.028181,456.089553 261.215957,455.45937 260.484955,454.741419 C259.348942,453.604874 252.59872,446.044382 251.956626,445.401988 C251.314532,444.759593 250.310231,444.446631 250.55719,446.044382 C250.804149,447.642133 251.874306,449.124583 253.487774,451.908293 C255.209706,454.608484 257.067017,457.219831 259.052591,459.732332 C255.963625,457.385685 253.152092,454.694414 250.672438,451.710633 C249.536425,449.750506 247.840637,448.877508 247.840637,449.701091 C247.840637,450.524674 249.898632,459.271125 259.365406,466.617486 C268.83218,473.963846 269.029747,483.352692 270.264544,489.809583 C272.221769,502.206965 273.365715,514.719235 273.689046,527.266138 C273.689046,537.972716 276.208032,556.536277 278.216634,560.011797 C281.861764,566.09193 286.162634,571.753617 291.042055,576.895249 C296.39284,582.248538 305.579727,587.058263 320.397286,593.086891 C332.057871,597.846586 343.422019,603.303049 354.428281,609.426777 C359.993097,612.721109 368.208611,618.28853 372.127032,620.545148 C376.045453,622.801765 398.337648,635.501415 398.337648,635.501415 C396.744106,635.923904 395.219381,636.572908 393.81006,637.428599 C391.175828,638.943992 389.611752,642.683059 388.870874,644.017263 C388.129996,645.351468 388.607451,644.47847 385.31466,645.153808 C382.021869,645.829146 379.832163,646.059749 378.53151,648.316366 C377.230858,650.572984 378.333943,652.681356 381.001104,654.213221 C383.668264,655.745085 387.866573,659.912415 392.048417,662.926729 C396.431827,665.792407 401.452813,667.534735 406.668409,668 C409.829488,668 413.484486,667.40702 414.702819,665.331591 C415.921152,663.256162 416.217503,660.390093 417.518155,660.390093 C418.818808,660.390093 422.111599,659.632397 421.551824,657.342836 C420.99205,655.053275 415.196738,653.669656 412.793,653.669656 L405.664108,653.669656 C408.216021,652.203678 412.019194,648.44814 414.850995,646.800974 C417.682795,645.153808 427.742271,640.904119 428.845356,633.491872 C429.948441,626.079625 424.597656,622.917067 422.128063,620.446318 C419.658469,617.975569 399.770012,601.586267 399.078526,600.268534 C398.38704,598.950802 394.896681,595.327036 401.482263,595.327036 C408.067845,595.327036 421.107297,601.223891 425.766597,603.019302 C430.425896,604.814712 447.038026,611.798696 454.29863,613.182316 C461.559234,614.565935 463.798332,615.817781 465.823399,617.777909 C467.848465,619.738036 472.952291,624.020668 475.701771,623.674763 C478.451252,623.328858 479.472017,618.535605 480.640958,614.483577 C481.809899,610.431549 485.958815,606.428935 487.012508,605.374749 C488.066201,604.320563 489.399782,600.976816 488.593048,600.515609 Z" id="Path" fill="#662EFF" fill-rule="nonzero"></path>
                <path d="M286.257693,496.831219 C288.594249,507.832516 291.732268,518.646344 295.64639,529.185305 C296.830254,532.490115 298.211428,536.786368 299.510389,541 L299.7077,541 C302.99621,541 305.18307,541 305.18307,541 L306.827325,540.884332 L306.827325,540.884332 C311.760091,540.421658 314.292244,536.637651 315.311682,531.961346 C316.058819,528.176455 316.014023,524.276729 315.180141,520.51018 C315.059563,519.948362 314.922542,519.370021 314.769078,518.775155 L314.769078,518.626438 C313.473044,513.802417 311.519826,509.181542 308.964857,504.894954 L308.964857,504.894954 C306.268228,500.296069 302.822169,496.184988 298.770475,492.733255 C294.475322,489.000949 289.357572,486.350092 283.840637,485 C284.69565,488.916199 285.517778,492.964591 286.257693,496.831219 Z" id="Path" fill="#662EFF" fill-rule="nonzero"></path>
                <path d="M273.662674,527.681179 C273.299298,515.165884 272.131959,502.688133 270.168122,490.327734 C269.909266,488.994858 269.715124,487.530339 269.456269,486 C264.085012,488.353103 258.746113,494.1289 257.095908,505.960233 C255.773136,514.918496 259.663908,523.846551 267.078032,528.865958 C269.122396,530.846054 271.392801,532.569702 273.840637,534 C273.743567,531.729174 273.662674,529.58999 273.662674,527.681179 Z" id="Path" fill="#F4E800" fill-rule="nonzero"></path>
                <path d="M296.840637,533 C296.794744,528.82458 296.047464,524.686916 294.63031,520.76148 C293.828043,518.573681 291.830562,516.172036 291.715952,513.81974 C291.601343,511.467443 292.616456,509.756683 291.87968,507.23989 C290.749957,503.390679 287.737363,500.331049 287.409907,496.103496 C287.180688,493.076765 290.193282,490.165182 290.045927,487.154901 C288.054575,486.229554 285.975699,485.507626 283.840637,485 C284.67565,488.849212 285.477917,492.879369 286.231066,496.745031 C288.52945,507.705766 291.626799,518.481899 295.498068,528.986292 C295.923761,530.269363 296.382199,531.601782 296.840637,533 Z" id="Path" fill="#F4E800" fill-rule="nonzero"></path>
                <path d="M354.304591,609.664474 C359.888006,612.953947 368.130978,618.513158 372.062495,620.766447 L383.014579,627 C392.311286,622.38139 400.160682,615.316843 405.711658,606.572368 C403.35479,604.680004 401.104777,602.659378 398.971914,600.519737 C398.212041,599.203947 394.776093,595.585526 401.383685,595.585526 C405.232608,595.585526 411.295074,597.592105 416.581147,599.615132 C422.494942,588.348684 424.361587,580.026316 424.840637,574.516447 C413.12868,569.450658 389.456981,562.444079 384.104832,561.046053 C378.323189,559.532895 371.302622,554.878289 359.739336,547.197368 C348.176049,539.516447 324.570426,528.907895 324.570426,528.907895 C324.570426,528.907895 325.396375,528.907895 329.327893,520.585526 C330.175623,518.708629 330.887748,516.773891 331.458841,514.796053 C325.16511,509.088816 314.741633,503.924342 310.611888,502 C309.60423,503.924342 308.860876,505.157895 308.860876,505.157895 L308.860876,505.157895 C311.765846,509.969714 313.884654,515.21046 315.138088,520.684211 C316.922138,528.907895 315.418911,540.141447 306.746446,540.963816 L305.094548,541.078947 C305.094548,541.078947 302.781891,541.078947 299.329424,541.078947 C298.486956,538.398026 297.677526,535.717105 296.80202,533.25 L296.80202,533.25 C288.973427,533.442167 281.224329,534.863152 273.840637,537.460526 C274.666586,547.148026 276.417598,557.740132 277.887788,560.273026 C281.545101,566.344192 285.860344,571.997529 290.756073,577.131579 C296.124742,582.476974 305.342333,587.279605 320.209415,593.299342 C331.893272,598.069862 343.278827,603.534744 354.304591,609.664474 L354.304591,609.664474 Z" id="Path" fill="#FF0000" fill-rule="nonzero"></path>
                <path d="M335.980604,600.049869 C327.862479,596.565096 321.55234,589.858903 318.557,581.532676 C316.911712,576.454052 314.443779,566 311.844224,566 C309.244668,566 310.198936,570.402574 310.198936,572.727529 C310.198936,575.052483 310.198936,582.719887 311.153203,584.40177 C307.575403,583.673321 304.084452,582.56791 300.738528,581.103961 C297.809914,579.455057 293.203107,572.859441 289.764455,572.166901 C286.325802,571.474362 286.473878,572.727529 287.428145,574.359944 C292.069781,580.798137 297.155169,586.902994 302.647062,592.629801 C308.471383,598.466921 316.220691,603.215765 320.876857,607.882164 C325.533023,612.548562 331.011833,619.29258 338.284007,631.923185 C340.801298,636.292781 344.108328,641.81661 348.024114,648 C351.146681,642.267006 354.585165,636.712605 358.323619,631.362558 C361.459534,626.696406 365.352268,622.588906 369.840637,619.210135 C351.742466,605.623165 345.046142,604.15564 335.980604,600.049869 Z" id="Path" fill="#0023FF" fill-rule="nonzero"></path>
                <path d="M337.409761,534.578125 C336.889315,534.578125 331.533753,533.3125 330.173877,534.578125 C328.814001,535.84375 331.852736,537.515625 335.008992,538.1875 C338.174816,538.937309 341.404865,539.428754 344.662434,539.65625 C346.360019,539.797667 348.009871,540.254598 349.514338,541 L350.840637,538.84375 C350.840637,538.84375 350.420923,536.703125 349.900476,536.421875 C349.38003,536.140625 341.925893,534 341.925893,534 L337.409761,534.578125 Z" id="Path" fill="#0023FF" fill-rule="nonzero"></path>
                <path d="M441.96249,274.755855 C441.96249,274.755855 426.827716,287.647472 420.60546,305.111404 C415.905216,318.648716 412.090093,332.477366 409.184235,346.509836 C407.401732,354.63106 404.232837,378.367482 398.868822,387.644164 C393.504808,396.920846 367.642006,432.756571 356.088744,437.923122 C344.535482,443.089673 340.376307,440.498144 337.80158,437.923122 C335.226853,435.3481 326.660935,427.408448 319.927034,424.519801 C319.927034,424.519801 318.969763,425.394649 322.419237,428.844518 C325.868711,432.294387 330.902633,436.239453 332.718145,439.375698 C328.228541,437.098561 323.530658,435.257885 318.689184,433.879016 C311.806741,432.096309 310.981508,432.096309 309.199005,432.096309 C307.416501,432.096309 312.499937,435.265567 319.646454,438.005654 C326.792972,440.745742 334.368611,448.602861 334.368611,448.602861 C330.83123,446.73793 327.12259,445.217821 323.293984,444.063559 C318.755203,442.95762 318.342586,442.95762 317.319297,442.95762 C316.296008,442.95762 317.715409,444.839367 321.131874,445.796747 C324.548338,446.754127 328.955083,451.491508 330.523025,453.076137 C332.090968,454.660766 342.90152,463.11212 355.824669,460.504085 C368.747818,457.89605 401.641605,433.565392 409.184235,429.141636 C416.726864,424.71788 428.032557,416.761722 443.711984,394.197265 C459.391411,371.632809 469.013627,355.786519 469.013627,355.786519 C469.013627,355.786519 474.245604,368.447044 486.624099,372.293071 C499.002594,376.139097 507.717055,374.603988 507.717055,374.603988 C507.717055,374.603988 512.668453,390.004601 521.564465,398.984165 C530.460476,407.96373 546.536015,413.014735 565.301814,392.381545 C584.067612,371.748355 590.867532,350.504422 595.274276,332.677346 C599.68102,314.85027 603.246027,279.311663 562.545535,266.106421 C521.845044,252.90118 514.682021,268.582404 484.42898,246.57917 C454.175938,224.575936 441.96249,274.755855 441.96249,274.755855 Z" id="Path" fill="#000000" fill-rule="nonzero"></path>
                <path d="M448.891093,388 L448.562317,387.405155 C438.699036,368.981494 437.564759,356.721084 437.433248,353.300727 C428.49054,361.562459 414.747701,360.058824 407.235169,358.423001 L406.840637,358.340383 L407.49819,354.672174 C408.057109,351.49967 408.550273,348.773298 408.961243,346.889623 L409.158509,345.997356 C412.017822,332.231364 415.757187,318.665 420.353333,305.382683 C426.254863,288.743556 440.326477,276.086583 441.723775,274.913417 C442.410493,272.306886 443.227999,269.736955 444.173157,267.213483 L444.173157,267.048249 L453.477519,263 L490.251119,309.480502 L490.251119,309.596167 C490.251119,309.910112 494.755351,341.86649 500.213033,356.258427 L500.213033,356.258427 C503.402161,364.635823 505.999492,371.030403 507.626933,374.896894 L507.840637,375.392597 L507.314596,375.392597 C500.245875,376.106254 493.106978,375.300822 486.371562,373.029742 C475.702779,369.72505 470.245097,359.810972 468.913554,356.985459 C467.269674,359.810972 460.05304,371.426966 449.186992,387.355585 L448.891093,388 Z M438.238749,351.284865 L438.238749,352.342366 C438.238749,352.474554 437.811341,365.197621 448.973287,386.397224 C461.138001,368.419696 468.5519,356.093192 468.69985,355.961005 L469.127259,355.267019 L469.439596,356.027098 C469.439596,356.159286 474.716451,368.568407 486.716777,372.319233 C493.17319,374.467103 499.994699,375.282031 506.772115,374.715135 C505.128235,370.799075 502.629537,364.586252 499.57192,356.539326 L499.57192,356.539326 C494.229309,342.494382 489.873027,311.925975 489.577128,309.810972 L453.411764,263.991408 L444.81427,267.659617 C443.88411,270.138616 443.083004,272.664618 442.414205,275.227363 L442.414205,275.359551 L442.315572,275.442168 C442.167623,275.574356 427.25763,288.47918 421.158834,305.647059 C416.575626,318.897032 412.847242,332.43029 409.996887,346.162591 L409.799622,347.054858 C409.388652,348.922009 408.895488,351.648381 408.336568,354.804362 L407.810527,357.695968 C415.438131,359.348315 429.065898,360.571051 437.54832,352.044944 L438.238749,351.284865 Z" id="Shape" fill="#FF0000" fill-rule="nonzero"></path>
                <path d="M489.422874,309.890863 L452.893269,264 L444.028137,267.828346 C443.067522,270.361925 442.243964,272.945269 441.561032,275.567192 C441.561032,275.567192 426.478795,288.399546 420.278137,305.783195 C415.593855,319.258165 411.791968,333.023268 408.896559,346.991317 C408.353795,349.472348 407.663006,353.43214 406.840637,357.983436 C414.373532,359.626503 428.567611,361.138124 437.366953,352.331285 C437.366953,352.331285 436.774848,365.1965 448.468927,387 C461.018269,368.597649 468.534716,356.159631 468.534716,356.159631 C468.534716,356.159631 473.748532,368.761956 486.084059,372.590302 C492.759825,374.825986 499.834465,375.621215 506.840637,374.923457 C505.195901,370.980096 502.580769,364.637857 499.422874,356.37323 C493.863664,341.864948 489.422874,309.890863 489.422874,309.890863 Z" id="Path" fill="#FF0000" fill-rule="nonzero"></path>
                <path d="M562.496678,266.491396 C526.267824,254.779085 516.566028,265.816002 493.575912,253 C492.046368,257.866357 490.799213,262.816451 489.840637,267.82571 C489.840637,270.428445 496.253409,301.051772 496.253409,301.051772 C496.253409,301.051772 498.864795,326.337844 499.707711,327.770996 C500.550627,329.204148 514.433947,346.352552 514.433947,346.352552 L542.018781,352.118106 C555.555018,352.118106 562.364456,340.867039 562.364456,340.867039 C564.017232,356.961171 583.999296,364.967054 584.081935,365 C588.981223,354.771878 592.73901,344.038554 595.287757,332.99294 C599.684142,315.086777 603.221083,279.669804 562.496678,266.491396 Z" id="Path" fill="#FF0000" fill-rule="nonzero"></path>
                <path d="M584.85773,365 L584.49349,364.851944 C583.682227,364.522929 564.973512,356.889795 562.622506,341.49192 C560.619183,344.206289 553.847622,352.020381 542.523054,352.020381 L514.658658,346.229728 L514.55932,346.114573 C513.996403,345.407192 500.618844,328.956471 499.774468,327.508808 C498.930093,326.061144 496.463191,303.243995 496.264515,300.661232 C496.016169,299.460329 489.840637,270.062891 489.840637,267.447227 C489.840637,266.229873 491.098923,261.195953 493.598937,252.493522 L493.747944,252 L494.211523,252.246761 C506.016226,258.827049 514.19508,259.057359 524.559377,259.369923 C537.691969,259.408425 550.733205,261.541248 563.185423,265.687 C603.202205,278.584365 601.1161,313.097976 596.298192,332.526277 C593.728529,343.609512 589.953561,354.382247 585.039851,364.654535 L584.85773,365 Z M563.201979,339.057214 L563.317874,340.291018 C564.129137,348.516378 569.940428,354.455088 574.592772,358.057796 C577.657984,360.390867 580.992926,362.351448 584.526603,363.897802 C589.342474,353.802894 593.039707,343.217746 595.553155,332.328869 C600.304838,313.18023 602.374386,279.16014 562.986746,266.525986 C550.60851,262.40941 537.645615,260.293264 524.592489,260.258262 C514.261305,259.945698 506.065895,259.698937 494.327418,253.283156 C492.83831,257.947828 491.643924,262.700375 490.751239,267.51303 C490.751239,270.046441 497.092334,300.299316 497.15856,300.611879 C498.168499,310.367157 499.989701,326.176299 500.569175,327.179793 C501.148648,328.183287 510.353998,339.616538 515.188463,345.571699 L542.672062,351.29655 C555.751606,351.29655 562.539724,340.35682 562.539724,340.241665 L563.201979,339.057214 Z" id="Shape" fill="#FF0000" fill-rule="nonzero"></path>
                <path d="M438.565647,277.379605 C438.565647,277.379605 443.107175,293.929315 453.428832,304.190792 C463.750488,314.452269 472.420679,319.509125 485.632399,317.604595 C498.844119,315.700064 505.16923,301.186231 506.556461,293.256162 C507.943691,285.326093 509.67773,268.628617 502.972782,257.135763 C496.267834,245.642909 472.701428,238.796451 465.269836,240.175594 C457.838243,241.554736 444.395318,241.209951 440.250141,251.668448 C436.104964,262.126945 438.565647,277.379605 438.565647,277.379605 Z" id="Path" fill="#000000" fill-rule="nonzero"></path>
                <path d="M510.264781,261.613512 C508.049856,254.339888 503.537361,250.489145 496.776882,247.691598 C494.859485,238.920463 486.379961,234.049438 477.900436,233.0127 C473.351109,232.894019 468.81856,233.607987 464.528243,235.119089 C460.246438,234.407849 455.863424,234.581497 451.651928,235.62923 C446.825376,237.028004 442.081471,240.385061 440.296308,245.223173 C432.643248,245.996613 429.006805,260.148913 431.750667,266.138957 C432.725895,268.261802 433.502771,268.854224 433.139127,271.075806 C432.775482,273.297388 431.949018,275.206303 432.511014,277.543078 C433.486242,281.574838 437.750798,287.252214 442.544291,284.536947 C444.742686,283.302735 448.82542,279.419081 449.05683,276.193673 C450.709759,279.221607 458.32976,278.151956 460.627331,277.724096 C464.607024,276.831317 468.286107,274.926204 471.305251,272.194825 C470.974665,278.151956 475.768158,278.530448 480.13189,280.998872 C482.030526,281.984899 483.680547,283.385713 484.958442,285.096457 C486.33485,287.384861 488.407486,289.177425 490.875927,290.214324 C492.771541,290.859493 494.779748,291.111509 496.776882,290.954851 C498.942219,290.65864 500.08274,289.144673 501.917491,288.206672 C504.545647,286.873723 507.058099,286.774986 508.89285,283.977438 C512.975584,277.954482 512.198707,268.146609 510.264781,261.613512 Z" id="Path" fill="#FF9FED" fill-rule="nonzero"></path>
                <path d="M554.840637,368.039613 C554.840637,368.039613 516.699326,320.732022 503.233785,307.370712 C503.233785,307.370712 501.376469,305.182222 506.550421,300.788786 C511.724373,296.395351 514.361098,284.333972 515.190257,280.91137 C516.019416,277.488769 515.671169,276.172384 515.041009,275.810378 C514.410848,275.448372 512.769113,279.545621 511.591707,282.392304 C510.414302,285.238987 507.263498,286.851558 507.661494,286.851558 C508.05949,286.851558 512.354534,278.492513 513.250025,273.407975 C514.145517,268.323437 514.145517,266.069128 513.531939,265.460299 C512.918362,264.851471 511.740956,267.319693 511.110795,269.228452 C510.345339,271.994164 509.375356,274.700093 508.208739,277.324221 C507.628328,277.900139 504.577023,282.425213 503.930279,283.560595 C504.040074,279.920904 503.857079,276.278321 503.383034,272.667508 C502.620208,268.076615 502.487542,265.476754 501.177471,264.160369 C499.8674,262.843984 499.8674,269.985373 499.8674,272.667508 C499.8674,275.349643 499.237239,281.42147 498.341748,282.951767 C497.446256,284.482065 489.85116,289.665332 489.85116,300.163503 C489.773748,304.574527 490.123602,308.982728 490.8959,313.327355 C490.8959,315.318388 496.252267,355.385861 507.661494,375" id="Path" fill="#000000" fill-rule="nonzero"></path>
                <path d="M651.11056,323.553897 C592.83601,264.814262 557.693594,262.426202 543.840637,261 L543.840637,261 C550.223491,262.081059 556.515509,263.649986 562.662231,265.693201 C603.250406,278.960199 599.680226,314.615257 595.287424,332.575456 C593.808182,338.803997 592.018074,344.95333 589.923928,351 L589.923928,351 C589.923928,351 603.233954,334.515755 622.154262,331.199005 C641.074571,327.882255 653.183568,330.004975 671.840637,348.794362 C665.781964,339.705849 658.837436,331.250353 651.11056,323.553897 L651.11056,323.553897 Z" id="Path" fill="url(#linearGradient-5)" fill-rule="nonzero"></path>
            </g>
        </g>
    </g>
</svg>