<?xml version="1.0" encoding="UTF-8"?>
<svg width="16px" height="16px" viewBox="0 0 16 16" version="1.1" xmlns="http://www.w3.org/2000/svg" xmlns:xlink="http://www.w3.org/1999/xlink">
    <!-- Generator: Sketch 58 (84663) - https://sketch.com -->
    <title>Shape</title>
    <desc>Created with Sketch.</desc>
    <g id="Page-1" stroke="none" stroke-width="1" fill="none" fill-rule="evenodd">
        <g id="Mobile-menu" transform="translate(-284.000000, -32.000000)" fill="#000000" fill-rule="nonzero">
            <g id="M-Header" transform="translate(20.000000, 20.000000)">
                <path d="M278.675676,12.2384106 C279,11.9205298 279.432432,11.9205298 279.756757,12.2384106 C280.081081,12.5562914 280.081081,12.9801325 279.756757,13.2980132 L272.945946,19.9735099 L279.756757,26.6490066 C280.081081,26.9668874 280.081081,27.3907285 279.756757,27.7615894 C279.432432,28.0794702 279,28.0794702 278.675676,27.7615894 L271.972973,21.2450331 L265.324324,27.7615894 C265,28.0794702 264.567568,28.0794702 264.243243,27.7615894 C263.918919,27.4437086 263.918919,27.0198675 264.243243,26.7019868 L271.054054,20.0264901 L264.243243,13.3509934 C263.918919,13.0331126 263.918919,12.6092715 264.243243,12.2384106 C264.567568,11.9205298 265,11.9205298 265.324324,12.2384106 L271.918919,18.807947 L278.675676,12.2384106 Z" id="Shape"></path>
            </g>
        </g>
    </g>
</svg>