<?xml version="1.0" encoding="UTF-8"?>
<svg width="120px" height="184px" viewBox="0 0 120 184" version="1.1" xmlns="http://www.w3.org/2000/svg" xmlns:xlink="http://www.w3.org/1999/xlink">
    <!-- Generator: Sketch 58 (84663) - https://sketch.com -->
    <title>Niche logo</title>
    <desc>Created with Sketch.</desc>
    <defs>
        <path d="M52.2277228,0.495339109 C22.2772277,3.96069307 0,31.1883663 0,62.1289604 L0,183.168564 L118.811881,183.168564 L118.811881,61.1388614 C118.811881,25.0002475 88.1188119,-3.96009901 52.2277228,0.495339109 Z M44.5544554,168.317079 L14.8514851,168.317079 L14.8514851,121.287376 C14.8514851,113.119059 21.5346535,106.435891 29.7029703,106.435891 C37.8712871,106.435891 44.5544554,113.119059 44.5544554,121.287376 L44.5544554,168.317079 Z" id="path-1"></path>
    </defs>
    <g id="Page-1" stroke="none" stroke-width="1" fill="none" fill-rule="evenodd">
        <g id="Niche" transform="translate(-659.000000, -180.000000)">
            <g id="Niche-logo" transform="translate(658.881188, 180.000000)">
                <g id="Clipped" transform="translate(0.475248, 0.000000)">
                    <mask id="mask-2" fill="white">
                        <use xlink:href="#path-1"></use>
                    </mask>
                    <g id="Shape"></g>
                    <path d="M180.852475,179.066584 L60.2138614,170.635396 L181.062871,170.635396 C182.326238,170.635396 183.168317,169.792327 183.168317,168.527723 C183.168317,167.262871 182.326238,166.419802 181.062871,166.419802 L60.0034653,166.419802 L180.641832,157.988614 C181.694554,157.988614 182.747277,156.934653 182.536634,155.67005 C182.536634,154.616089 181.483911,153.562129 180.220792,153.77302 L59.5824257,162.204208 L179.378713,145.341832 C180.431436,145.130941 181.273515,144.07698 181.062871,143.023267 C180.852475,141.969307 179.799752,141.126238 178.74703,141.336881 L58.9507426,158.199257 L177.483911,132.694802 C178.536634,132.484158 179.378713,131.430198 179.168069,130.165594 C178.957673,129.111634 177.90495,128.268564 176.641584,128.479208 L58.3190594,153.77302 L174.536139,120.469554 C175.588861,120.04802 176.220545,118.994059 176.009901,117.940347 C175.588861,116.886386 174.536139,116.25396 173.483663,116.464851 L57.2663366,149.768069 L170.957178,108.455198 C172.009901,108.033663 172.641337,106.768812 172.220297,105.715099 C171.799257,104.661139 170.536139,104.028713 169.483416,104.450248 L55.7925743,145.97401 L166.325248,96.6514851 C167.37797,96.2299505 167.79901,94.965099 167.37797,93.9113861 C166.956931,92.8574257 165.693564,92.4358911 164.640842,92.8574257 L54.1084158,142.17995 L160.851238,85.2693069 C161.90396,84.6368812 162.325,83.3722772 161.693317,82.5292079 C161.061881,81.4752475 159.798515,81.0537129 158.956436,81.6858911 L52.2136139,138.596782 L154.745545,74.5195545 C155.798267,73.8871287 156.008911,72.6225248 155.377228,71.5685644 C154.745545,70.514604 153.482426,70.3039604 152.429703,70.9361386 L49.8975248,134.802723 L147.797772,63.5589109 C148.640099,62.9264851 148.850495,61.6618812 148.219059,60.6079208 C147.587376,59.7648515 146.32401,59.5539604 145.271535,60.1863861 L47.3710396,131.430198 L140.007921,53.6522277 C140.85,52.8091584 141.060644,51.5443069 140.218564,50.7012376 C139.376485,49.8581683 138.113119,49.6472772 137.27104,50.4905941 L44.6341584,128.268564 L131.586386,44.1670792 C132.428713,43.3240099 132.428713,42.0591584 131.586386,41.2160891 C130.744307,40.3730198 129.481188,40.3730198 128.638861,41.2160891 L41.6866337,125.317574 L122.533168,35.3143564 C123.375495,34.4712871 123.164851,33.2064356 122.322772,32.3633663 C121.480693,31.520297 120.217327,31.7309406 119.375248,32.5742574 L38.5284653,122.577475 L113.059158,27.0938119 C113.690594,26.2507426 113.690594,24.7752475 112.638119,24.1429208 C111.795792,23.5105693 110.32203,23.5105693 109.690347,24.5644802 L35.159901,120.04802 L102.742574,19.7165347 C103.374257,18.6626238 103.163861,17.3979455 102.111139,16.7655941 C101.058416,16.1332673 99.795297,16.3440347 99.1636139,17.3979455 L31.5806931,117.729455 L92.4262376,12.55 C93.0579208,11.4960891 92.6368812,10.2314109 91.5841584,9.59905941 C90.5314356,8.96670792 89.2683168,9.38829208 88.6366337,10.4421782 L28.2121287,115.410891 L81.2678218,6.64814356 C81.6888614,5.59423267 81.2678218,4.32955446 80.215099,3.90799505 C79.1623762,3.48643564 77.8992574,3.90799505 77.4782178,4.96188119 L24.4225248,113.303218 L69.6881188,0.957056931 C70.1091584,-0.0968462871 69.6881188,-1.3615297 68.425,-1.78308911 C67.3722772,-2.20465099 66.1089109,-1.78308911 65.6878713,-0.518405941 L20.6327723,111.827723 L58.1086634,-3.25856436 C58.529703,-4.3124505 57.8980198,-5.57712871 56.845297,-5.99871287 C55.7925743,-6.42027228 54.5294554,-5.78792079 54.1084158,-4.7340099 L16.6325248,110.562871 L45.8972772,-6.84183168 C46.1079208,-7.89571782 45.4762376,-9.16042079 44.4235149,-9.37118812 C43.3707921,-9.5819802 42.1076733,-8.94962871 41.8970297,-7.89571782 L12.4217574,109.509158 L33.475495,-9.79274752 C33.6861386,-10.8466584 32.8440594,-12.1113366 31.7913366,-12.3221287 C30.7386139,-12.532896 29.475495,-11.6897772 29.2648515,-10.6358663 L8.42153465,108.876733 L21.0538366,-11.4789851 C21.2643812,-12.532896 20.422203,-13.5868069 19.1589851,-13.7975743 C17.8957426,-14.0083663 17.0536139,-13.1652475 16.8430693,-11.9005693 L4.21076733,108.455198 L8.42153465,-12.7436881 C8.42153465,-14.0083663 7.57938119,-14.8514851 6.31616337,-14.8514851 C5.26346535,-14.8514851 4.21076733,-14.0083663 4.21076733,-12.7436881 L0,108.244307 L-4.21076485,-12.7436881 C-4.21076485,-14.0083663 -5.26344059,-14.8514851 -6.31613861,-14.8514851 C-7.57938119,-14.8514851 -8.42153465,-13.7975743 -8.42153465,-12.7436881 L-4.21076485,108.244307 L-16.8430693,-12.1113366 C-17.0536139,-13.1652475 -17.8957426,-14.0083663 -19.1589851,-14.0083663 C-20.2116584,-13.7975743 -21.0538119,-12.7436881 -21.0538119,-11.6897772 L-8.42153465,108.665842 L-29.4752475,-10.425099 C-29.6858911,-11.4789851 -30.7386139,-12.3221287 -32.0017327,-12.1113366 C-33.0544554,-11.9005693 -33.8967822,-10.8466584 -33.6861386,-9.5819802 L-12.632302,109.719802 L-41.6866337,-7.89571782 C-42.1076733,-9.16042079 -43.160396,-9.79274752 -44.2131188,-9.5819802 C-45.2658416,-9.37118812 -46.1079208,-8.1065099 -45.6868812,-7.05259901 L-16.4219802,110.352228 L-53.8977723,-4.7340099 C-54.3188119,-5.78792079 -55.3715347,-6.42027228 -56.634901,-5.99871287 C-57.6873762,-5.57712871 -58.3190594,-4.52324257 -57.8980198,-3.25856436 L-20.422203,111.827723 L-65.8985149,-0.518405941 C-66.3195545,-1.57230941 -67.5826733,-2.20465099 -68.635396,-1.78308911 C-69.6881188,-1.3615297 -70.319802,-0.0968462871 -69.8987624,0.957056931 L-24.6329703,113.303218 L-77.4779703,4.54032178 C-77.8992574,3.48641089 -79.1623762,3.06485149 -80.215099,3.48643564 C-81.2678218,3.90799505 -81.6888614,5.17267327 -81.2678218,6.22658416 L-28.2121287,114.989356 L-88.6366337,10.4421782 C-89.2683168,9.38829208 -90.5314356,9.1775 -91.5841584,9.59905941 C-92.6368812,10.2314109 -92.8472772,11.4960891 -92.4262376,12.55 L-32.0017327,117.518812 L-99.5846535,16.9763861 C-100.216337,15.9224752 -101.479455,15.7117079 -102.532178,16.3440347 C-103.584901,16.9763861 -103.795297,18.2410644 -103.163861,19.2949752 L-35.5809406,119.626485 L-109.90099,24.3537129 C-110.532673,23.5105693 -112.006436,23.299802 -112.848515,23.9321287 C-113.690594,24.5644802 -113.901238,26.0398515 -113.269554,26.8831683 L-38.7391089,122.366584 L-119.585644,32.3633663 C-120.42797,31.520297 -121.691089,31.520297 -122.533168,32.1524752 C-123.375495,32.9957921 -123.375495,34.260396 -122.743812,35.1034653 L-41.8970297,125.106931 L-128.849505,41.0054455 C-129.691584,40.1621287 -130.954703,40.1621287 -131.79703,41.0054455 C-132.639109,41.8485149 -132.639109,43.1131188 -131.79703,43.9561881 L-44.8445545,128.057673 L-137.481436,50.279703 C-138.323762,49.4366337 -139.797525,49.6472772 -140.42896,50.4905941 C-141.271287,51.3336634 -141.060644,52.8091584 -140.218564,53.4413366 L-47.5816832,131.219554 L-145.271535,60.1863861 C-146.113614,59.5539604 -147.587376,59.7648515 -148.219059,60.6079208 C-148.850495,61.4509901 -148.640099,62.9264851 -147.797772,63.5589109 L-49.8975248,134.802723 L-152.429703,70.514604 C-153.482426,69.8821782 -154.745545,70.3039604 -155.377228,71.1470297 C-156.008911,72.2009901 -155.587871,73.4655941 -154.745545,74.0980198 L-52.2133663,138.175248 L-158.956436,81.2643564 C-160.009158,80.6321782 -161.272277,81.0537129 -161.693317,82.1076733 C-162.325,83.1613861 -161.90396,84.4262376 -160.851238,84.8477723 L-54.1084158,141.758416 L-164.640842,92.8574257 C-165.693564,92.4358911 -166.956931,92.8574257 -167.37797,93.9113861 C-167.79901,94.965099 -167.37797,96.2299505 -166.325248,96.6514851 L-55.7925743,145.97401 L-169.483416,104.450248 C-170.536139,104.028713 -171.799257,104.661139 -172.220297,105.715099 C-172.641337,106.768812 -172.009901,108.033663 -170.957178,108.455198 L-57.2663366,149.768069 L-173.483663,116.464851 C-174.536139,116.043317 -175.799505,116.886386 -176.009901,117.940347 C-176.431188,118.994059 -175.588861,120.258911 -174.536139,120.469554 L-58.3190594,153.77302 L-176.641584,128.690099 C-177.90495,128.479208 -178.957673,129.111634 -179.168069,130.376238 C-179.378713,131.430198 -178.74703,132.694802 -177.483663,132.905693 L-59.1611386,157.988614 L-178.957673,141.126238 C-180.010149,140.915347 -181.062871,141.758416 -181.273515,142.812376 C-181.483911,143.866337 -180.641832,144.920297 -179.589109,145.130941 L-59.7928218,161.993317 L-180.431436,153.77302 C-181.694554,153.77302 -182.536634,154.616089 -182.747277,155.67005 C-182.747277,156.72401 -181.905198,157.777723 -180.852475,157.988614 L-60.2138614,166.419802 L-181.062871,166.419802 C-182.326238,166.419802 -183.168317,167.262871 -183.168317,168.527723 C-183.168317,169.792327 -182.326238,170.635396 -181.062871,170.635396 L-60.0034653,170.635396 L-180.852475,179.066584 C-181.905198,179.066584 -182.957673,180.120545 -182.747277,181.385149 C-182.747277,182.439109 -181.694554,183.282178 -180.641832,183.282178 C-180.641832,183.282178 -180.641832,183.282178 -180.431436,183.282178 L-59.7928218,174.85099 L-179.589109,191.713366 C-180.641832,191.924257 -181.483911,192.978218 -181.273515,194.032178 C-181.062871,195.085891 -180.220792,195.92896 -179.168069,195.92896 L-178.957673,195.92896 L-59.1611386,179.066584 L-177.483663,204.149505 C-178.536386,204.360396 -179.378713,205.414109 -179.168069,206.67896 C-178.957673,207.732673 -178.115347,208.365099 -177.062624,208.365099 C-176.852228,208.365099 -176.852228,208.365099 -176.641584,208.365099 L-58.3190594,183.282178 L-174.536139,216.374752 C-175.588861,216.796287 -176.220545,217.850248 -176.009901,218.904208 C-175.799505,219.747277 -174.957426,220.379703 -173.904703,220.379703 C-173.694059,220.379703 -173.483663,220.379703 -173.27302,220.379703 L-57.0559406,187.076238 L-170.746535,228.6 C-171.799257,229.021535 -172.430941,230.286386 -172.009901,231.340099 C-171.799257,232.183416 -170.957178,232.815594 -170.114851,232.815594 C-169.904455,232.815594 -169.693812,232.815594 -169.483416,232.60495 L-55.7925743,191.081188 L-166.325248,240.193069 C-167.37797,240.614604 -167.79901,241.879208 -167.37797,242.933168 C-166.956931,243.776238 -166.325248,244.197772 -165.483168,244.197772 C-165.272525,244.197772 -164.851485,244.197772 -164.640842,243.987129 L-54.1084158,194.664356 L-160.851238,251.574257 C-161.90396,252.207921 -162.325,253.472772 -161.693317,254.314356 C-161.272277,254.94802 -160.640842,255.368812 -159.798515,255.368812 C-159.377475,255.368812 -159.166832,255.368812 -158.745792,255.158416 L-52.0029703,198.247772 L-154.535149,262.324257 C-155.587871,262.957921 -155.798267,264.222772 -155.166832,265.274752 C-154.745545,265.908416 -154.114109,266.329208 -153.482426,266.329208 C-153.061386,266.329208 -152.640347,266.329208 -152.429703,265.908416 L-49.8975248,201.830941 L-147.797772,273.074257 C-148.640099,273.707921 -148.850495,274.972772 -148.219059,276.024752 C-147.797772,276.658416 -147.166337,276.868812 -146.534653,276.868812 C-146.113614,276.868812 -145.692574,276.658416 -145.271535,276.44802 L-47.3710396,205.203465 L-140.007921,282.982673 C-140.85,283.824257 -141.060644,285.089109 -140.218564,285.933168 C-139.797525,286.35396 -139.165842,286.774752 -138.534158,286.774752 C-138.113119,286.774752 -137.481436,286.564356 -137.27104,286.35396 L-44.6341584,208.57599 L-131.79703,292.888614 C-132.639109,293.730198 -132.639109,294.99505 -131.79703,295.839109 C-131.37599,296.259901 -130.744307,296.470297 -130.323267,296.470297 C-129.902228,296.470297 -129.270545,296.259901 -128.849505,295.839109 L-41.8970297,211.737624 L-122.743812,301.740099 C-123.585891,302.584158 -123.375495,303.84901 -122.533168,304.693069 C-122.112129,305.113861 -121.691089,305.324257 -121.059406,305.324257 C-120.42797,305.324257 -120.006931,305.113861 -119.585644,304.693069 L-38.7391089,214.688614 L-113.269554,310.173267 C-113.901238,311.014851 -113.901238,312.490099 -112.848515,313.123762 C-112.427475,313.334158 -112.006436,313.544554 -111.585396,313.544554 C-110.953713,313.544554 -110.32203,313.334158 -109.90099,312.700495 L-35.3705446,217.217822 L-102.953218,317.549505 C-103.584901,318.60396 -103.374257,319.868812 -102.321535,320.5 C-101.900495,320.710396 -101.479455,320.920792 -101.058416,320.920792 C-100.426733,320.920792 -99.7950495,320.5 -99.3740099,320.079208 L-31.7913366,219.747277 L-92.2158416,324.715347 C-92.8472772,325.769802 -92.4262376,327.034653 -91.3735149,327.665842 C-90.9524752,327.878713 -90.7420792,327.878713 -90.3210396,327.878713 C-89.6893564,327.878713 -88.8472772,327.455446 -88.4259901,326.824257 L-28.0014851,221.855198 L-81.0571782,330.618812 C-81.4782178,331.670792 -81.0571782,332.935644 -80.0044554,333.358911 C-79.7940594,333.569307 -79.3730198,333.569307 -79.1623762,333.569307 C-78.320297,333.569307 -77.6886139,333.14604 -77.2675743,332.304455 L-24.4224257,223.330446 L-69.6881188,335.675743 C-70.1091584,336.730198 -69.6881188,337.99505 -68.425,338.415842 C-68.2143564,338.415842 -68.0039604,338.628713 -67.5826733,338.628713 C-66.7405941,338.628713 -65.8985149,338.205446 -65.6878713,337.363861 L-20.422203,225.016832 L-57.8980198,340.10396 C-58.3190594,341.155941 -57.6873762,342.420792 -56.634901,342.844059 C-56.4242574,342.844059 -56.2136139,342.844059 -56.0032178,342.844059 C-55.1611386,342.844059 -54.3188119,342.210396 -54.1084158,341.368812 L-16.6325248,226.281436 L-45.8972772,343.685644 C-46.1079208,344.740099 -45.4762376,346.00495 -44.4235149,346.215347 C-44.2131188,346.215347 -44.0024752,346.215347 -44.0024752,346.215347 C-43.160396,346.215347 -42.1076733,345.584158 -41.8970297,344.529703 L-12.632302,227.124505 L-33.6861386,346.425743 C-33.8967822,347.480198 -33.0544554,348.74505 -32.0017327,348.955446 C-31.7913366,348.955446 -31.7913366,348.955446 -31.5806931,348.955446 C-30.5279703,348.955446 -29.6858911,348.324257 -29.4752475,347.269802 L-8.42153465,227.967822 L-21.0538119,348.324257 C-21.2643812,349.376238 -20.422203,350.430693 -19.1589851,350.641089 L-18.9484406,350.641089 C-17.8957673,350.641089 -17.0536139,349.799505 -16.8430693,348.74505 L-4.21076485,228.389356 L-8.42153465,349.376238 C-8.42153465,350.641089 -7.57938119,351.485149 -6.31613861,351.485149 C-5.26344059,351.485149 -4.21076485,350.641089 -4.21076485,349.376238 L0,228.389356 L4.21076733,349.376238 C4.21076733,350.430693 5.26346535,351.485149 6.31616337,351.485149 C7.57938119,351.485149 8.42153465,350.430693 8.42153465,349.376238 L4.21076733,228.389356 L16.8430693,348.74505 C17.0536139,349.799505 17.8957673,350.641089 18.9484406,350.641089 L19.1589851,350.641089 C20.2116584,350.430693 21.0538366,349.589109 21.0538366,348.324257 L8.42153465,227.967822 L29.475495,347.269802 C29.6858911,348.324257 30.5279703,348.955446 31.5806931,348.955446 C31.7913366,348.955446 31.7913366,348.955446 32.0017327,348.955446 C33.0544554,348.74505 33.8967822,347.690594 33.6861386,346.425743 L12.632302,227.124505 L41.8970297,344.529703 C42.1076733,345.584158 42.9497525,346.215347 44.0024752,346.215347 C44.2131188,346.215347 44.4235149,346.215347 44.4235149,346.215347 C45.4762376,346.00495 46.3183168,344.740099 45.8972772,343.685644 L16.6325248,226.281436 L54.1084158,341.368812 C54.3188119,342.210396 55.1611386,342.844059 56.0032178,342.844059 C56.2138614,342.844059 56.4242574,342.844059 56.634901,342.844059 C57.6873762,342.420792 58.3190594,341.368812 57.8980198,340.10396 L20.422203,225.016832 L65.6878713,337.363861 C66.1089109,338.205446 66.7405941,338.628713 67.5829208,338.628713 C67.7933168,338.628713 68.2143564,338.628713 68.425,338.415842 C69.4777228,337.99505 70.1091584,336.730198 69.6881188,335.675743 L24.4225248,223.330446 L77.4782178,332.094059 C77.8992574,332.935644 78.5306931,333.358911 79.3730198,333.358911 C79.5834158,333.358911 80.0044554,333.358911 80.215099,333.14604 C81.2678218,332.725248 81.6888614,331.460396 81.2678218,330.405941 L28.2121287,221.644307 L88.6366337,326.613861 C89.0576733,327.24505 89.6893564,327.665842 90.5314356,327.665842 C90.9524752,327.665842 91.1631188,327.665842 91.5841584,327.455446 C92.6368812,326.824257 92.8472772,325.559406 92.4262376,324.50495 L32.0017327,219.536386 L99.5846535,319.868812 C100.005693,320.5 100.637376,320.710396 101.269059,320.710396 C101.690099,320.710396 102.111139,320.5 102.532178,320.289604 C103.584901,319.658416 103.795297,318.393564 103.163861,317.339109 L35.5809406,217.007178 L110.111634,312.490099 C110.532673,313.123762 111.164356,313.334158 111.795792,313.334158 C112.216832,313.334158 112.638119,313.123762 113.059158,312.913366 C113.901238,312.279703 114.111881,310.804455 113.480198,309.960396 L38.949505,214.477723 L119.796287,304.480198 C120.217327,304.903465 120.84901,305.113861 121.27005,305.113861 C121.691089,305.113861 122.322772,304.903465 122.743812,304.480198 C123.585891,303.638614 123.585891,302.373762 122.954455,301.529703 L42.1076733,211.526733 L129.059901,295.628713 C129.480941,296.049505 129.902228,296.259901 130.533663,296.259901 C131.165347,296.259901 131.586386,296.049505 132.007426,295.628713 C132.849752,294.784653 132.849752,293.519802 132.007426,292.678218 L45.055198,208.57599 L137.692079,286.35396 C138.113119,286.774752 138.534158,286.774752 138.955198,286.774752 C139.586881,286.774752 140.218564,286.564356 140.639604,285.933168 C141.481683,285.089109 141.271287,283.613861 140.42896,282.982673 L47.7920792,205.203465 L145.692574,276.44802 C146.113614,276.658416 146.534653,276.868812 146.955693,276.868812 C147.587376,276.868812 148.219059,276.658416 148.640099,276.024752 C149.271782,275.183168 149.061139,273.707921 148.219059,273.074257 L50.3185644,201.830941 L152.850743,265.908416 C153.27203,266.118812 153.482426,266.329208 153.903465,266.329208 C154.535149,266.329208 155.377228,265.908416 155.587871,265.274752 C156.219307,264.222772 155.798267,262.957921 154.956188,262.324257 L52.4240099,198.247772 L159.167079,255.158416 C159.377475,255.368812 159.798515,255.368812 160.219554,255.368812 C161.061881,255.368812 161.693317,254.94802 162.114604,254.314356 C162.74604,253.262376 162.325,251.997525 161.272277,251.574257 L54.5294554,194.664356 L165.062129,243.987129 C165.272525,244.197772 165.693564,244.197772 165.904208,244.197772 C166.746287,244.197772 167.37797,243.776238 167.79901,242.933168 C168.22005,241.879208 167.79901,240.614604 166.746287,240.193069 L56.2136139,190.870297 L169.904455,232.394059 C170.114851,232.394059 170.325495,232.60495 170.536139,232.60495 C171.378218,232.60495 172.220297,231.972525 172.430941,231.129455 C172.85198,230.075495 172.220297,228.810891 171.167574,228.389356 L57.4769802,187.076238 L173.694059,220.379703 C173.904703,220.379703 174.115099,220.379703 174.325743,220.379703 C175.167822,220.379703 176.009901,219.747277 176.431188,218.904208 C176.852228,217.850248 176.010149,216.585644 174.957426,216.374752 L58.740099,183.071535 L177.062624,208.154455 C177.273267,208.154455 177.273267,208.154455 177.483911,208.154455 C178.536634,208.154455 179.378713,207.52203 179.589109,206.468069 C179.799752,205.414109 179.168069,204.149505 177.90495,203.938861 L59.5824257,178.855941 L179.378713,195.718317 L179.589109,195.718317 C180.641832,195.718317 181.483911,194.875248 181.694554,193.821287 C181.905198,192.767327 181.062871,191.713366 180.010149,191.502723 L60.2138614,174.640347 L180.852475,183.071535 C180.852475,183.071535 180.852475,183.071535 181.062871,183.071535 C182.115594,183.071535 183.168317,182.228218 183.168317,181.174505 C182.747277,180.120545 181.905198,179.066584 180.852475,179.066584 Z" id="Path" fill="#FF9E9E" fill-rule="nonzero" mask="url(#mask-2)"></path>
                </g>
            </g>
        </g>
    </g>
</svg>