<?xml version="1.0" encoding="UTF-8"?>
<svg width="200px" height="55px" viewBox="0 0 200 55" version="1.1" xmlns="http://www.w3.org/2000/svg" xmlns:xlink="http://www.w3.org/1999/xlink">
    <!-- Generator: Sketch 58 (84663) - https://sketch.com -->
    <title>Niche logo Copy 2</title>
    <desc>Created with Sketch.</desc>
    <g id="Page-1" stroke="none" stroke-width="1" fill="none" fill-rule="evenodd">
        <g id="Home" transform="translate(-320.000000, -1718.000000)" fill="#34DFB6">
            <g id="Niche" transform="translate(140.000000, 1596.000000)">
                <g id="Niche-image">
                    <g id="Niche-logo-Copy-2" transform="translate(180.000000, 122.500000)">
                        <path d="M81.0208955,13.4328358 C80.4835821,13.4328358 80.2149254,13.7552239 80.2149254,14.238806 L80.2149254,15.8507463 C80.2149254,16.3880597 80.4835821,16.6567164 81.0208955,16.6567164 C83.6537313,16.6567164 84.9432836,18.8597015 84.9432836,21.761194 L84.9432836,41.319403 L60.9791045,13.9164179 C60.7104478,13.5940299 60.3880597,13.4865672 59.958209,13.4865672 L50.6626866,13.4865672 C50.1791045,13.4328358 49.8567164,13.7552239 49.8567164,14.238806 L49.8567164,15.8507463 C49.8567164,16.3880597 50.1791045,16.6567164 50.6626866,16.6567164 C52.0059701,16.6567164 53.0268657,17.1402985 54.0477612,18.0537313 L54.0477612,45.4029851 C54.0477612,48.358209 52.758209,50.5074627 50.1791045,50.5074627 C49.641791,50.5074627 49.3731343,50.8298507 49.3731343,51.3134328 L49.3731343,52.9253731 C49.3731343,53.4626866 49.641791,53.7313433 50.1791045,53.7313433 L63.3970149,53.7313433 C63.9343284,53.7313433 64.2029851,53.4626866 64.2029851,52.9253731 L64.2029851,51.3134328 C64.2029851,50.8298507 63.9343284,50.5074627 63.3970149,50.5074627 C60.7641791,50.5074627 59.4746269,48.358209 59.4746269,45.4029851 L59.4746269,24.0179104 L84.8358209,53.3014925 C85.158209,53.6238806 85.4268657,53.7313433 85.8567164,53.7313433 L89.5641791,53.7313433 C90.0477612,53.7313433 90.3701493,53.4626866 90.3701493,52.9253731 L90.3701493,21.761194 C90.3164179,18.8597015 91.6059701,16.6567164 94.238806,16.6567164 C94.7761194,16.6567164 95.0447761,16.3880597 95.0447761,15.8507463 L95.0447761,14.238806 C95.0447761,13.7552239 94.7761194,13.4328358 94.238806,13.4328358 L81.0208955,13.4328358 Z M103.861791,22.0835821 C104.828955,22.0835821 105.634925,21.7074627 106.548358,20.7402985 C107.515522,19.7731343 107.891642,19.0208955 107.891642,18.0537313 C107.891642,17.0865672 107.515522,16.280597 106.548358,15.3671642 C105.634925,14.4 104.828955,14.0238806 103.861791,14.0238806 C102.894627,14.0238806 102.142388,14.4 101.175224,15.3671642 C100.20806,16.280597 99.8319403,17.0865672 99.8319403,18.0537313 C99.8319403,19.0208955 100.20806,19.7731343 101.175224,20.7402985 C102.142388,21.7074627 102.894627,22.0835821 103.861791,22.0835821 Z M111.599104,50.5074627 C108.966269,50.5074627 107.622985,48.358209 107.622985,45.4029851 L107.622985,25.3074627 C107.569254,25.2 107.569254,25.2 107.515522,25.2 L107.40806,25.2 C107.300597,25.2 107.193134,25.2537313 107.139403,25.361194 C105.688657,26.8656716 102.948358,28.9074627 97.2528358,30.7880597 C96.7692537,30.9492537 96.500597,31.0567164 96.500597,31.4865672 L96.500597,33.3134328 C96.500597,33.6895522 96.6080597,33.958209 97.1453731,34.0119403 C100.100597,34.3343284 100.315522,37.3432836 100.315522,39.7074627 L100.315522,45.4029851 C100.369254,48.358209 99.0259701,50.5074627 96.3931343,50.5074627 L96.339403,50.5074627 C95.8020896,50.5074627 95.5334328,50.8298507 95.5334328,51.3134328 L95.5334328,52.9253731 C95.5334328,53.4626866 95.9095522,53.7313433 96.4468657,53.7313433 L111.599104,53.7313433 C112.136418,53.7313433 112.512537,53.4626866 112.512537,52.9253731 L112.512537,51.3134328 C112.512537,50.8298507 112.243881,50.5074627 111.706567,50.5074627 L111.599104,50.5074627 Z M136.056119,45.5104478 C135.841194,45.4029851 135.68,45.3492537 135.518806,45.3492537 C135.303881,45.3492537 135.088955,45.5104478 134.927761,45.7791045 C133.315821,48.1432836 131.005373,49.3791045 128.909851,49.5940299 C128.587463,49.6477612 128.265075,49.6477612 127.942687,49.6477612 C122.515821,49.6477612 120.581493,44.7044776 120.581493,39.3313433 C120.581493,38.6865672 120.635224,37.9880597 120.688955,37.3432836 C121.011343,33.6358209 122.623284,30.519403 126.06209,30.519403 C129.232239,30.519403 130.629254,32.3462687 130.414328,35.4089552 L130.360597,35.9462687 C130.360597,36.2149254 130.521791,36.3223881 130.790448,36.3223881 C130.951642,36.3223881 131.059104,36.3223881 131.27403,36.2686567 L137.453134,34.6029851 C137.829254,34.4955224 138.044179,34.280597 138.044179,33.9044776 L138.044179,33.6895522 C137.29194,30.3044776 134.820299,26.758209 128.265075,26.3283582 L127.29791,26.2746269 C121.226269,26.2746269 114.456119,30.1432836 113.703881,39.0626866 C113.112836,46.6925373 118.432239,54.2686567 126.49194,54.2686567 C126.975522,54.2686567 127.459104,54.2149254 127.942687,54.161194 C133.047164,53.6776119 136.056119,51.1522388 137.775522,47.6059701 C137.936716,47.1761194 137.829254,46.8 137.453134,46.5313433 L136.056119,45.5104478 Z M173.414478,50.5074627 C170.781642,50.5074627 169.438358,48.358209 169.438358,45.4029851 L169.438358,36 C169.438358,30.8955224 167.987612,26.1671642 160.30403,26.1671642 C155.360746,26.1671642 152.405522,29.6059701 151.438358,31.4865672 L151.438358,10.8537299 C151.438358,10.7999985 151.438358,10.7462687 151.330896,10.7462687 L151.223433,10.7999985 C151.169701,10.7999985 151.062239,10.8537299 151.008507,10.9074597 C149.557761,11.9283552 146.548806,13.9701493 140.907015,15.8507463 C140.369701,16.0656716 140.101045,16.119403 140.101045,16.6029851 L140.101045,18.4298507 C140.101045,18.7522388 140.208507,19.0208955 140.745821,19.0746269 C143.701045,19.3970149 143.91597,22.4059701 143.91597,25.2537313 L143.91597,45.4029851 C143.969701,48.358209 142.680149,50.5074627 140.047313,50.5074627 L139.939851,50.5074627 C139.402537,50.5074627 139.133881,50.8298507 139.133881,51.3134328 L139.133881,52.9253731 C139.133881,53.4626866 139.402537,53.7313433 139.939851,53.7313433 L155.52194,53.7313433 C156.059254,53.7313433 156.32791,53.4626866 156.32791,52.9253731 L156.32791,51.3134328 C156.32791,50.8298507 156.059254,50.5074627 155.52194,50.5074627 L155.414478,50.5074627 C152.781642,50.5074627 151.49209,48.358209 151.49209,45.4029851 L151.49209,34.9791045 C152.405522,32.7223881 155.360746,30.9492537 157.993582,30.9492537 C162.130896,30.9492537 161.91597,33.8507463 161.91597,37.3432836 L161.91597,45.4029851 C161.969701,48.358209 161.11,50.5074627 159.068209,50.5074627 L158.960746,50.5074627 C158.423433,50.5074627 158.154776,50.8298507 158.154776,51.3134328 L158.154776,52.9253731 C158.154776,53.4626866 158.423433,53.7313433 158.960746,53.7313433 L173.52194,53.7313433 C174.059254,53.7313433 174.32791,53.4626866 174.32791,52.9253731 L174.32791,51.3134328 C174.32791,50.8298507 174.059254,50.5074627 173.52194,50.5074627 L173.414478,50.5074627 Z M197.787015,37.3432836 C198.109403,37.1820896 198.216866,36.9671642 198.216866,36.6447761 C198.216866,32.6149254 194.294478,26.2746269 187.148209,26.2746269 C180.861642,26.2746269 174.413881,30.0895522 174.413881,40.0835821 C174.413881,47.8746269 179.894478,54.3761194 188.813881,54.3761194 C194.240746,54.3761194 197.57209,51.9044776 199.559701,48.1432836 C199.720896,47.8208955 199.935821,47.4985075 199.935821,47.1761194 C199.935821,47.0149254 199.828358,46.8537313 199.667164,46.8 C197.948209,45.7791045 197.894478,45.7253731 197.57209,45.7253731 C197.410896,45.7253731 197.19597,45.7791045 197.088507,45.9402985 C195.20791,48.680597 192.521343,49.9164179 190.264627,49.9164179 C186.073582,49.9164179 183.387015,47.1223881 182.204925,44.1671642 L197.787015,37.3432836 Z M181.560149,40.7820896 C181.076567,39.5462687 181.022836,37.7731343 181.022836,36.6985075 C181.022836,33.2059701 182.903433,30.519403 185.858657,30.519403 C188.330299,30.519403 190.157164,33.0447761 190.157164,36.4298507 L181.560149,40.7820896 Z" id="Shape" fill-rule="nonzero"></path>
                        <path d="M17.9104478,0 C27.8020896,0 35.8208955,8.01877612 35.8208955,17.9104478 L35.8208955,53.7313433 L0,53.7313433 L0,17.9104478 C0,8.01877612 8.01877612,0 17.9104478,0 Z M4.47761194,34.399403 L4.47761194,47.761194 L13.4328358,47.761194 L13.4328358,34.399403 C13.4328358,32.0540299 11.2639851,29.8507463 8.95522388,29.8507463 C6.64646269,29.8507463 4.47761194,32.0540299 4.47761194,34.399403 Z" id="Shape"></path>
                    </g>
                </g>
            </g>
        </g>
    </g>
</svg>
