<?xml version="1.0" encoding="UTF-8"?>
<svg width="45px" height="70px" viewBox="0 0 45 70" version="1.1" xmlns="http://www.w3.org/2000/svg" xmlns:xlink="http://www.w3.org/1999/xlink">
    <!-- Generator: Sketch 58 (84663) - https://sketch.com -->
    <title>Group 7</title>
    <desc>Created with Sketch.</desc>
    <g id="Page-1" stroke="none" stroke-width="1" fill="none" fill-rule="evenodd" stroke-linecap="round" stroke-linejoin="round">
        <g id="Subscribe-—-Confirm" transform="translate(-439.000000, -362.000000)" stroke="#000000" stroke-width="2">
            <g id="Success" transform="translate(400.000000, 323.000000)">
                <g id="Group-7" transform="translate(40.000000, 40.000000)">
                    <path d="M42.2068966,21.1034483 C42.2068966,9.44848276 32.7584138,0 21.1034483,0 C9.44848276,0 0,9.44848276 0,21.1034483 C0,34 14.1510345,42.6418621 19.2733103,46.6726207 L15.2413793,53.9310345 L26.9655172,53.9310345 L22.9335862,46.6726207 C28.0558621,42.6418621 42.2068966,34 42.2068966,21.1034483 Z" id="Stroke-1"></path>
                    <path d="M21.1034483,53.9310345 L21.1034483,62.137931 C21.1034483,64.0794483 22.678,65.6551724 24.6206897,65.6551724 C26.5633793,65.6551724 28.137931,64.0794483 28.137931,62.137931 C28.137931,60.194069 29.7124828,58.6206897 31.6551724,58.6206897 C33.5978621,58.6206897 35.1724138,60.194069 35.1724138,62.137931 L35.1724138,68" id="Stroke-3"></path>
                    <path d="M7.03448276,21.1034483 C7.03448276,13.3338621 13.3338621,7.03448276 21.1034483,7.03448276" id="Stroke-5"></path>
                </g>
            </g>
        </g>
    </g>
</svg>