<?xml version="1.0" encoding="UTF-8"?>
<svg width="60px" height="55px" viewBox="0 0 60 55" version="1.1" xmlns="http://www.w3.org/2000/svg" xmlns:xlink="http://www.w3.org/1999/xlink">
    <!-- Generator: Sketch 58 (84663) - https://sketch.com -->
    <title>Retrieve</title>
    <desc>Created with Sketch.</desc>
    <g id="Page-1" stroke="none" stroke-width="1" fill="none" fill-rule="evenodd" stroke-linecap="round" stroke-linejoin="round">
        <g id="Niche" transform="translate(-144.000000, -2163.000000)" stroke="#141033">
            <g id="Retrieve" transform="translate(145.000000, 2164.000000)">
                <path d="M26,40.41825 C26,47.59725 20.179,53.41825 13,53.41825 C5.819,53.41825 0,47.59725 0,40.41825 C0,33.23925 5.819,27.41825 13,27.41825 C20.179,27.41825 26,33.23925 26,40.41825 Z" id="Stroke-1"></path>
                <path d="M26,11.41825 L26,1.41825 C24.108,-0.47275 19.891,-0.47275 18,1.41825 L14,11.41825 L10,15.41825 L2,33.41825" id="Stroke-3"></path>
                <path d="M32,40.41825 C32,47.59725 37.819,53.41825 45,53.41825 C52.179,53.41825 58,47.59725 58,40.41825 C58,33.23925 52.179,27.41825 45,27.41825 C37.819,27.41825 32,33.23925 32,40.41825 Z" id="Stroke-5"></path>
                <path d="M32,11.41825 L32,1.41825 C33.891,-0.47275 38.456,-0.47275 40.348,1.41825 L44,11.41825 L48,15.41825 L56,33.41825" id="Stroke-7"></path>
                <path d="M19,22.41825 C19,19.63225 23.43,17.41825 29,17.41825 C34.57,17.41825 39,19.63225 39,22.41825" id="Stroke-9"></path>
                <path d="M26,40.41825 L26,17.64325" id="Stroke-11"></path>
                <path d="M32,40.41825 L32,17.64325" id="Stroke-13"></path>
                <path d="M5.0435,40.81035 C5.0435,36.63235 8.4305,33.24535 12.6085,33.24535" id="Stroke-15"></path>
                <path d="M37.8262,40.81035 C37.8262,36.63235 41.2132,33.24535 45.3912,33.24535" id="Stroke-17"></path>
            </g>
        </g>
    </g>
</svg>
