<?xml version="1.0" encoding="UTF-8" standalone="no"?>
<svg
   xmlns:dc="http://purl.org/dc/elements/1.1/"
   xmlns:cc="http://creativecommons.org/ns#"
   xmlns:rdf="http://www.w3.org/1999/02/22-rdf-syntax-ns#"
   xmlns:svg="http://www.w3.org/2000/svg"
   xmlns="http://www.w3.org/2000/svg"
   viewBox="0 0 82.666664 82.666664"
   height="82.666664"
   width="82.666664"
   xml:space="preserve"
   id="svg2"
   version="1.1"><metadata
     id="metadata8"><rdf:RDF><cc:Work
         rdf:about=""><dc:format>image/svg+xml</dc:format><dc:type
           rdf:resource="http://purl.org/dc/dcmitype/StillImage" /></cc:Work></rdf:RDF></metadata><defs
     id="defs6"><clipPath
       id="clipPath20"
       clipPathUnits="userSpaceOnUse"><path
         style="clip-rule:evenodd"
         id="path18"
         d="M 31,1 C 47.56854,1 61,14.43146 61,31 61,47.56854 47.56854,61 31,61 14.43146,61 1,47.56854 1,31 1,14.43146 14.43146,1 31,1 Z" /></clipPath><clipPath
       id="clipPath26"
       clipPathUnits="userSpaceOnUse"><path
         id="path24"
         d="M -1239,-1926 H 201 v 3233 h -1440 z" /></clipPath><clipPath
       id="clipPath36"
       clipPathUnits="userSpaceOnUse"><path
         id="path34"
         d="M -1239,-1926 H 201 v 3233 h -1440 z" /></clipPath><clipPath
       id="clipPath48"
       clipPathUnits="userSpaceOnUse"><path
         id="path46"
         d="m 39.65642,29.64577 -6.03476,-6.11912 c -0.69252,-0.7022 -1.92915,-0.7022 -2.67113,0 -0.69251,0.75235 -0.69251,2.00627 0,2.70846 l 2.81952,2.85893 H 23.62968 C 22.59091,29.09404 21.75,29.99687 21.75,31 c 0,1.10345 0.89037,1.90596 1.87968,1.90596 h 10.09091 l -2.77006,2.85893 c -0.69251,0.75235 -0.69251,1.95611 0,2.70846 0.74198,0.7022 1.97861,0.7022 2.67113,0 l 6.03476,-6.11912 C 40.00267,32.00313 40.25,31.45141 40.25,31 c 0,-0.50157 -0.24733,-0.95298 -0.59358,-1.35423 z" /></clipPath><clipPath
       id="clipPath54"
       clipPathUnits="userSpaceOnUse"><path
         id="path52"
         d="M -1239,-1926 H 201 v 3233 h -1440 z" /></clipPath></defs><g
     transform="matrix(1.3333333,0,0,-1.3333333,0,82.666667)"
     id="g10"><g
       id="g12" /><g
       id="g14"><g
         clip-path="url(#clipPath20)"
         id="g16"><g
           clip-path="url(#clipPath26)"
           id="g22"><path
             id="path28"
             style="fill:#141033;fill-opacity:1;fill-rule:nonzero;stroke:none"
             d="M -4,66 H 66 V -4 H -4 Z" /></g></g></g><g
       id="g30"><g
         clip-path="url(#clipPath36)"
         id="g32"><g
           transform="matrix(1,0,0,-1,1,61)"
           id="g38"><path
             id="path40"
             style="fill:none;stroke:#141033;stroke-width:1;stroke-linecap:butt;stroke-linejoin:miter;stroke-miterlimit:10;stroke-dasharray:none;stroke-opacity:1"
             d="M 30,60 C 46.56854,60 60,46.56854 60,30 60,13.43146 46.56854,0 30,0 13.43146,0 0,13.43146 0,30 0,46.56854 13.43146,60 30,60 Z" /></g></g></g><g
       id="g42"><g
         clip-path="url(#clipPath48)"
         id="g44"><g
           clip-path="url(#clipPath54)"
           id="g50"><path
             id="path56"
             style="fill:#ffffff;fill-opacity:1;fill-rule:nonzero;stroke:none"
             d="m 16.75,44 h 28.5 V 18 h -28.5 z" /></g></g></g></g></svg>