<?xml version="1.0" encoding="UTF-8"?>
<svg width="40px" height="40px" viewBox="0 0 40 40" version="1.1" xmlns="http://www.w3.org/2000/svg" xmlns:xlink="http://www.w3.org/1999/xlink">
    <!-- Generator: Sketch 58 (84663) - https://sketch.com -->
    <title>Slack_Mark</title>
    <desc>Created with Sketch.</desc>
    <g id="Page-1" stroke="none" stroke-width="1" fill="none" fill-rule="evenodd">
        <g id="About-Contact" transform="translate(-440.000000, -1103.000000)" fill-rule="nonzero">
            <g id="Texts" transform="translate(140.000000, 880.000000)">
                <g id="Slack_Mark" transform="translate(300.000000, 223.000000)">
                    <g id="Group" transform="translate(0.000000, 20.967742)" fill="#E01E5A">
                        <path d="M8.51612903,4.25806452 C8.51612903,6.5483871 6.64516129,8.41935484 4.35483871,8.41935484 C2.06451613,8.41935484 0.193548387,6.5483871 0.193548387,4.25806452 C0.193548387,1.96774194 2.06451613,0.0967741935 4.35483871,0.0967741935 L8.51612903,0.0967741935 L8.51612903,4.25806452 Z" id="Path"></path>
                        <path d="M10.6129032,4.25806452 C10.6129032,1.96774194 12.483871,0.0967741935 14.7741935,0.0967741935 C17.0645161,0.0967741935 18.9354839,1.96774194 18.9354839,4.25806452 L18.9354839,14.6774194 C18.9354839,16.9677419 17.0645161,18.8387097 14.7741935,18.8387097 C12.483871,18.8387097 10.6129032,16.9677419 10.6129032,14.6774194 L10.6129032,4.25806452 Z" id="Path"></path>
                    </g>
                    <g id="Group" fill="#36C5F0">
                        <path d="M14.7741935,8.51612903 C12.483871,8.51612903 10.6129032,6.64516129 10.6129032,4.35483871 C10.6129032,2.06451613 12.483871,0.193548387 14.7741935,0.193548387 C17.0645161,0.193548387 18.9354839,2.06451613 18.9354839,4.35483871 L18.9354839,8.51612903 L14.7741935,8.51612903 Z" id="Path"></path>
                        <path d="M14.7741935,10.6129032 C17.0645161,10.6129032 18.9354839,12.483871 18.9354839,14.7741935 C18.9354839,17.0645161 17.0645161,18.9354839 14.7741935,18.9354839 L4.35483871,18.9354839 C2.06451613,18.9354839 0.193548387,17.0645161 0.193548387,14.7741935 C0.193548387,12.483871 2.06451613,10.6129032 4.35483871,10.6129032 L14.7741935,10.6129032 Z" id="Path"></path>
                    </g>
                    <g id="Group" transform="translate(20.967742, 0.000000)" fill="#2EB67D">
                        <path d="M10.516129,14.7741935 C10.516129,12.483871 12.3870968,10.6129032 14.6774194,10.6129032 C16.9677419,10.6129032 18.8387097,12.483871 18.8387097,14.7741935 C18.8387097,17.0645161 16.9677419,18.9354839 14.6774194,18.9354839 L10.516129,18.9354839 L10.516129,14.7741935 Z" id="Path"></path>
                        <path d="M8.41935484,14.7741935 C8.41935484,17.0645161 6.5483871,18.9354839 4.25806452,18.9354839 C1.96774194,18.9354839 0.0967741935,17.0645161 0.0967741935,14.7741935 L0.0967741935,4.35483871 C0.0967741935,2.06451613 1.96774194,0.193548387 4.25806452,0.193548387 C6.5483871,0.193548387 8.41935484,2.06451613 8.41935484,4.35483871 L8.41935484,14.7741935 Z" id="Path"></path>
                    </g>
                    <g id="Group" transform="translate(20.967742, 20.967742)" fill="#ECB22E">
                        <path d="M4.25806452,10.516129 C6.5483871,10.516129 8.41935484,12.3870968 8.41935484,14.6774194 C8.41935484,16.9677419 6.5483871,18.8387097 4.25806452,18.8387097 C1.96774194,18.8387097 0.0967741935,16.9677419 0.0967741935,14.6774194 L0.0967741935,10.516129 L4.25806452,10.516129 Z" id="Path"></path>
                        <path d="M4.25806452,8.41935484 C1.96774194,8.41935484 0.0967741935,6.5483871 0.0967741935,4.25806452 C0.0967741935,1.96774194 1.96774194,0.0967741935 4.25806452,0.0967741935 L14.6774194,0.0967741935 C16.9677419,0.0967741935 18.8387097,1.96774194 18.8387097,4.25806452 C18.8387097,6.5483871 16.9677419,8.41935484 14.6774194,8.41935484 L4.25806452,8.41935484 Z" id="Path"></path>
                    </g>
                </g>
            </g>
        </g>
    </g>
</svg>