<?xml version="1.0" encoding="UTF-8"?>
<svg width="18px" height="14px" viewBox="0 0 18 14" version="1.1" xmlns="http://www.w3.org/2000/svg" xmlns:xlink="http://www.w3.org/1999/xlink">
    <!-- Generator: Sketch 58 (84663) - https://sketch.com -->
    <title>hammer</title>
    <desc>Created with Sketch.</desc>
    <g id="Page-1" stroke="none" stroke-width="1" fill="none" fill-rule="evenodd">
        <g id="Home" transform="translate(-1248.000000, -73.000000)" fill="#000000" fill-rule="nonzero">
            <g id="Header" transform="translate(141.000000, 60.000000)">
                <g id="FF-lab" transform="translate(1107.000000, 10.000000)">
                    <path d="M17.1444454,8.74866184 L15.7953153,10.069969 C15.5142465,10.3452413 15.1207502,10.3452413 14.8396814,10.0974962 L14.5867195,9.84975112 C14.3056507,9.5744788 14.3056507,9.16157032 14.5867195,8.91382523 C14.6429333,8.74866184 14.5023989,8.47338953 14.2213301,8.19811721 C13.6591925,7.64757257 13.0127343,7.62004534 12.7035587,7.92284489 L12.2819555,8.39080783 L10.6517566,6.73917392 L11.1295735,6.29873822 C11.6354973,5.77572081 11.0733598,5.22517618 11.0733598,5.22517618 C9.63990897,3.82128736 7.61621376,3.84881459 7.61621376,3.84881459 L7.56,3.32579718 C11.6636042,2.27976238 13.2375894,4.04150521 13.7997269,4.56452261 L14.9802158,5.72066635 C15.2612846,6.0234659 14.9521089,6.87681008 15.3737121,7.31724579 C15.5423534,7.50993641 15.7672084,7.59251811 15.9639565,7.59251811 C16.2450253,7.31724579 16.6947354,7.37230026 16.9195904,7.62004534 L17.1725523,7.86779043 C17.4536211,8.11553551 17.3974073,8.50091676 17.1444454,8.74866184 Z M12.04,8.83620479 L10.3536896,7.2 L6.46660126,11.0825199 L2.49376831,14.6599846 C2.15078992,14.992772 2.15078992,15.5474177 2.52234984,15.8802051 L3.3797958,16.7399059 C3.69419265,17.1004256 4.29440482,17.0726933 4.60880168,16.7399059 L8.03858552,12.7187246 L12.04,8.83620479 Z M8.1298625,12.7381709 L11.7429863,16.5794248 C12.3357644,17.1401917 13.2672728,17.1401917 13.8318234,16.5794248 C14.4246015,15.9906194 14.4246015,15.0933922 13.860051,14.5326252 L9.82351426,10.9997932 L8.15809003,9.4296456 L6.26684556,7.57911452 C5.75875004,7.01834753 5.61761239,6.79404073 5.75875004,6.14915869 C6.0127978,5.0837014 5.5329298,3.96216742 4.5731938,3.40140043 C3.04890722,2.53221159 1.72221334,3.34532373 1.72221334,3.34532373 L1.5810757,3.51355382 L2.99245216,4.41078101 C2.99245216,4.41078101 3.83927804,4.91547131 3.07713475,6.12112034 C2.39967405,7.15853928 1.52462064,6.62581063 1.52462064,6.62581063 L0.113244171,5.7005451 L0.000334053602,5.86877519 C0.000334053602,5.86877519 -0.056121005,7.57911452 1.2988004,8.44830336 C1.94803358,8.86887861 2.65372181,8.86887861 3.16181734,8.70064851 C3.66991287,8.53241841 4.00864322,8.72868686 4.65787639,9.3174922 L6.52089333,11.0839082 L8.1298625,12.7381709 Z M12.74,16.16 C12.3511111,16.16 12.04,15.8488889 12.04,15.46 C12.04,15.0711111 12.3511111,14.76 12.74,14.76 C13.1288889,14.76 13.44,15.0711111 13.44,15.46 C13.44,15.8488889 13.1288889,16.16 12.74,16.16 Z" id="hammer"></path>
                </g>
            </g>
        </g>
    </g>
</svg>