<?xml version="1.0" encoding="UTF-8"?>
<svg width="50px" height="41px" viewBox="0 0 50 41" version="1.1" xmlns="http://www.w3.org/2000/svg" xmlns:xlink="http://www.w3.org/1999/xlink">
    <!-- Generator: Sketch 58 (84663) - https://sketch.com -->
    <title>Twitter_Logo_Blue</title>
    <desc>Created with Sketch.</desc>
    <g id="Page-1" stroke="none" stroke-width="1" fill="none" fill-rule="evenodd">
        <g id="About-Contact" transform="translate(-740.000000, -1103.000000)" fill="#1DA1F2" fill-rule="nonzero">
            <g id="Texts" transform="translate(140.000000, 880.000000)">
                <g id="Twitter_Logo_Blue" transform="translate(600.261682, 223.000000)">
                    <path d="M15.7309727,40.7675465 C34.3073523,40.7675465 44.4678483,25.3771518 44.4678483,12.0306709 C44.4678483,11.5935333 44.4678483,11.1583648 44.4383119,10.7251653 C46.4149446,9.29543163 48.1212071,7.52515925 49.477209,5.49723572 C47.6339042,6.31401706 45.6785014,6.84966202 43.6762747,7.08629003 C45.7846643,5.82406905 47.3626514,3.83881434 48.116569,1.49998634 C46.1340071,2.67642865 43.9650339,3.50552651 41.7032482,3.95150135 C38.5725607,0.622549304 33.5979279,-0.192223415 29.5688382,1.96406095 C25.5397485,4.12034531 23.4582169,8.71142931 24.4914468,13.1628967 C16.3707211,12.7557868 8.8046567,8.92014784 3.67621375,2.61055218 C0.995541663,7.22539573 2.36477704,13.1291455 6.80312607,16.0929002 C5.19584037,16.0452631 3.62359847,15.6116809 2.21908836,14.8287455 C2.21908836,14.8700963 2.21908836,14.9134163 2.21908836,14.9567362 C2.22040397,19.7644485 5.60936918,23.9053275 10.321887,24.8573125 C8.83496848,25.2628266 7.27488141,25.3221046 5.76147832,25.0305923 C7.08460317,29.1448504 10.8763322,31.9633268 15.1973498,32.044485 C11.6209636,34.8552246 7.20296819,36.3810629 2.65425689,36.3764794 C1.85067896,36.3749367 1.04788261,36.3262824 0.25,36.2307669 C4.86876445,39.1947894 10.2429529,40.766989 15.7309727,40.7596701" id="Path"></path>
                </g>
            </g>
        </g>
    </g>
</svg>