<?xml version="1.0" encoding="UTF-8"?>
<svg width="28px" height="23px" viewBox="0 0 28 23" version="1.1" xmlns="http://www.w3.org/2000/svg" xmlns:xlink="http://www.w3.org/1999/xlink">
    <!-- Generator: Sketch 58 (84663) - https://sketch.com -->
    <title>Path</title>
    <desc>Created with Sketch.</desc>
    <g id="Page-1" stroke="none" stroke-width="1" fill="none" fill-rule="evenodd">
        <g id="About-Contact" transform="translate(-1002.000000, -1638.000000)" fill="#FFFFFF" fill-rule="nonzero">
            <g id="Footer" transform="translate(0.000000, 1449.000000)">
                <g id="Footer-extension" transform="translate(0.000000, 108.000000)">
                    <g id="Twitter" transform="translate(1002.000000, 81.500000)">
                        <g id="Twitter_Logo_Blue">
                            <path d="M24.790438,6.38145639 C24.790438,6.13775598 24.790438,5.89515332 24.7739718,5.6536484 C25.8759273,4.85658433 26.8271538,3.86967289 27.5831131,2.73912319 C26.5554867,3.19447168 25.4653666,3.49308907 24.3491427,3.62500713 C25.5245515,2.92132993 26.4042656,1.81456772 26.8245681,0.510691484 C25.7193071,1.16654782 24.5101234,1.62876266 23.2491976,1.87738975 C21.5038666,0.0215279772 18.7305521,-0.432700716 16.4843697,0.769409032 C14.2381873,1.97151878 13.0777516,4.53100812 13.6537683,7.01266242 C9.12653442,6.78570218 4.90851941,4.64736688 2.04945714,1.12982226 C0.555005805,3.70255735 1.3183426,6.99384642 3.79268352,8.64611384 C2.89663574,8.61955658 2.02012458,8.3778383 1.23712243,7.94135859 C1.23712243,7.96441133 1.23712243,7.98856182 1.23712243,8.01271231 C1.23785587,10.69297 3.12717445,13.001474 5.75436207,13.5321973 C4.92541797,13.758268 4.05568302,13.7913149 3.21197398,13.6287993 C3.94960455,15.9224624 6.06346044,17.4937384 8.47239011,17.5389834 C6.47858595,19.1059463 4.01559202,19.9565878 1.4797251,19.9540326 C1.0317374,19.9531725 0.584185427,19.9260482 0.139372822,19.8727991 C2.71429377,21.5252158 5.71035703,22.4017034 8.76988025,22.3976374 C19.1260501,22.4020142 24.790438,13.8220032 24.790438,6.38145639 Z" id="Path"></path>
                        </g>
                    </g>
                </g>
            </g>
        </g>
    </g>
</svg>